<?xml version="1.0" standalone="no"?>
<!DOCTYPE svg PUBLIC "-//W3C//DTD SVG 20010904//EN"
 "http://www.w3.org/TR/2001/REC-SVG-20010904/DTD/svg10.dtd">
<svg version="1.0" xmlns="http://www.w3.org/2000/svg"
 width="188.000000pt" height="188.000000pt" viewBox="0 0 188.000000 188.000000"
 preserveAspectRatio="xMidYMid meet">

<g transform="translate(0.000000,188.000000) scale(0.100000,-0.100000)"
fill="#000000" stroke="none">
<path d="M253 1783 c-46 -49 -83 -94 -83 -100 0 -17 28 -16 80 2 23 8 48 15
56 15 7 0 34 -28 61 -62 26 -35 72 -92 101 -127 l54 -64 -9 -56 c-12 -85 -9
-160 11 -220 14 -42 16 -58 7 -77 -19 -43 -91 -324 -91 -358 0 -18 14 -72 30
-122 17 -49 56 -174 86 -279 84 -291 82 -285 110 -285 19 0 24 5 24 26 0 31
-52 343 -79 476 -12 56 -18 112 -14 134 6 42 72 296 79 303 2 2 18 -2 35 -9
31 -13 31 -14 25 -64 -3 -28 -9 -107 -12 -176 -6 -122 -5 -130 46 -380 60
-300 72 -345 91 -345 16 0 16 14 4 192 -8 107 2 305 26 568 14 151 15 155 43
155 20 0 25 -6 30 -37 10 -65 27 -458 29 -665 2 -173 4 -198 18 -198 20 0 38
62 78 275 70 372 73 391 56 506 -8 57 -17 118 -21 136 -5 25 -2 33 14 42 12 6
23 11 25 11 3 0 22 -53 42 -117 20 -65 44 -133 53 -152 14 -31 14 -45 -12
-210 -15 -97 -39 -236 -52 -309 -29 -160 -29 -152 -4 -152 16 0 27 23 64 138
25 75 72 214 105 309 33 95 61 187 62 205 4 65 -55 300 -98 395 -13 28 -13 37
2 80 9 26 19 90 22 142 l6 93 73 107 c40 59 80 113 89 121 14 11 27 10 85 -9
68 -23 100 -23 100 -1 0 19 -218 230 -238 230 -10 0 -33 -18 -50 -39 -18 -22
-63 -73 -101 -114 -37 -40 -73 -82 -79 -92 -9 -18 -15 -17 -94 20 l-83 40
-131 0 c-116 0 -136 -3 -181 -24 l-51 -23 -93 64 c-52 36 -125 88 -162 116
-37 29 -76 52 -85 52 -9 0 -54 -39 -99 -87z m524 -399 c71 -80 80 -97 89 -162
5 -44 4 -52 -9 -52 -9 0 -19 5 -22 10 -4 6 -53 38 -111 71 -57 34 -104 65
-104 70 0 16 75 128 87 129 6 0 38 -30 70 -66z m436 5 c20 -33 37 -63 37 -67
0 -10 -240 -155 -246 -149 -3 3 -2 31 1 62 7 53 13 64 77 136 38 44 75 79 81
79 7 -1 29 -28 50 -61z"/>
</g>
</svg>
