<svg id="svg" xmlns="http://www.w3.org/2000/svg" xmlns:xlink="http://www.w3.org/1999/xlink" width="400" height="302.4390243902439" viewBox="0, 0, 400,302.4390243902439" version="1.1"><g id="svgg"><path id="path0" d="M193.171 21.262 C 144.267 25.401,105.569 50.436,84.502 91.565 C 40.017 178.416,102.552 281.058,200.000 281.137 C 297.329 281.216,359.973 178.396,315.498 91.565 C 292.544 46.752,241.131 17.204,193.171 21.262 M198.321 46.570 C 199.547 47.497,200.702 47.503,201.463 46.585 C 204.340 43.119,232.521 54.095,237.040 60.441 C 239.837 64.369,249.756 92.776,249.756 96.859 C 249.756 99.244,250.200 98.606,236.372 116.098 C 218.209 139.071,211.334 148.356,205.576 157.682 C 203.869 160.447,202.930 160.579,201.191 158.299 L 199.894 156.598 198.833 158.177 C 197.008 160.892,196.051 160.552,193.398 156.245 C 188.860 148.877,180.453 137.404,170.234 124.634 C 151.234 100.892,149.502 98.439,149.999 95.971 C 151.158 90.222,158.965 67.851,161.688 62.477 C 165.433 55.087,193.480 42.908,198.321 46.570 M149.011 57.771 C 157.204 62.572,155.170 75.840,144.481 87.317 L 141.529 90.488 140.728 89.378 C 140.288 88.768,139.066 87.273,138.013 86.056 C 135.671 83.350,135.654 83.684,138.248 81.401 C 146.911 73.775,146.039 60.298,137.176 64.827 C 136.180 65.336,134.647 66.543,133.769 67.510 C 131.607 69.890,131.035 69.782,131.342 67.053 C 132.269 58.830,142.050 53.692,149.011 57.771 M261.751 57.342 C 265.721 59.809,268.780 64.249,268.780 67.545 C 268.780 69.768,268.449 69.718,265.882 67.102 C 260.045 61.155,254.744 63.427,256.047 71.317 C 257.047 77.375,259.479 80.096,272.659 89.902 C 288.212 101.474,295.746 109.542,301.474 120.763 C 308.118 133.780,305.770 151.934,296.433 159.722 L 294.390 161.427 293.415 159.688 C 292.878 158.731,291.625 156.660,290.629 155.086 L 288.820 152.223 290.023 150.793 C 294.218 145.808,296.082 137.094,294.371 130.468 C 291.794 120.483,286.928 114.436,269.268 99.268 C 250.984 83.565,247.894 79.781,246.336 71.188 C 244.428 60.669,253.701 52.341,261.751 57.342 M127.438 79.351 C 133.982 81.404,141.673 90.290,143.223 97.589 C 146.444 112.755,141.833 126.012,124.535 151.317 L 120.633 157.025 117.756 155.628 C 116.173 154.859,114.247 153.705,113.475 153.063 L 112.072 151.896 119.317 141.436 C 132.515 122.381,135.978 111.774,132.889 99.856 C 128.738 83.836,111.225 82.653,106.099 98.045 C 103.900 104.647,102.084 104.116,102.571 97.013 C 103.427 84.530,115.840 75.713,127.438 79.351 M283.782 79.616 C 292.337 82.763,299.292 94.758,296.591 101.707 L 296.022 103.171 295.091 102.028 C 294.579 101.400,293.703 99.348,293.144 97.470 C 290.752 89.440,281.651 84.963,274.733 88.414 L 273.147 89.205 269.223 86.248 L 265.299 83.291 267.585 81.666 C 272.545 78.139,277.918 77.459,283.782 79.616 M127.869 92.073 C 132.682 97.358,132.594 97.718,124.825 104.436 C 104.739 121.806,99.752 137.496,110.033 150.975 C 118.379 161.918,149.980 164.313,160.510 154.800 C 162.815 152.717,163.119 150.563,161.341 148.898 C 157.833 145.611,152.782 146.864,149.764 151.770 C 148.086 154.496,147.532 154.476,145.097 151.596 C 137.856 143.034,139.343 127.133,148.240 117.985 C 151.718 114.407,151.993 114.420,152.398 118.171 C 153.116 124.822,156.989 129.381,160.964 128.253 C 162.123 127.924,162.137 130.077,160.990 132.277 C 160.420 133.370,160.049 134.358,160.165 134.474 C 160.281 134.590,160.861 133.683,161.454 132.458 C 163.074 129.113,163.266 125.195,162.014 121.073 C 160.223 115.176,160.522 115.178,165.658 121.098 C 172.626 129.129,179.645 139.054,178.891 139.808 C 178.759 139.940,177.826 139.489,176.818 138.805 C 171.878 135.452,168.922 138.801,172.247 143.983 C 174.787 147.942,177.921 150.336,184.238 153.141 C 193.334 157.182,194.146 158.182,197.163 169.049 C 201.817 185.817,196.401 224.263,187.159 240.066 C 178.953 254.098,161.339 256.767,152.853 245.266 C 151.435 243.344,151.430 243.078,152.805 242.656 C 153.409 242.471,155.567 241.564,157.600 240.642 L 161.298 238.964 163.660 240.220 C 169.892 243.533,178.594 236.786,182.605 225.530 C 187.127 212.843,187.727 188.505,183.732 179.780 C 179.860 171.322,173.389 169.188,156.963 170.953 C 123.761 174.522,102.360 166.463,96.238 148.087 C 90.596 131.151,99.878 111.138,120.976 94.751 C 126.920 90.134,126.316 90.368,127.869 92.073 M262.957 95.137 C 265.930 97.576,266.749 98.514,266.568 99.268 C 263.303 112.816,266.080 121.013,281.519 143.415 C 294.201 161.815,296.575 166.958,297.546 178.138 C 298.970 194.536,292.191 209.107,280.168 215.488 C 276.573 217.395,276.098 217.437,276.098 215.844 C 276.098 215.169,275.540 213.028,274.858 211.088 L 273.618 207.561 274.649 206.829 C 292.197 194.377,291.767 176.641,273.245 148.925 C 262.152 132.325,258.418 124.936,256.533 115.854 C 254.986 108.394,255.384 98.068,257.394 93.523 C 258.382 91.289,258.209 91.239,262.957 95.137 M251.942 118.194 C 260.849 127.513,262.157 142.613,254.832 151.551 C 252.731 154.115,251.732 154.199,250.501 151.912 C 247.890 147.065,242.670 145.544,239.062 148.580 C 230.953 155.403,253.452 163.163,271.463 159.755 C 273.878 159.298,276.453 158.813,277.185 158.677 C 278.520 158.428,283.408 166.632,282.652 167.854 C 282.391 168.277,277.682 169.740,273.415 170.724 C 268.858 171.775,252.221 171.918,243.752 170.978 C 223.474 168.729,216.805 172.301,214.285 186.761 C 213.378 191.962,213.708 210.050,214.804 215.272 L 215.501 218.593 213.482 219.863 C 212.372 220.562,210.420 222.011,209.144 223.084 C 206.289 225.485,206.659 225.993,204.920 217.295 C 201.069 198.035,200.031 179.246,202.347 170.732 C 205.510 159.105,206.576 157.424,212.583 154.585 C 220.888 150.659,222.001 150.051,223.983 148.355 C 231.114 142.251,230.513 133.482,223.315 138.607 C 217.997 142.394,225.432 131.027,236.283 118.780 C 239.037 115.672,239.445 116.134,238.061 120.797 C 236.693 125.406,236.890 128.985,238.704 132.473 C 240.193 135.337,240.396 135.126,239.035 132.126 C 237.520 128.788,237.685 127.807,239.708 128.135 C 243.743 128.790,247.805 123.066,247.805 116.723 C 247.805 114.418,248.605 114.702,251.942 118.194 M107.961 164.325 C 109.082 165.093,111.171 166.314,112.602 167.037 C 114.610 168.051,115.132 168.539,114.887 169.175 C 106.437 191.175,117.390 209.326,139.878 210.591 L 144.878 210.872 144.883 214.338 C 144.886 216.245,145.025 218.628,145.191 219.634 L 145.494 221.463 141.326 221.463 C 111.606 221.463,93.325 193.284,104.663 164.948 C 105.625 162.544,105.420 162.583,107.961 164.325 M175.394 172.485 C 177.518 173.493,181.169 177.328,180.835 178.200 C 180.667 178.637,179.280 179.132,177.232 179.484 C 168.583 180.972,148.235 196.243,140.307 207.195 C 139.288 208.604,138.403 209.756,138.341 209.756 C 136.166 209.756,127.805 207.476,127.805 206.883 C 127.805 203.766,137.870 192.642,150.732 181.544 C 158.173 175.124,158.031 175.275,158.041 173.765 C 158.051 172.359,158.255 172.292,164.146 171.754 C 169.759 171.241,173.252 171.468,175.394 172.485 M234.864 171.742 C 241.034 172.283,241.951 172.625,241.951 174.384 C 241.951 175.176,243.366 176.664,247.073 179.768 C 249.890 182.127,252.195 184.162,252.195 184.292 C 252.195 184.421,251.552 185.571,250.766 186.848 C 249.980 188.126,248.856 190.290,248.267 191.658 C 246.982 194.647,247.364 194.615,243.987 192.018 C 231.459 182.382,228.523 180.756,220.769 179.156 C 218.363 178.660,218.168 178.074,219.774 176.165 C 221.963 173.564,225.509 171.632,228.780 171.257 C 228.915 171.242,231.652 171.460,234.864 171.742 M135.708 177.622 C 139.140 178.350,142.305 180.007,144.369 182.157 L 146.056 183.914 143.165 186.835 C 139.854 190.181,139.583 190.263,138.168 188.349 C 134.445 183.314,126.914 183.842,126.095 189.196 C 125.018 196.231,120.963 194.352,120.987 186.829 C 121.011 179.069,126.462 175.660,135.708 177.622 M272.589 177.635 C 277.211 178.770,279.025 181.399,279.024 186.961 C 279.022 194.370,274.968 196.140,273.905 189.196 C 273.453 186.242,272.026 184.878,269.387 184.878 C 262.224 184.878,256.888 192.591,255.072 205.569 L 254.494 209.704 252.979 209.438 C 250.573 209.017,245.641 207.688,245.287 207.366 C 245.109 207.205,245.261 205.537,245.624 203.659 C 249.350 184.414,259.662 174.462,272.589 177.635 M182.288 181.540 C 184.390 183.285,186.057 197.718,184.330 199.223 C 184.229 199.312,182.829 200.445,181.220 201.741 C 179.610 203.038,175.768 206.332,172.683 209.062 C 165.489 215.427,158.358 219.984,157.279 218.905 C 157.160 218.786,156.836 216.299,156.560 213.377 C 155.990 207.369,155.591 208.163,160.582 205.366 C 168.260 201.063,172.734 194.565,173.085 187.206 C 173.275 183.250,173.398 182.800,174.493 182.083 C 176.774 180.588,180.803 180.308,182.288 181.540 M224.512 181.788 C 225.250 182.160,225.858 182.733,225.864 183.061 C 226.125 198.754,237.993 209.617,255.947 210.597 L 260.918 210.869 261.977 213.478 C 262.559 214.913,263.066 217.241,263.103 218.653 L 263.171 221.220 257.317 221.359 C 244.163 221.674,238.078 219.093,225.122 207.704 C 221.366 204.402,217.585 201.197,216.720 200.582 C 212.926 197.885,214.163 181.596,218.219 180.833 C 219.792 180.537,222.996 181.023,224.512 181.788 M263.930 195.488 C 275.344 207.848,278.186 219.896,272.407 231.432 C 268.135 239.960,261.936 243.998,254.313 243.217 C 250.344 242.810,249.611 242.519,250.040 241.522 C 250.227 241.088,250.980 238.991,251.714 236.863 L 253.048 232.994 255.350 232.323 C 265.100 229.480,266.846 217.656,259.108 206.871 L 256.455 203.173 257.216 200.001 C 258.123 196.227,259.781 192.195,260.427 192.195 C 260.681 192.195,262.258 193.677,263.930 195.488 M153.562 200.122 C 154.633 204.441,155.268 209.420,156.127 220.236 C 156.425 223.988,156.767 227.217,156.888 227.413 C 157.433 228.294,150.401 231.707,148.041 231.707 C 147.388 231.707,146.548 226.013,146.099 218.537 C 145.945 215.988,145.578 211.524,145.281 208.616 L 144.742 203.330 148.335 199.714 C 152.726 195.293,152.356 195.264,153.562 200.122 M131.421 221.207 C 135.741 222.311,135.774 222.332,136.543 224.332 C 140.375 234.297,148.301 235.078,160.554 226.699 C 169.839 220.350,178.098 217.576,182.589 219.300 C 184.389 219.991,180.616 229.529,178.729 229.055 C 176.385 228.467,172.544 230.083,167.069 233.962 C 153.149 243.822,141.424 245.832,133.421 239.728 C 127.728 235.386,120.990 217.722,125.732 219.572 C 126.470 219.860,129.030 220.596,131.421 221.207 M226.398 219.936 C 233.075 222.233,242.109 227.912,241.631 229.512 C 240.793 232.316,239.362 235.686,238.631 236.578 L 237.805 237.587 235.366 235.864 C 225.257 228.722,223.600 228.074,218.986 229.453 C 207.011 233.033,204.520 245.599,214.182 253.688 C 217.393 256.376,217.273 256.734,213.239 256.506 C 201.060 255.818,197.355 235.556,207.631 225.833 C 214.810 219.041,219.507 217.565,226.398 219.936 M249.878 222.062 C 251.957 222.379,253.657 222.867,253.656 223.148 C 253.632 227.392,250.989 238.579,249.165 242.153 C 242.002 256.195,221.926 255.283,213.155 240.518 C 210.812 236.575,210.791 236.196,212.805 234.339 C 215.050 232.267,215.697 231.825,217.709 230.984 L 219.490 230.240 220.459 232.138 C 222.635 236.404,229.282 240.976,233.308 240.976 C 238.312 240.976,242.392 234.103,243.688 223.493 C 243.977 221.123,244.100 220.916,245.052 221.188 C 245.627 221.352,247.799 221.746,249.878 222.062 M196.659 231.864 C 200.008 239.292,196.709 252.470,190.743 255.488 C 188.119 256.815,183.415 257.050,183.415 255.854 C 183.415 255.451,183.586 255.122,183.796 255.122 C 184.597 255.122,188.953 250.381,190.295 248.049 C 191.915 245.233,192.133 242.306,190.970 239.008 C 190.261 236.998,190.286 236.778,191.632 233.215 C 192.401 231.179,193.177 229.098,193.355 228.592 C 193.827 227.252,195.186 228.599,196.659 231.864 " stroke="none" fill="#000000" fill-rule="evenodd"></path></g></svg>