<svg id="svg" xmlns="http://www.w3.org/2000/svg" xmlns:xlink="http://www.w3.org/1999/xlink" width="400" height="400" viewBox="0, 0, 400,400"><g id="svgg"><path id="path0" d="M180.370 3.027 C 26.992 18.754,-50.812 196.720,42.074 319.360 C 130.675 436.343,312.630 419.205,377.386 287.778 C 445.877 148.768,334.131 -12.740,180.370 3.027 M227.037 20.323 C 348.598 39.622,417.170 170.590,362.944 279.896 C 308.014 390.619,162.369 416.061,73.797 330.406 C -9.722 249.638,3.275 112.343,100.524 48.093 C 136.534 24.302,185.037 13.655,227.037 20.323 M185.185 41.840 C 168.941 46.308,149.526 55.927,144.523 61.985 C 140.350 67.039,124.444 111.515,124.444 118.130 C 124.444 120.768,128.400 126.172,152.843 156.922 C 172.471 181.616,186.170 200.382,192.248 210.903 C 194.300 214.455,195.582 214.583,198.176 211.498 L 200.427 208.821 202.621 211.507 C 205.578 215.127,206.140 214.744,212.198 204.983 C 217.500 196.439,234.726 173.159,247.402 157.407 C 251.336 152.519,259.485 142.200,265.511 134.477 L 276.466 120.435 276.061 117.069 C 274.584 104.808,259.258 64.482,254.329 59.888 C 244.126 50.379,209.209 37.707,203.021 41.269 C 200.272 42.850,200.237 42.852,198.089 41.436 C 195.337 39.621,192.985 39.695,185.185 41.840 M281.733 56.590 C 269.155 60.640,266.618 77.529,276.331 92.556 C 280.814 99.492,285.887 104.512,304.815 120.740 C 314.185 128.774,324.292 137.920,327.275 141.065 C 345.789 160.583,349.671 180.740,338.234 197.970 L 335.501 202.088 338.306 206.517 C 339.849 208.953,341.695 212.011,342.408 213.312 L 343.705 215.679 346.626 213.366 C 353.494 207.926,358.395 197.973,360.003 186.198 C 363.569 160.092,348.722 135.668,313.027 108.919 C 294.527 95.056,288.098 88.800,286.369 82.975 C 282.071 68.503,289.701 62.661,300.143 72.428 C 304.151 76.177,305.630 75.871,304.724 71.481 C 302.588 61.122,290.989 53.610,281.733 56.590 M107.407 57.561 C 101.473 60.558,96.296 67.700,96.296 72.890 C 96.296 76.318,96.832 76.247,100.847 72.289 C 108.453 64.791,115.556 66.458,115.556 75.743 C 115.556 82.907,113.820 86.922,108.289 92.553 L 103.330 97.600 107.153 102.296 C 112.134 108.414,111.605 108.475,118.105 101.041 C 129.335 88.195,133.147 74.593,128.398 64.313 C 125.206 57.402,114.523 53.966,107.407 57.561 M74.286 90.660 C 61.954 94.688,53.330 105.784,52.736 118.391 C 52.239 128.942,54.545 129.650,57.715 119.920 C 64.622 98.721,89.394 97.149,96.981 117.427 C 104.330 137.070,99.928 153.292,78.952 183.862 C 72.602 193.116,67.407 200.987,67.407 201.354 C 67.407 202.688,79.478 209.726,80.253 208.843 C 81.667 207.231,99.082 180.508,101.724 175.896 C 112.197 157.614,116.489 141.793,115.229 126.117 C 113.384 103.152,92.203 84.809,74.286 90.660 M311.852 90.280 C 309.422 91.081,302.986 94.471,301.126 95.929 C 299.456 97.239,300.099 97.950,307.778 103.288 L 311.481 105.862 315.926 104.328 C 327.311 100.399,337.962 106.661,342.245 119.801 C 345.452 129.640,347.755 128.995,347.280 118.391 C 346.486 100.678,327.063 85.267,311.852 90.280 M81.852 113.461 C 25.640 156.272,26.560 213.714,83.695 228.599 C 97.541 232.206,111.883 232.673,134.815 230.262 C 160.994 227.511,171.099 231.117,176.334 245.076 C 182.000 260.185,180.931 293.057,174.133 312.797 C 168.250 329.877,153.627 341.117,144.949 335.228 L 142.284 333.420 136.142 336.009 C 132.764 337.432,129.229 338.915,128.287 339.304 L 126.573 340.011 128.071 342.114 C 140.699 359.849,166.750 357.333,179.820 337.117 C 191.519 319.022,201.798 265.494,198.541 239.630 C 195.668 216.818,191.332 209.778,175.926 202.911 C 166.190 198.571,160.271 193.747,157.129 187.589 C 153.531 180.535,158.163 176.645,164.798 181.148 C 173.122 186.796,161.923 169.722,144.611 150.370 C 140.782 146.090,140.168 146.816,142.304 153.101 C 144.939 160.855,143.205 175.556,139.656 175.556 C 139.421 175.556,139.881 174.277,140.679 172.715 C 143.358 167.463,143.093 165.511,139.742 165.807 C 134.184 166.297,128.148 157.757,128.148 149.402 C 128.148 144.378,127.031 144.447,121.924 149.784 C 108.421 163.898,105.867 185.824,116.140 199.427 C 120.524 205.232,121.398 205.412,124.133 201.069 C 128.676 193.854,137.095 191.886,141.643 196.976 C 148.825 205.014,133.715 213.506,110.370 214.550 C 76.873 216.049,56.296 202.064,56.296 177.799 C 56.296 161.716,65.032 147.575,86.285 129.256 C 97.355 119.713,96.905 120.415,94.733 116.082 C 90.651 107.936,89.433 107.688,81.852 113.461 M288.262 110.909 C 285.196 116.686,283.856 128.790,285.125 139.259 C 287.230 156.633,292.381 167.884,311.066 195.926 C 329.024 222.876,333.113 233.530,332.390 251.481 C 331.758 267.139,326.678 276.306,314.076 284.527 L 312.246 285.720 313.873 290.453 C 314.768 293.056,315.720 296.455,315.989 298.007 C 316.549 301.240,316.646 301.234,322.963 297.557 C 346.013 284.139,355.237 251.675,344.421 222.036 C 341.473 213.959,340.017 211.546,323.936 188.072 C 301.476 155.289,297.856 145.148,300.960 123.704 L 301.550 119.630 296.562 115.556 C 288.878 109.279,289.070 109.387,288.262 110.909 M273.060 145.705 C 272.803 145.962,272.593 147.703,272.593 149.573 C 272.593 158.345,267.428 165.609,261.305 165.448 C 257.927 165.360,257.534 167.444,260.044 172.127 C 260.883 173.693,261.421 175.122,261.240 175.303 C 261.059 175.485,260.132 174.032,259.180 172.076 C 256.708 166.996,256.431 160.039,258.437 153.435 C 259.297 150.605,260.000 148.090,260.000 147.848 C 260.000 144.685,241.832 166.236,235.669 176.710 C 231.840 183.217,231.848 183.462,235.806 181.142 C 243.102 176.867,247.309 180.341,243.611 187.589 C 240.459 193.767,234.555 198.569,224.815 202.875 C 210.724 209.105,209.539 210.492,205.210 225.817 C 200.458 242.637,201.325 267.768,207.774 300.144 C 210.511 313.884,209.956 313.226,215.103 308.834 C 217.494 306.794,220.446 304.609,221.664 303.980 C 223.675 302.940,223.835 302.588,223.420 300.121 C 218.433 270.505,220.659 246.759,229.325 237.120 C 236.024 229.669,245.443 227.697,263.651 229.930 C 288.784 233.014,311.956 231.704,324.214 226.507 L 326.576 225.505 323.379 218.779 C 319.559 210.740,319.784 210.911,314.803 212.225 C 285.930 219.842,245.474 207.441,260.500 195.580 C 265.760 191.428,273.533 194.899,278.469 203.603 C 279.385 205.218,281.761 203.493,285.163 198.743 C 292.764 188.127,293.016 173.305,285.836 159.082 C 282.691 152.851,274.495 144.270,273.060 145.705 M56.069 220.163 C 49.490 236.038,49.721 259.771,56.602 275.034 C 64.913 293.471,84.748 305.438,109.815 307.140 L 117.037 307.630 117.031 302.889 C 117.027 300.282,116.817 296.422,116.563 294.312 L 116.102 290.476 109.718 290.459 C 78.718 290.375,61.199 266.142,69.236 234.461 C 70.267 230.397,71.111 226.819,71.111 226.511 C 71.111 226.203,69.361 225.067,67.222 223.987 C 65.083 222.907,61.925 221.058,60.204 219.878 L 57.076 217.733 56.069 220.163 M143.704 231.621 C 137.926 232.056,137.120 232.433,136.460 235.009 C 136.001 236.796,133.756 239.203,127.659 244.444 C 105.875 263.171,88.011 283.231,91.275 285.302 C 92.801 286.271,99.324 288.024,103.361 288.551 L 107.093 289.038 110.921 283.890 C 117.649 274.842,128.127 265.688,148.292 251.240 C 156.080 245.660,164.945 242.222,171.547 242.222 C 172.498 242.222,171.562 239.986,169.631 237.643 C 164.800 231.782,159.110 230.460,143.704 231.621 M238.542 232.029 C 234.371 233.443,226.308 242.222,229.180 242.222 C 237.987 242.222,246.220 246.474,265.327 260.887 C 272.319 266.162,271.739 266.207,274.566 260.181 C 275.856 257.433,277.618 254.135,278.482 252.851 L 280.053 250.516 273.175 244.779 C 264.791 237.788,263.704 236.600,263.704 234.442 C 263.704 233.512,263.216 232.564,262.621 232.335 C 260.210 231.411,241.084 231.167,238.542 232.029 M297.778 240.289 C 283.585 243.445,272.676 259.552,269.248 282.413 L 268.751 285.724 273.450 286.994 C 276.034 287.692,279.301 288.321,280.709 288.391 L 283.270 288.519 284.215 282.020 C 286.732 264.709,294.187 252.814,303.385 251.435 C 309.723 250.485,311.903 252.300,312.970 259.421 C 314.465 269.390,320.401 265.378,320.334 254.444 C 320.259 242.235,312.089 237.107,297.778 240.289 M89.630 240.485 C 82.550 243.259,80.609 246.221,80.517 254.392 C 80.401 264.677,86.379 269.441,87.769 260.171 C 89.329 249.768,97.368 247.966,105.871 256.113 L 109.201 259.304 113.891 254.613 L 118.582 249.923 115.822 247.080 C 110.513 241.614,96.046 237.971,89.630 240.485 M162.951 246.567 L 160.370 247.948 159.897 254.530 C 159.037 266.491,151.684 276.781,139.395 283.219 L 133.975 286.059 134.490 294.696 C 134.774 299.447,135.117 303.460,135.253 303.614 C 136.671 305.225,149.731 296.474,161.111 286.286 C 164.370 283.368,169.037 279.380,171.481 277.423 C 177.713 272.435,178.072 271.560,177.546 262.626 C 176.621 246.882,171.955 241.748,162.951 246.567 M226.557 246.406 C 224.398 248.839,222.828 255.002,222.421 262.634 C 221.945 271.571,222.308 272.452,228.519 277.423 C 230.963 279.380,235.630 283.368,238.889 286.286 C 252.745 298.691,258.660 302.300,269.767 305.131 C 276.768 306.915,286.602 307.771,292.142 307.079 L 296.296 306.560 296.274 302.724 C 296.260 300.499,295.561 297.219,294.607 294.912 L 292.963 290.936 287.181 290.697 C 261.143 289.622,240.000 272.865,240.000 253.303 C 240.000 248.685,239.850 248.220,237.963 246.976 C 234.947 244.989,228.117 244.647,226.557 246.406 M290.362 265.446 C 289.477 267.423,288.119 271.326,287.345 274.119 L 285.938 279.197 289.755 284.228 C 302.208 300.643,299.051 320.466,283.477 323.651 C 281.342 324.088,281.021 324.606,278.683 331.383 C 275.683 340.083,275.353 339.630,284.691 339.630 C 296.753 339.630,303.579 335.125,309.926 322.979 C 319.391 304.863,315.174 286.479,297.168 267.368 L 291.971 261.852 290.362 265.446 M122.047 273.870 L 116.316 279.643 116.970 283.710 C 117.330 285.947,117.845 291.444,118.114 295.926 C 118.694 305.585,119.919 318.183,120.516 320.634 C 121.050 322.828,124.820 322.442,130.379 319.625 C 135.066 317.250,134.888 317.827,134.052 307.693 C 132.155 284.718,130.840 275.515,128.722 270.386 L 127.778 268.098 122.047 273.870 M164.444 303.437 C 157.480 304.745,153.283 306.794,139.630 315.551 C 120.902 327.562,111.320 326.573,104.314 311.908 C 102.378 307.856,102.143 307.675,97.997 307.053 C 96.216 306.786,92.885 305.923,90.596 305.136 C 88.308 304.348,86.217 303.704,85.952 303.704 C 85.004 303.704,86.567 313.774,88.136 317.778 C 98.435 344.066,121.410 346.980,150.807 325.728 C 158.831 319.926,161.944 318.519,166.747 318.519 C 170.210 318.519,170.396 318.410,171.516 315.741 C 173.317 311.447,175.114 304.497,174.565 303.948 C 173.945 303.328,166.914 302.973,164.444 303.437 M225.185 304.184 C 221.043 305.614,215.293 309.967,210.012 315.671 C 195.350 331.508,205.919 364.861,224.150 360.285 C 226.003 359.820,225.928 359.691,221.162 355.154 C 208.335 342.942,210.551 327.589,226.193 320.306 C 233.834 316.748,239.511 318.181,251.040 326.577 C 254.464 329.071,257.520 331.111,257.832 331.111 C 259.260 331.111,264.712 318.395,263.651 317.540 C 249.786 306.357,234.382 301.009,225.185 304.184 M267.111 307.659 C 266.950 308.539,266.443 311.728,265.984 314.746 C 263.336 332.162,254.595 340.434,244.408 335.166 C 240.417 333.103,233.333 326.608,231.804 323.611 C 229.733 319.551,224.983 320.912,218.970 327.287 L 216.829 329.558 220.081 335.243 C 227.690 348.545,241.528 355.823,254.624 353.410 C 269.190 350.726,277.796 339.200,280.674 318.519 C 281.157 315.056,281.653 311.489,281.777 310.593 C 282.030 308.762,280.976 308.152,277.532 308.139 C 276.241 308.135,273.434 307.664,271.294 307.095 C 267.502 306.085,267.395 306.100,267.111 307.659 M190.368 318.157 C 189.905 319.374,188.683 322.481,187.652 325.060 C 186.620 327.639,185.954 330.473,186.170 331.356 C 186.387 332.240,186.930 334.412,187.376 336.183 C 189.140 343.180,185.508 350.574,177.037 357.231 C 172.843 360.527,178.821 361.796,185.926 359.118 C 196.984 354.949,201.213 328.891,192.633 317.786 L 191.209 315.943 190.368 318.157 " stroke="none" fill="#000000" fill-rule="evenodd"></path></g></svg>