<?xml version="1.0"?>
<svg width="256" height="256" xmlns="http://www.w3.org/2000/svg" xmlns:svg="http://www.w3.org/2000/svg" version="1.1">
 <title>C-BW-1</title>
 <g class="layer">
  <title>Layer 1</title>
  <g id="svgg">
   <path d="m120.421356,0.363074c-47.776179,4.043547 -85.581731,28.501192 -106.162885,68.681679c-43.45909,84.848051 17.633732,185.122929 112.834395,185.200106c95.084408,0.077177 156.283715,-100.371596 112.834395,-185.200106c-22.424638,-43.779527 -72.651955,-72.646094 -119.505904,-68.681679m5.031231,24.724349c1.197727,0.905622 2.326089,0.911483 3.069539,0.014655c2.810651,-3.386068 30.341744,7.336806 34.756527,13.536454c2.732497,3.837413 12.422745,31.589293 12.422745,35.57813c0,2.329998 0.43376,1.706711 -13.075339,18.795313c-17.744126,22.443199 -24.460575,31.514069 -30.085784,40.624993c-1.667633,2.701233 -2.584978,2.830191 -4.283872,0.60277l-1.26709,-1.661772l-1.036532,1.542584c-1.782912,2.652388 -2.717842,2.320228 -5.309658,-1.887444c-4.433344,-7.198081 -12.646464,-18.40649 -22.629794,-30.881989c-18.561823,-23.194464 -20.25388,-25.590892 -19.768342,-28.001976c1.132271,-5.616416 8.759227,-27.471498 11.419429,-32.721564c3.658633,-7.219572 31.058816,-19.1177 35.788174,-15.540153m-48.172817,10.942685c8.004053,4.69028 6.016962,17.652293 -4.425529,28.864613l-2.883922,3.097871l-0.782528,-1.084401c-0.429854,-0.595932 -1.62367,-2.056454 -2.652388,-3.245387c-2.28799,-2.643594 -2.304596,-2.317298 0.229581,-4.547646c8.463215,-7.450129 7.611324,-20.616324 -1.047279,-16.191771c-0.973031,0.497261 -2.470676,1.676427 -3.328428,2.621124c-2.11214,2.325113 -2.670949,2.219604 -2.371029,-0.44646c0.905622,-8.033361 10.461053,-13.052869 17.26152,-9.06794m110.14,-0.419107c3.878444,2.410107 6.866897,6.74771 6.866897,9.9677c0,2.171732 -0.323366,2.122887 -2.831167,-0.432784c-5.702387,-5.809851 -10.881137,-3.590247 -9.608185,4.117795c0.976937,5.918292 3.352851,8.576538 16.228896,18.156395c15.194317,11.305127 22.554569,19.187063 28.150471,30.149285c6.490777,12.716803 4.196925,30.452137 -4.924746,38.060532l-1.995885,1.66568l-0.952514,-1.698894c-0.524616,-0.93493 -1.748719,-2.958169 -2.72175,-4.495869l-1.76728,-2.796974l1.175257,-1.397021c4.098255,-4.870036 5.919268,-13.383076 4.247726,-19.856266c-2.517569,-9.754728 -7.27135,-15.662273 -24.524076,-30.480469c-17.862336,-15.340859 -20.881075,-19.037594 -22.403145,-27.43242c-1.863998,-10.276412 7.195149,-18.412352 15.0595,-13.526684m-131.215486,21.501431c6.393083,2.005655 13.906713,10.686725 15.420968,17.817397c3.146717,14.816243 -1.357943,27.767512 -18.257018,52.488929l-3.812013,5.576361l-2.810651,-1.364784c-1.546493,-0.751265 -3.428075,-1.878653 -4.182272,-2.505845l-1.370645,-1.140088l7.077917,-10.218772c12.89363,-18.615554 16.276765,-28.977937 13.259004,-40.621085c-4.05527,-15.650547 -21.164386,-16.806266 -26.172171,-1.769236c-2.148286,6.449746 -3.922407,5.930991 -3.446637,-1.008201c0.836259,-12.195119 12.962992,-20.80878 24.293518,-17.254682m152.738408,0.258889c8.357707,3.074425 15.152309,14.792797 12.5136,21.581538l-0.555877,1.430238l-0.90953,-1.116641c-0.500193,-0.613516 -1.35599,-2.618195 -1.902099,-4.452884c-2.336836,-7.844814 -11.227949,-12.218565 -17.986406,-8.84715l-1.549425,0.772758l-3.833504,-2.888807l-3.833504,-2.888807l2.23328,-1.587524c4.845613,-3.44566 10.094702,-4.109978 15.823465,-2.002723m-152.317347,12.169717c4.702003,5.163118 4.616032,5.514816 -2.973798,12.077885c-19.622779,16.969414 -24.494768,32.297574 -14.450869,45.465722c8.153525,10.690634 39.025746,13.030399 49.312904,3.736789c2.251842,-2.034963 2.548832,-4.139286 0.811836,-5.765888c-3.427099,-3.211197 -8.361613,-1.987091 -11.310012,2.805765c-1.639302,2.663134 -2.180526,2.643594 -4.559369,-0.169986c-7.074009,-8.364545 -5.621301,-23.898836 3.070516,-32.835866c3.397791,-3.495485 3.666447,-3.482785 4.062108,0.181709c0.701443,6.497615 4.485122,10.951476 8.368451,9.84949c1.132271,-0.321413 1.145949,1.781935 0.025399,3.931198c-0.556856,1.067793 -0.919298,2.033007 -0.805975,2.146333c0.113326,0.113326 0.679949,-0.772758 1.259273,-1.969506c1.582639,-3.267857 1.770212,-7.095502 0.547086,-11.122441c-1.749695,-5.761003 -1.457593,-5.75905 3.559962,0.024423c6.807305,7.84579 13.664432,17.541899 12.927823,18.278512c-0.128955,0.128955 -1.040438,-0.311643 -2.025193,-0.979869c-4.826073,-3.275674 -7.713903,-0.003909 -4.465584,5.058586c2.481423,3.867697 5.543147,6.206488 11.714464,8.9468c8.886228,3.947806 9.679504,4.924746 12.626924,15.541132c4.54667,16.381297 -0.744427,53.94066 -9.773289,69.379213c-8.016753,13.708395 -25.224542,16.315843 -33.514839,5.080077c-1.385298,-1.877674 -1.390183,-2.137539 -0.046893,-2.549809c0.59007,-0.180733 2.698304,-1.066817 4.684418,-1.967553l3.612717,-1.639302l2.307528,1.227035c6.088278,3.236596 14.589594,-3.354804 18.508093,-14.35122c4.417715,-12.394413 5.003876,-36.171132 1.10101,-44.694916c-3.782705,-8.262942 -10.10447,-10.347727 -26.151657,-8.623434c-32.436299,3.486691 -53.343749,-4.386451 -59.324565,-22.338667c-5.511884,-16.545424 3.556054,-36.096885 24.167495,-52.10597c5.806919,-4.510524 5.216849,-4.281919 6.734034,-2.616239m131.972612,2.993339c2.904436,2.382752 3.704549,3.29912 3.527722,4.03573c-3.189703,13.235557 -0.476747,21.243519 14.6062,43.128886c12.389528,17.97566 14.708779,23.000053 15.657388,33.92222c1.39116,16.019829 -5.231504,30.254796 -16.977229,36.488637c-3.512093,1.863021 -3.976138,1.904052 -3.976138,0.347789c0,-0.659432 -0.54513,-2.751058 -1.211403,-4.646317l-1.211403,-3.44566l1.007224,-0.715119c17.143309,-12.164832 16.723225,-29.491806 -1.371622,-56.568622c-10.837174,-16.217173 -14.48506,-23.435768 -16.32659,-32.308321c-1.511323,-7.287958 -1.122503,-17.375822 0.841144,-21.816004c0.965214,-2.182479 0.796205,-2.231327 5.434707,1.576777m-10.760973,22.525261c8.701587,9.104086 9.979424,23.855852 2.82335,32.587724c-2.052548,2.504869 -3.028508,2.586931 -4.231118,0.352674c-2.550785,-4.73522 -7.650402,-6.221141 -11.175195,-3.255157c-7.921991,6.665648 14.05814,14.246688 31.653771,10.917283c2.359306,-0.44646 4.874921,-0.920274 5.59004,-1.05314c1.304212,-0.243257 6.079487,7.771543 5.340921,8.965361c-0.25498,0.413246 -4.855384,1.842504 -9.023977,2.803812c-4.451908,1.026762 -20.705227,1.166464 -28.978916,0.248142c-19.810349,-2.197134 -26.325551,1.292489 -28.787434,15.419013c-0.886084,5.081056 -0.563694,22.75191 0.507031,27.853481l0.680926,3.244411l-1.972438,1.240711c-1.084401,0.682879 -2.991383,2.098464 -4.237959,3.146717c-2.789157,2.34563 -2.427692,2.841914 -4.126586,-5.655494c-3.762188,-18.815827 -4.776251,-37.171516 -2.513663,-45.489168c3.090056,-11.35886 4.131471,-13.001091 9.999938,-15.774619c8.11347,-3.83546 9.200804,-4.429438 11.137094,-6.086325c6.966544,-5.963231 6.379407,-14.529999 -0.652594,-9.523194c-5.195356,3.699664 2.068177,-7.40519 12.668934,-19.369751c2.690487,-3.036323 3.089077,-2.584978 1.736996,1.970485c-1.336452,4.502707 -1.143994,7.999168 0.628172,11.406729c1.454661,2.797951 1.652978,2.591816 0.323366,-0.338998c-1.480062,-3.261019 -1.318867,-4.219395 0.657479,-3.898961c3.941945,0.639895 7.910268,-4.952098 7.910268,-11.148817c0,-2.251842 0.781549,-1.974391 4.041592,1.437076m-140.660523,45.067131c1.095148,0.750288 3.135972,1.94313 4.53397,2.649456c1.961692,0.990616 2.471652,1.46736 2.232304,2.088694c-8.255127,21.492638 2.445277,39.22504 24.414659,40.460869l4.884691,0.274521l0.004885,3.386068c0.002932,1.863021 0.138725,4.191063 0.300897,5.173865l0.296011,1.786821l-4.071879,0c-29.034599,0 -46.894004,-27.529138 -35.817482,-55.211656c0.939815,-2.348559 0.739542,-2.310457 3.221941,-0.608631m65.877867,7.971816c2.075017,0.984754 5.641818,4.731311 5.315519,5.583202c-0.164124,0.426922 -1.519138,0.910507 -3.519908,1.254387c-8.449536,1.453684 -28.328274,16.372506 -36.073438,27.071931c-0.995501,1.376507 -1.860089,2.501939 -1.920661,2.501939c-2.12484,0 -10.29302,-2.227419 -10.29302,-2.806742c0,-3.045117 9.832881,-13.912575 22.39826,-24.754633c7.269397,-6.271942 7.130671,-6.124424 7.140442,-7.599601c0.00977,-1.373575 0.209064,-1.439029 5.964208,-1.964624c5.483552,-0.50117 8.895999,-0.279403 10.988601,0.714142m58.098507,-0.725865c6.027709,0.528525 6.92356,0.862638 6.92356,2.58107c0,0.773735 1.382368,2.227419 5.003876,5.259836c2.752035,2.304596 5.003876,4.292666 5.003876,4.419668c0,0.126025 -0.628172,1.249505 -1.396045,2.497054c-0.767873,1.248526 -1.865951,3.362621 -2.441368,4.699071c-1.255367,2.920068 -0.882175,2.888807 -4.181296,0.351698c-12.23908,-9.413777 -15.10737,-11.002277 -22.682548,-12.565378c-2.350512,-0.484561 -2.541015,-1.057046 -0.972052,-2.922021c2.138518,-2.541015 5.60274,-4.428462 8.798305,-4.794812c0.131887,-0.014655 2.805765,0.198317 5.943691,0.473815m-96.869273,5.744397c3.352851,0.71121 6.444861,2.329998 8.46126,4.430415l1.648095,1.716479l-2.824329,2.853637c-3.234643,3.268836 -3.499393,3.348943 -4.881759,1.479083c-3.63714,-4.918884 -10.994462,-4.40306 -11.794573,0.827465c-1.052161,6.872759 -5.013646,5.037093 -4.9902,-2.312413c0.023446,-7.58104 5.348736,-10.911421 14.381507,-8.994669m133.724263,0.0127c4.515409,1.108824 6.287574,3.677194 6.286598,9.110924c-0.001953,7.238133 -3.962461,8.967314 -5.000947,2.183456c-0.441577,-2.885875 -1.835666,-4.218418 -4.413806,-4.218418c-6.997808,0 -12.210748,7.535124 -13.984869,20.213825l-0.564671,4.039639l-1.480062,-0.259865c-2.350512,-0.41129 -7.16877,-1.709641 -7.514607,-2.024216c-0.173895,-0.157286 -0.025399,-1.786821 0.329228,-3.62151c3.640072,-18.801175 13.714257,-28.523662 26.343136,-25.423836m-88.218487,3.814943c2.053524,1.704756 3.682079,15.804904 1.994908,17.275196c-0.09867,0.086947 -1.466384,1.193819 -3.038279,2.459929c-1.572871,1.26709 -5.326266,4.485122 -8.340119,7.152165c-7.028092,6.218212 -13.994637,10.670117 -15.048754,9.616003c-0.116255,-0.116255 -0.432784,-2.5459 -0.702419,-5.400514c-0.556856,-5.869443 -0.946653,-5.093756 3.929245,-7.82625c7.500931,-4.203766 11.871753,-10.551909 12.214657,-17.741196c0.185618,-3.864768 0.305782,-4.304389 1.375528,-5.004853c2.228395,-1.460522 6.164478,-1.734066 7.615233,-0.530478m41.250233,0.242281c0.72098,0.363421 1.314959,0.923206 1.32082,1.243643c0.25498,15.331089 11.849283,25.943567 29.389229,26.900966l4.85636,0.265727l1.034577,2.548832c0.568579,1.401906 1.063885,3.676218 1.100033,5.055654l0.066433,2.507801l-5.718995,0.135796c-12.850643,0.307735 -18.795313,-2.213743 -31.452521,-13.340089c-3.66938,-3.225849 -7.363182,-6.356937 -8.208235,-6.957753c-3.706502,-2.634803 -2.498031,-18.548147 1.464431,-19.293551c1.536723,-0.289173 4.666834,0.185618 6.147873,0.932977m38.508945,13.384053c11.150772,12.074955 13.92723,23.845105 8.281503,35.115062c-4.173479,8.331328 -10.229519,12.276205 -17.676719,11.513214c-3.877467,-0.397614 -4.593563,-0.681902 -4.174458,-1.65591c0.182688,-0.42399 0.918321,-2.472631 1.635393,-4.551555l1.303236,-3.779773l2.248912,-0.655526c9.525147,-2.777434 11.230879,-14.32875 3.671333,-24.865029l-2.591816,-3.612717l0.74345,-3.098847c0.886084,-3.686964 2.505845,-7.625979 3.136949,-7.625979c0.248142,0 1.788774,1.447822 3.422214,3.217058m-107.822701,4.527132c1.0463,4.219395 1.666657,9.083569 2.505845,19.650133c0.291126,3.665471 0.625239,6.820005 0.74345,7.011484c0.532431,0.860682 -6.337396,4.194972 -8.642971,4.194972c-0.637942,0 -1.458569,-5.562685 -1.897214,-12.866275c-0.150448,-2.490216 -0.508984,-6.851266 -0.799137,-9.692203l-0.526569,-5.164095l3.510138,-3.532607c4.289734,-4.319044 3.928268,-4.347373 5.106455,0.398591m-21.630386,20.598739c4.220371,1.07854 4.252611,1.099054 5.003876,3.052931c3.743627,9.735187 11.486838,10.498178 23.457262,2.312413c9.07087,-6.20258 17.139403,-8.912607 21.526831,-7.228365c1.758489,0.675064 -1.927499,9.9931 -3.770982,9.530032c-2.289943,-0.574441 -6.042361,1.004292 -11.391097,4.793836c-13.598978,9.632608 -25.053577,11.596256 -32.872012,5.633024c-5.561709,-4.241865 -12.144318,-21.498499 -7.511677,-19.691165c0.72098,0.281359 3.221941,1.000384 5.5578,1.597294m92.786647,-1.241688c6.523017,2.244027 15.348674,7.792057 14.881697,9.355158c-0.818674,2.739335 -2.216672,6.031615 -2.930814,6.903043l-0.806951,0.985731l-2.382752,-1.683265c-9.875868,-6.977291 -11.494653,-7.610348 -16.002245,-6.263151c-11.698835,3.497438 -14.132385,15.773643 -4.69321,23.676093c3.136949,2.626009 3.019715,2.975754 -0.921253,2.753011c-11.898129,-0.672132 -15.517683,-20.466852 -5.47867,-29.965623c7.01344,-6.635363 11.602117,-8.077324 18.334198,-5.761003m22.938507,2.07697c2.031054,0.30969 3.691849,0.786434 3.690873,1.060955c-0.023446,4.146126 -2.605495,15.075132 -4.387428,18.566709c-6.997808,13.718166 -26.610816,12.827197 -35.17954,-1.597294c-2.288967,-3.852068 -2.309481,-4.222327 -0.341928,-6.0365c2.193226,-2.024216 2.825306,-2.456023 4.790903,-3.277627l1.739928,-0.726842l0.946653,1.854228c2.125816,4.167617 8.619525,8.634178 12.552679,8.634178c4.888597,0 8.874505,-6.714496 10.140619,-17.079808c0.282335,-2.315343 0.402499,-2.517569 1.332544,-2.251842c0.561738,0.160218 2.683649,0.54513 4.714703,0.853844m-51.991668,9.575948c3.271766,7.256697 0.048846,20.130786 -5.779566,23.079185c-2.563485,1.296398 -7.159003,1.525976 -7.159003,0.357559c0,-0.393705 0.167057,-0.715119 0.372215,-0.715119c0.782528,0 5.038069,-4.631664 6.34912,-6.909884c1.582639,-2.751058 1.795612,-5.610554 0.659432,-8.832498c-0.692649,-1.963645 -0.668226,-2.178573 0.646733,-5.659403c0.751265,-1.989047 1.50937,-4.022054 1.683265,-4.516385c0.461115,-1.309097 1.788774,0.006838 3.227802,3.196541" fill="#000000" fill-rule="evenodd" id="path0"/>
  </g>
 </g>
</svg>