<?xml version="1.0" standalone="no"?>
<!DOCTYPE svg PUBLIC "-//W3C//DTD SVG 20010904//EN"
 "http://www.w3.org/TR/2001/REC-SVG-20010904/DTD/svg10.dtd">
<svg version="1.0" xmlns="http://www.w3.org/2000/svg"
 width="512.000000pt" height="512.000000pt" viewBox="0 0 512.000000 512.000000"
 preserveAspectRatio="xMidYMid meet">

<g transform="translate(0.000000,512.000000) scale(0.100000,-0.100000)"
fill="#494e31" stroke="none">
<path d="M1455 4495 c-600 -344 -1096 -633 -1102 -642 -10 -13 -13 -288 -13
-1293 0 -1204 1 -1278 18 -1292 42 -38 2179 -1263 2202 -1263 23 0 2160 1225
2203 1263 16 14 17 88 17 1292 0 1006 -3 1280 -12 1292 -16 21 -2164 1254
-2198 1263 -20 4 -228 -111 -1115 -620z m1783 -902 c47 -5 53 -8 50 -27 -2
-14 -22 -31 -58 -50 -288 -150 -453 -336 -538 -606 -37 -117 -64 -243 -56
-264 5 -13 17 -15 63 -10 175 20 367 97 510 204 118 90 200 189 271 330 47 95
68 120 96 120 l24 0 0 -730 0 -730 -32 0 c-31 0 -35 4 -60 68 -70 171 -243
361 -419 461 -70 39 -237 96 -341 116 -80 15 -103 13 -112 -10 -12 -31 57
-292 105 -394 80 -174 257 -345 459 -446 71 -35 90 -53 90 -82 l0 -23 -724 2
c-398 2 -728 7 -732 11 -15 15 13 42 87 83 144 81 184 110 270 194 131 128
211 264 263 444 28 95 45 236 29 236 -43 0 -198 -36 -283 -66 -172 -59 -244
-104 -374 -232 -73 -72 -194 -245 -222 -318 -14 -38 -21 -44 -46 -44 l-28 0 2
720 c2 499 6 722 14 730 20 20 41 -1 94 -98 168 -309 377 -463 722 -533 55
-12 106 -18 115 -15 21 8 13 85 -22 221 -69 267 -212 451 -478 618 -69 42
-130 84 -137 92 -14 17 -6 22 50 28 62 7 1293 7 1348 0z"/>
</g>
</svg>
