<?xml version="1.0" standalone="no"?>
<!DOCTYPE svg PUBLIC "-//W3C//DTD SVG 20010904//EN"
 "http://www.w3.org/TR/2001/REC-SVG-20010904/DTD/svg10.dtd">
<svg version="1.0" xmlns="http://www.w3.org/2000/svg"
 width="208.000000pt" height="208.000000pt" viewBox="0 0 208.000000 208.000000"
 preserveAspectRatio="xMidYMid meet">

<g transform="translate(0.000000,208.000000) scale(0.100000,-0.100000)"
fill="#000000" stroke="none">
<path d="M396 2071 c-47 -4 -81 -11 -83 -18 -2 -6 38 -37 89 -69 217 -134 320
-224 405 -357 52 -82 110 -209 122 -269 5 -24 16 -79 26 -122 20 -97 15 -126
-23 -126 -43 0 -230 46 -306 74 -212 80 -406 257 -511 466 -39 79 -64 110 -85
110 -29 0 -31 -64 -28 -785 l3 -660 24 0 c20 0 31 14 66 82 23 44 53 96 65
115 99 142 239 272 359 332 121 61 342 126 427 126 29 0 30 -18 9 -135 -36
-206 -128 -383 -276 -536 -71 -74 -142 -125 -264 -191 -111 -61 -133 -90 -74
-102 17 -3 346 -6 730 -6 692 0 699 0 699 20 0 30 -28 53 -127 104 -105 54
-233 154 -300 234 -26 31 -50 59 -53 62 -34 32 -82 134 -119 250 -50 161 -50
162 -57 228 -6 53 -4 62 11 68 39 15 275 -45 394 -102 197 -92 366 -264 462
-468 37 -79 42 -86 69 -86 l30 0 0 730 c0 714 0 730 -19 730 -28 0 -43 -18
-99 -123 -111 -205 -237 -329 -437 -430 -118 -59 -355 -120 -401 -103 -28 11
-12 114 45 294 28 88 47 125 110 222 100 152 243 276 429 369 81 41 82 63 2
72 -68 8 -1206 8 -1314 0z"/>
</g>
</svg>
