<?xml version="1.0"?>
<svg width="256" height="256" xmlns="http://www.w3.org/2000/svg" xmlns:svg="http://www.w3.org/2000/svg" version="1.1">
 <title>C-BW-2</title>
 <g class="layer">
  <title>Layer 1</title>
  <rect fill="#000000" height="256" id="svg_1" stroke="#ffffff" stroke-width="0" width="256" x="0" y="0"/>
  <ellipse cx="127" cy="126.000001" fill="#ffffff" id="svg_2" rx="116" ry="115.000001" stroke="#ffffff" stroke-width="0"/>
  <g id="svgg">
   <path d="m120.421401,0.363086c-47.776228,4.043546 -85.581773,28.501189 -106.162942,68.681673c-43.459073,84.848043 17.633779,185.122914 112.834432,185.200092c95.084379,0.077178 156.283726,-100.371588 112.834432,-185.200092c-22.424734,-43.779523 -72.652013,-72.646087 -119.505922,-68.681673m5.031255,24.724347c1.197679,0.905622 2.326071,0.911483 3.069508,0.014654c2.810605,-3.386067 30.341724,7.336804 34.756549,13.536453c2.732493,3.837413 12.422687,31.589291 12.422687,35.578128c0,2.329997 0.433731,1.706711 -13.075371,18.79531c-17.74409,22.443197 -24.460539,31.514066 -30.085684,40.62499c-1.667664,2.701234 -2.584974,2.830189 -4.283883,0.602771l-1.267086,-1.661772l-1.036566,1.542585c-1.782864,2.652387 -2.717824,2.320228 -5.309715,-1.887444c-4.433309,-7.198079 -12.64641,-18.406489 -22.629734,-30.881987c-18.561822,-23.194462 -20.253933,-25.590891 -19.768326,-28.001974c1.132208,-5.616417 8.75917,-27.471497 11.419394,-32.721562c3.658628,-7.219572 31.058806,-19.1177 35.788225,-15.540153m-48.17287,10.942683c8.004046,4.690279 6.017017,17.652293 -4.425558,28.86461l-2.883828,3.09787l-0.782552,-1.084401c-0.429915,-0.595932 -1.623659,-2.056455 -2.652473,-3.245388c-2.28791,-2.643594 -2.304486,-2.317297 0.229685,-4.547646c8.463179,-7.450129 7.61122,-20.616323 -1.047299,-16.191771c-0.973003,0.497261 -2.470728,1.676426 -3.328411,2.621125c-2.112128,2.325112 -2.670957,2.219603 -2.37103,-0.446461c0.905623,-8.033361 10.46106,-13.052869 17.261464,-9.067939m110.139982,-0.419106c3.878415,2.410106 6.866949,6.747711 6.866949,9.967699c0,2.171733 -0.32342,2.122886 -2.831236,-0.432784c-5.702303,-5.80985 -10.881076,-3.590247 -9.608147,4.117794c0.976938,5.91829 3.352858,8.576539 16.228953,18.156393c15.194296,11.305127 22.554484,19.187063 28.150411,30.149284c6.490818,12.716802 4.196946,30.452135 -4.92476,38.060528l-1.995854,1.665679l-0.952491,-1.698895c-0.524603,-0.93493 -1.748757,-2.958168 -2.72176,-4.495869l-1.767361,-2.796974l1.175259,-1.397021c4.098322,-4.870036 5.919348,-13.383074 4.247748,-19.856265c-2.517595,-9.754726 -7.271343,-15.66227 -24.524102,-30.480466c-17.862272,-15.340858 -20.880977,-19.037591 -22.40303,-27.432419c-1.864077,-10.276411 7.195139,-18.412351 15.059418,-13.526684m-131.215463,21.501429c6.393148,2.005654 13.906698,10.686725 15.421,17.817395c3.146666,14.816242 -1.357958,27.767509 -18.257006,52.488925l-3.81199,5.576362l-2.810724,-1.364782c-1.546501,-0.751265 -3.428108,-1.878652 -4.182277,-2.505846l-1.370599,-1.140087l7.077911,-10.218772c12.893626,-18.615554 16.276775,-28.977935 13.259024,-40.621082c-4.055271,-15.650547 -21.164446,-16.806265 -26.172207,-1.769235c-2.148262,6.449745 -3.92242,5.930991 -3.446592,-1.0082c0.836217,-12.195117 12.962913,-20.80878 24.293462,-17.254679m152.73839,0.258889c8.357757,3.074424 15.152318,14.792795 12.51356,21.581538l-0.555848,1.430237l-0.909559,-1.11664c-0.500156,-0.613517 -1.355931,-2.618194 -1.902,-4.452883c-2.336923,-7.844812 -11.22799,-12.218564 -17.986416,-8.847151l-1.549482,0.772758l-3.833456,-2.888806l-3.833575,-2.888806l2.233291,-1.587524c4.845694,-3.44566 10.094708,-4.109978 15.823486,-2.002723m-152.317301,12.169717c4.701991,5.163117 4.616008,5.514815 -2.973865,12.077885c-19.622716,16.969413 -24.494765,32.297571 -14.450859,45.465718c8.153592,10.690633 39.025764,13.030399 49.31295,3.736788c2.251775,-2.034962 2.54884,-4.139286 0.81177,-5.765888c-3.427035,-3.211195 -8.361573,-1.987092 -11.309918,2.805766c-1.639281,2.663133 -2.18058,2.643594 -4.559362,-0.169987c-7.074095,-8.364543 -5.621329,-23.898835 3.070462,-32.835863c3.397817,-3.495484 3.666499,-3.482784 4.062068,0.18171c0.701459,6.497615 4.485185,10.951475 8.36849,9.849489c1.132327,-0.321413 1.145923,1.781935 0.025401,3.931199c-0.556802,1.067793 -0.919338,2.033008 -0.805926,2.146333c0.113292,0.113325 0.679873,-0.772758 1.259215,-1.969507c1.582635,-3.267858 1.770223,-7.095501 0.547143,-11.122439c-1.749711,-5.761003 -1.457655,-5.75905 3.559885,0.024423c6.807321,7.845789 13.664491,17.541899 12.927852,18.27851c-0.128915,0.128956 -1.040382,-0.311643 -2.025191,-0.979869c-4.826017,-3.275673 -7.713899,-0.003908 -4.465628,5.058585c2.481461,3.867698 5.543217,6.206487 11.71455,8.946798c8.886177,3.947806 9.679462,4.924745 12.626852,15.54113c4.546721,16.381297 -0.744391,53.940655 -9.773196,69.379207c-8.016807,13.708394 -25.224606,16.315842 -33.514865,5.080078c-1.385268,-1.877675 -1.390157,-2.13754 -0.046867,-2.549808c0.590074,-0.180734 2.698267,-1.066816 4.684341,-1.967553l3.612715,-1.639302l2.307587,1.227034c6.088213,3.236596 14.589553,-3.354805 18.508038,-14.351219c4.417687,-12.394413 5.003945,-36.17113 1.101083,-44.694914c-3.782773,-8.262942 -10.104487,-10.347727 -26.151696,-8.623432c-32.436322,3.486692 -53.343773,-4.386452 -59.324537,-22.338665c-5.511972,-16.545422 3.556069,-36.096883 24.167409,-52.105966c5.807009,-4.510523 5.216935,-4.281919 6.734099,-2.61624m131.972614,2.993338c2.904459,2.382752 3.704541,3.29912 3.527686,4.035731c-3.189717,13.235556 -0.476782,21.243517 14.606249,43.128882c12.389535,17.975659 14.708689,23.000052 15.657364,33.922218c1.391111,16.019829 -5.231484,30.254793 -16.977279,36.488635c-3.512064,1.863021 -3.976085,1.904052 -3.976085,0.34779c0,-0.659433 -0.545115,-2.751057 -1.211394,-4.646317l-1.211394,-3.44566l1.007229,-0.715119c17.143282,-12.164832 16.723147,-29.491805 -1.371672,-56.568618c-10.837191,-16.217171 -14.485086,-23.435766 -16.326623,-32.308317c-1.51132,-7.287958 -1.122429,-17.375819 0.841226,-21.816003c0.965132,-2.18248 0.796147,-2.231326 5.434695,1.576778m-10.760986,22.52526c8.70157,9.104085 9.979388,23.855849 2.823365,32.587721c-2.052619,2.504869 -3.028484,2.586932 -4.231172,0.352675c-2.550748,-4.735219 -7.650336,-6.221141 -11.17516,-3.255157c-7.921999,6.665648 14.058152,14.246687 31.653769,10.917282c2.359343,-0.446461 4.874911,-0.920276 5.590084,-1.053139c1.304174,-0.243258 6.079388,7.771542 5.340841,8.96536c-0.254967,0.413245 -4.855353,1.842505 -9.023916,2.803812c-4.451913,1.026762 -20.705314,1.166464 -28.978996,0.248142c-19.810304,-2.197134 -26.32545,1.292489 -28.787353,15.419013c-0.886066,5.081055 -0.563719,22.751909 0.506954,27.85348l0.680947,3.244411l-1.972361,1.240711c-1.084506,0.68288 -2.991396,2.098463 -4.237969,3.146717c-2.789258,2.345628 -2.427677,2.841913 -4.126585,-5.655494c-3.762261,-18.815826 -4.776287,-37.171514 -2.51366,-45.489165c3.09002,-11.358858 4.131475,-13.001091 9.9999,-15.774618c8.113403,-3.835459 9.200772,-4.429437 11.137117,-6.086324c6.966527,-5.96323 6.379315,-14.529999 -0.652683,-9.523192c-5.19535,3.699664 2.068242,-7.40519 12.668949,-19.36975c2.690515,-3.036323 3.089066,-2.584978 1.73707,1.970484c-1.336492,4.502707 -1.144014,7.999168 0.628117,11.406728c1.454674,2.79795 1.652995,2.591817 0.32342,-0.338997c-1.480075,-3.261019 -1.318842,-4.219395 0.657454,-3.89896c3.941978,0.639894 7.910312,-4.952099 7.910312,-11.148817c0,-2.251842 0.781479,-1.974392 4.041556,1.437076m-140.66047,45.067127c1.09512,0.750288 3.135933,1.94313 4.533961,2.649456c1.961628,0.990615 2.471563,1.467361 2.232217,2.088693c-8.255078,21.492636 2.445326,39.225038 24.414745,40.460865l4.88469,0.27452l0.004889,3.386067c0.002862,1.863021 0.138694,4.191064 0.300881,5.173864l0.295991,1.78682l-4.071847,0c-29.034688,0 -46.894098,-27.529136 -35.817562,-55.211652c0.93985,-2.348559 0.73962,-2.310458 3.222035,-0.608632m65.877845,7.971814c2.07492,0.984754 5.641722,4.731311 5.31544,5.583201c-0.164095,0.426922 -1.519072,0.910506 -3.519815,1.254388c-8.449584,1.453684 -28.32834,16.372504 -36.073484,27.071929c-0.995542,1.376506 -1.860141,2.501938 -1.920723,2.501938c-2.124769,0 -10.29291,-2.227419 -10.29291,-2.806743c0,-3.045116 9.832824,-13.912574 22.39826,-24.754632c7.269316,-6.271942 7.130622,-6.124424 7.140401,-7.599601c0.009779,-1.373575 0.209054,-1.43903 5.964187,-1.964622c5.483589,-0.501169 8.895956,-0.279404 10.988645,0.714142m58.098475,-0.725865c6.02775,0.528523 6.923595,0.862636 6.923595,2.58107c0,0.773735 1.382286,2.227419 5.003826,5.259834c2.752051,2.304597 5.003826,4.292666 5.003826,4.419668c0,0.126025 -0.628117,1.249504 -1.396001,2.497054c-0.767884,1.248527 -1.865985,3.362621 -2.441391,4.699072c-1.255279,2.920068 -0.88213,2.888806 -4.181204,0.351698c-12.239154,-9.413775 -15.107478,-11.002276 -22.682564,-12.565377c-2.350519,-0.484561 -2.541088,-1.057047 -0.972049,-2.922022c2.138483,-2.541016 5.602725,-4.42846 8.798286,-4.794812c0.131896,-0.014654 2.805715,0.198318 5.943676,0.473815m-96.869271,5.744395c3.352858,0.711211 6.444905,2.329997 8.461271,4.430414l1.648106,1.71648l-2.824319,2.853636c-3.234676,3.268835 -3.499422,3.348943 -4.881828,1.479084c-3.637162,-4.918883 -10.994488,-4.40306 -11.794571,0.827466c-1.052188,6.872759 -5.013605,5.037092 -4.990112,-2.312412c0.023374,-7.581039 5.348712,-10.911421 14.381453,-8.994668m133.724234,0.0127c4.515476,1.108825 6.287607,3.677195 6.286653,9.110924c-0.002027,7.238134 -3.96249,8.967314 -5.000964,2.183456c-0.441602,-2.885875 -1.835694,-4.218418 -4.413871,-4.218418c-6.997772,0 -12.210771,7.535123 -13.98481,20.213824l-0.564673,4.039639l-1.480075,-0.259866c-2.350519,-0.411291 -7.168784,-1.709642 -7.514623,-2.024216c-0.173874,-0.157287 -0.025401,-1.78682 0.329263,-3.621509c3.640024,-18.801172 13.71422,-28.523659 26.3431,-25.423835m-88.218504,3.814943c2.053573,1.704757 3.682121,15.804903 1.9949,17.275195c-0.098624,0.086947 -1.466361,1.193818 -3.038263,2.45993c-1.572856,1.267089 -5.326292,4.485122 -8.340107,7.152163c-7.028062,6.21821 -13.994589,10.670117 -15.048685,9.616001c-0.116274,-0.116256 -0.432777,-2.5459 -0.702413,-5.400513c-0.556921,-5.869444 -0.946766,-5.093755 3.929218,-7.82625c7.500909,-4.203764 11.871729,-10.551907 12.214587,-17.741194c0.18568,-3.864767 0.30577,-4.304389 1.375608,-5.004853c2.228401,-1.460522 6.164417,-1.734065 7.615155,-0.530477m41.25023,0.242281c0.721017,0.363421 1.315026,0.923206 1.32087,1.243642c0.254967,15.331088 11.849309,25.943566 29.389234,26.900965l4.856307,0.265727l1.034657,2.548831c0.568489,1.401906 1.063875,3.676218 1.100009,5.055654l0.066425,2.5078l-5.718999,0.135794c-12.850694,0.307735 -18.795324,-2.213742 -31.452586,-13.340089c-3.669361,-3.225849 -7.363169,-6.356936 -8.208211,-6.957753c-3.706449,-2.634802 -2.498037,-18.548145 1.464453,-19.293549c1.536722,-0.289174 4.666811,0.185618 6.14784,0.932976m38.509031,13.384051c11.150712,12.074954 13.92721,23.845103 8.281434,35.11506c-4.173452,8.331327 -10.229466,12.276203 -17.676711,11.513214c-3.877461,-0.397614 -4.593588,-0.681903 -4.174407,-1.65591c0.182699,-0.423991 0.918264,-2.47263 1.635346,-4.551554l1.30322,-3.779773l2.248913,-0.655525c9.525146,-2.777435 11.230852,-14.32875 3.671388,-24.865026l-2.591891,-3.612717l0.743436,-3.098847c0.886185,-3.686964 2.505908,-7.625978 3.137006,-7.625978c0.24817,0 1.788827,1.447822 3.422264,3.217057m-107.822735,4.527131c1.046344,4.219395 1.66659,9.08357 2.505789,19.650131c0.291221,3.665471 0.625255,6.820004 0.743436,7.011484c0.532474,0.860682 -6.337337,4.194972 -8.642896,4.194972c-0.638015,0 -1.458609,-5.562685 -1.89723,-12.866274c-0.1505,-2.490215 -0.508981,-6.851266 -0.799129,-9.692202l-0.526631,-5.164094l3.510155,-3.532608c4.289726,-4.319043 3.928264,-4.347374 5.106505,0.398591m-21.630376,20.598738c4.22032,1.07854 4.252638,1.099055 5.003826,3.052931c3.743657,9.735187 11.486892,10.498176 23.457245,2.312412c9.070903,-6.202579 17.139466,-8.912605 21.526862,-7.228364c1.758536,0.675064 -1.927521,9.993099 -3.770966,9.53003c-2.289937,-0.57444 -6.042419,1.004292 -11.391131,4.793835c-13.598901,9.632609 -25.053594,11.596254 -32.871961,5.633025c-5.561701,-4.241865 -12.144346,-21.498498 -7.511642,-19.691163c0.720897,0.281358 3.221916,1.000385 5.557766,1.597294m92.786572,-1.241688c6.523017,2.244027 15.348731,7.792058 14.881728,9.355158c-0.818686,2.739334 -2.216595,6.031615 -2.930814,6.903044l-0.80688,0.98573l-2.382837,-1.683264c-9.875875,-6.977291 -11.494644,-7.610347 -16.002249,-6.26315c-11.698809,3.497438 -14.132329,15.773641 -4.693166,23.676093c3.136887,2.626009 3.019659,2.975753 -0.921246,2.753011c-11.898084,-0.672133 -15.517716,-20.466851 -5.4787,-29.96562c7.013513,-6.635363 11.602093,-8.077323 18.334164,-5.761003m22.938605,2.07697c2.031034,0.309689 3.691781,0.786435 3.690827,1.060955c-0.023493,4.146125 -2.605486,15.07513 -4.387396,18.566707c-6.997891,13.718164 -26.610828,12.827196 -35.179547,-1.597294c-2.288983,-3.852067 -2.309495,-4.222326 -0.341904,-6.0365c2.193221,-2.024216 2.825273,-2.456022 4.790836,-3.277627l1.739932,-0.726842l0.946647,1.854228c2.125842,4.167618 8.619522,8.634178 12.552676,8.634178c4.888625,0 8.87449,-6.714495 10.140621,-17.079807c0.282396,-2.315343 0.402486,-2.517569 1.332557,-2.251842c0.561692,0.160218 2.683598,0.545131 4.714751,0.853844m-51.991658,9.575946c3.271764,7.256696 0.048775,20.130785 -5.779581,23.079184c-2.563508,1.296397 -7.159005,1.525977 -7.159005,0.357559c0,-0.393706 0.167076,-0.715119 0.372195,-0.715119c0.782552,0 5.038052,-4.631663 6.349143,-6.909883c1.582635,-2.751057 1.795624,-5.610555 0.659362,-8.832497c-0.692634,-1.963645 -0.668186,-2.178572 0.646721,-5.659402c0.751307,-1.989046 1.509412,-4.022054 1.683286,-4.516384c0.46116,-1.309097 1.788827,0.006839 3.227879,3.196541" fill="#000000" fill-rule="evenodd" id="path0"/>
  </g>
 </g>
</svg>