<svg width="512" height="512" xmlns="http://www.w3.org/2000/svg">

 <g>
  <title>Layer 1</title>
  <path id="svg_1" fill="#494e31" d="m0,0l512,0l0,512l-512,0l0,-512z"/>
  <g stroke="null" id="svg_2">
   <path stroke="null" id="svg_3" fill="#ebe7d7" d="m256,122c-73.89226,0 -134,60.10774 -134,134s60.12056,134 134,134s134,-60.12056 134,-134s-60.10774,-134 -134,-134zm98.35192,101.78174l-73.73204,0l-23.77976,-71.27635c45.46387,0.36588 84.01567,30.18496 97.51122,71.27635l0.00058,0zm-99.19204,-71.27635l-23.75412,71.27635l-73.73263,0c13.47166,-41.09139 52.02346,-70.9093 97.48791,-71.27635l-0.00117,0zm-102.67313,103.49461a103.15437,103.15437 0 0 1 4.44938,-29.99852l59.26762,44.23864l-21.75461,68.94883a103.42353,103.42353 0 0 1 -41.96123,-83.18895l-0.00117,0zm44.66278,85.08709l58.85047,-41.95657l58.85105,41.95657a103.22486,103.22486 0 0 1 -117.70211,0l0.00058,0zm120.37511,-1.92377l-21.72839,-68.94883l59.26762,-44.23923a103.39149,103.39149 0 0 1 -37.51417,113.21369l-0.02505,-0.02563z"/>
  </g>
 </g>
</svg>