<svg id="svg" xmlns="http://www.w3.org/2000/svg" xmlns:xlink="http://www.w3.org/1999/xlink" width="400" height="302.4390243902439" viewBox="0, 0, 400,302.4390243902439" version="1.1"><g id="svgg"><path id="path0" d="M190.318 21.487 C 181.222 22.239,173.337 23.643,164.145 26.146 C 156.658 28.185,142.060 34.233,137.065 37.365 C 136.483 37.730,135.189 38.481,134.191 39.033 C 107.429 53.835,85.774 81.400,75.361 113.918 C 66.965 140.138,68.491 173.018,79.358 200.000 C 83.340 209.887,90.983 223.323,96.571 230.257 C 97.308 231.172,98.678 232.874,99.615 234.039 C 115.101 253.289,140.532 270.088,163.540 276.265 C 164.039 276.399,165.197 276.723,166.112 276.986 C 183.542 281.983,207.587 282.775,225.567 278.944 C 232.427 277.483,235.439 276.666,241.604 274.593 C 255.511 269.918,271.424 261.277,280.866 253.274 C 281.238 252.958,282.521 251.889,283.717 250.898 C 298.737 238.447,310.772 222.303,319.516 202.874 C 321.727 197.961,325.031 188.094,326.302 182.602 C 326.572 181.437,326.919 179.939,327.073 179.274 C 342.278 113.538,300.719 43.772,235.855 26.145 C 220.954 22.096,203.970 20.359,190.318 21.487 M198.556 46.768 C 199.951 47.678,199.904 47.679,201.357 46.692 C 204.338 44.666,214.465 47.350,226.162 53.264 C 236.167 58.322,236.694 58.842,240.392 67.322 C 241.553 69.986,244.725 78.905,246.095 83.359 C 246.504 84.690,247.479 87.753,248.261 90.166 C 249.998 95.527,250.277 97.839,249.375 99.369 C 248.645 100.605,240.793 110.714,231.611 122.239 C 218.457 138.750,210.375 149.797,205.353 158.134 C 203.750 160.796,202.570 160.784,200.905 158.089 C 200.061 156.724,199.718 156.770,198.741 158.381 C 197.037 161.191,196.212 160.862,193.346 156.232 C 192.125 154.260,190.104 151.150,188.853 149.319 C 186.121 145.319,175.790 131.580,171.562 126.324 C 161.079 113.290,150.955 100.222,150.256 98.824 C 149.532 97.373,149.745 96.109,151.792 89.739 C 152.545 87.395,153.502 84.387,153.920 83.056 C 157.075 72.995,161.064 62.998,162.943 60.440 C 165.940 56.361,179.999 49.387,190.469 46.785 C 195.524 45.528,196.653 45.526,198.556 46.768 M259.153 56.435 C 263.438 57.133,268.684 63.090,268.684 67.259 C 268.684 69.638,268.311 69.641,265.946 67.281 C 258.894 60.242,253.364 64.633,256.747 74.584 C 257.814 77.722,261.824 81.884,268.808 87.100 C 270.986 88.727,275.186 91.857,278.141 94.056 C 287.434 100.970,295.580 110.113,300.961 119.667 C 308.375 132.830,306.187 151.761,296.312 159.891 C 294.222 161.612,294.378 161.637,293.185 159.380 C 292.635 158.340,291.439 156.360,290.526 154.980 L 288.866 152.471 289.816 151.198 C 296.639 142.051,296.698 131.010,289.981 120.370 C 286.883 115.462,281.972 110.161,275.114 104.323 C 272.517 102.112,267.932 98.209,264.924 95.650 C 250.404 83.297,246.221 77.209,246.180 68.371 C 246.147 61.465,249.164 57.265,254.844 56.308 C 256.417 56.043,256.820 56.055,259.153 56.435 M148.073 57.326 C 156.303 61.254,155.803 74.773,147.067 84.564 C 141.780 90.489,141.509 90.662,140.270 88.911 C 139.787 88.228,138.663 86.811,137.774 85.763 C 135.781 83.414,135.669 83.936,138.839 80.836 C 142.891 76.875,144.063 74.320,144.138 69.289 C 144.233 62.841,139.105 61.907,133.990 67.442 C 131.775 69.839,131.316 69.852,131.316 67.522 C 131.316 63.429,136.136 57.668,140.494 56.551 C 142.488 56.041,146.168 56.417,148.073 57.326 M125.326 78.694 C 130.548 79.761,136.212 84.386,140.684 91.236 C 145.187 98.134,145.104 112.776,140.498 124.206 C 137.640 131.297,128.028 147.221,121.093 156.355 L 120.575 157.037 118.306 155.991 C 115.366 154.637,112.141 152.321,112.368 151.728 C 112.461 151.485,113.607 149.755,114.914 147.882 C 119.516 141.291,126.377 131.144,127.445 129.349 C 138.693 110.460,134.430 87.583,119.667 87.607 C 112.254 87.619,108.547 90.521,106.045 98.272 C 103.909 104.892,102.295 104.292,102.659 97.013 C 103.222 85.729,114.630 76.509,125.326 78.694 M282.969 79.269 C 291.328 82.207,296.830 89.858,296.890 98.626 C 296.929 104.310,295.296 104.266,293.487 98.535 C 291.481 92.178,288.748 89.235,283.607 87.896 C 280.534 87.095,275.583 87.520,274.297 88.694 C 273.529 89.394,269.722 87.189,266.490 84.173 C 265.422 83.176,265.422 83.177,266.964 82.069 C 271.914 78.514,277.862 77.474,282.969 79.269 M128.098 92.303 C 129.526 93.891,130.069 94.795,131.018 97.160 L 131.577 98.556 130.463 99.614 C 129.851 100.196,127.307 102.412,124.811 104.538 C 118.985 109.499,116.455 112.072,112.045 117.517 C 101.053 131.087,103.402 149.668,116.975 156.523 C 131.887 164.053,162.481 160.774,162.481 151.645 C 162.481 145.292,152.419 146.019,149.281 152.600 C 148.394 154.461,147.795 154.370,145.584 152.036 C 137.485 143.487,138.976 127.310,148.770 117.474 C 151.610 114.621,152.085 114.601,152.328 117.322 C 152.974 124.571,156.501 129.426,160.371 128.393 C 162.247 127.892,162.450 129.879,160.833 132.921 C 159.797 134.869,159.859 135.103,160.968 133.434 C 161.466 132.685,161.874 131.793,161.875 131.452 C 161.875 131.111,162.008 130.700,162.170 130.538 C 163.303 129.405,162.988 123.421,161.607 119.818 C 160.414 116.709,160.859 115.870,162.682 117.789 C 167.496 122.858,173.546 130.529,176.501 135.310 C 179.341 139.903,179.434 140.808,176.869 138.868 C 172.292 135.405,168.904 138.477,171.843 143.425 C 174.426 147.772,177.481 150.225,183.781 153.010 C 193.499 157.306,194.037 157.936,196.970 168.440 C 199.431 177.252,199.732 185.858,198.033 198.790 C 197.803 200.537,197.393 203.737,197.122 205.900 C 196.851 208.064,196.297 211.536,195.891 213.616 C 195.485 215.696,195.008 218.147,194.831 219.062 C 192.316 232.084,186.882 243.159,180.667 247.930 C 171.285 255.133,159.142 253.861,152.585 244.988 C 151.338 243.300,151.388 243.197,153.875 242.343 C 154.864 242.003,156.972 241.109,158.560 240.357 L 161.447 238.988 163.011 240.040 C 166.674 242.505,170.738 241.415,175.906 236.580 C 182.812 230.118,186.441 217.171,186.455 198.941 C 186.474 174.120,180.341 168.402,156.581 171.091 C 132.608 173.803,117.737 170.896,105.029 161.013 C 93.559 152.093,91.136 133.454,99.550 118.878 C 104.708 109.943,113.413 100.321,122.088 93.964 C 123.419 92.989,124.917 91.878,125.416 91.495 C 126.615 90.577,126.521 90.548,128.098 92.303 M262.738 95.008 C 267.122 98.685,266.959 98.446,266.383 100.349 C 265.753 102.429,265.513 108.810,265.936 112.231 C 266.963 120.542,269.463 126.070,277.304 137.368 C 291.076 157.212,292.837 160.033,294.773 165.356 C 302.408 186.342,295.654 207.883,278.754 216.447 C 276.510 217.584,276.464 217.558,275.914 214.902 C 275.647 213.612,275.003 211.431,274.482 210.055 L 273.536 207.553 275.711 206.159 C 291.871 195.801,291.144 174.837,273.753 149.720 C 259.602 129.281,255.547 119.438,255.577 105.598 C 255.591 99.036,256.233 95.411,257.872 92.649 C 258.606 91.411,258.237 91.232,262.738 95.008 M251.034 117.167 C 254.560 120.553,257.355 125.266,258.530 129.807 C 258.809 130.887,259.166 132.262,259.322 132.864 C 260.864 138.794,258.584 147.634,254.380 152.029 C 252.121 154.390,251.962 154.415,250.900 152.594 C 248.128 147.838,243.747 145.845,240.242 147.747 C 234.451 150.890,238.581 156.757,248.370 159.293 C 255.635 161.176,267.486 161.089,275.421 159.095 C 278.557 158.307,278.351 158.192,280.137 161.725 C 283.302 167.986,283.294 167.903,280.872 168.763 C 271.426 172.119,259.351 172.803,242.560 170.934 C 231.534 169.707,227.593 169.972,223.133 172.242 C 218.569 174.564,215.059 180.237,214.383 186.384 C 214.264 187.466,214.034 188.964,213.872 189.713 C 213.471 191.570,213.505 205.260,213.920 208.623 C 214.104 210.121,214.539 213.042,214.887 215.114 C 215.307 217.616,215.413 218.917,215.202 218.987 C 214.239 219.308,210.986 221.570,209.220 223.147 C 206.893 225.224,206.641 225.302,206.303 224.054 C 205.569 221.343,203.429 210.026,203.042 206.808 C 202.862 205.310,202.507 202.587,202.254 200.756 C 199.950 184.110,200.577 174.721,204.780 162.935 C 206.651 157.686,208.882 155.806,217.095 152.553 C 222.348 150.472,225.956 147.367,228.583 142.663 C 231.048 138.248,227.674 135.712,223.266 138.666 C 220.827 140.301,220.803 139.680,223.158 135.793 C 226.701 129.946,237.563 116.552,238.805 116.500 C 239.269 116.480,239.007 118.147,238.216 120.236 C 237.323 122.598,237.000 128.885,237.692 130.437 C 238.780 132.875,239.773 134.690,239.867 134.409 C 239.926 134.230,239.625 133.528,239.196 132.850 C 238.693 132.052,238.350 130.974,238.227 129.802 C 238.024 127.857,238.102 127.764,239.495 128.294 C 243.106 129.667,247.048 124.560,247.653 117.724 C 247.928 114.619,248.314 114.555,251.034 117.167 M108.162 164.475 C 109.322 165.237,111.331 166.407,112.625 167.073 C 115.180 168.389,115.207 168.439,114.492 170.546 C 106.817 193.151,118.794 210.893,141.728 210.893 L 144.581 210.893 144.739 211.725 C 144.826 212.182,144.938 214.599,144.990 217.095 L 145.083 221.634 143.268 221.728 C 130.859 222.372,116.545 216.242,109.324 207.192 C 101.672 197.601,99.378 180.373,103.997 167.171 C 104.404 166.006,104.886 164.610,105.067 164.070 C 105.492 162.801,105.647 162.822,108.162 164.475 M175.266 172.535 C 177.143 173.405,180.112 176.003,180.843 177.416 C 181.493 178.674,181.025 178.979,177.547 179.562 C 171.891 180.510,171.257 180.840,161.496 187.933 C 149.816 196.420,143.643 202.175,139.713 208.240 L 138.738 209.744 136.918 209.543 C 133.237 209.137,127.685 207.600,127.685 206.987 C 127.685 204.097,138.855 191.762,150.378 181.924 C 157.848 175.547,157.943 175.450,157.943 174.120 C 157.943 172.562,158.685 172.252,163.238 171.911 C 169.875 171.413,173.218 171.587,175.266 172.535 M235.552 171.889 C 241.048 172.267,241.457 172.425,241.896 174.344 C 242.188 175.617,242.546 175.993,247.277 180.001 C 250.064 182.363,252.345 184.355,252.345 184.429 C 252.345 184.502,251.709 185.551,250.932 186.759 C 250.155 187.968,249.098 189.909,248.583 191.074 C 246.929 194.813,247.653 194.867,241.864 190.571 C 228.977 181.006,228.084 180.515,221.547 179.398 C 217.852 178.767,217.750 178.035,220.935 175.009 C 224.496 171.624,226.251 171.250,235.552 171.889 M273.480 177.946 C 277.525 179.096,278.721 180.972,278.912 186.467 C 279.169 193.883,275.102 197.168,274.132 190.328 C 273.558 186.282,272.365 184.871,269.519 184.871 C 261.987 184.871,256.538 193.113,254.917 206.959 C 254.588 209.762,254.606 209.739,253.001 209.517 C 251.337 209.287,248.546 208.616,246.498 207.953 L 245.038 207.480 245.242 205.934 C 246.425 196.989,250.285 187.903,255.183 182.536 C 259.457 177.854,266.736 176.027,273.480 177.946 M137.394 178.017 C 140.898 179.133,145.840 182.638,145.840 184.007 C 145.840 184.262,145.193 185.059,144.402 185.779 C 143.612 186.499,142.250 187.777,141.376 188.618 L 139.787 190.147 138.086 188.406 C 135.731 185.993,133.385 184.884,130.620 184.876 C 127.785 184.867,126.355 186.556,125.868 190.486 C 125.074 196.886,121.038 194.041,121.032 187.076 C 121.026 180.992,123.197 178.293,128.744 177.490 C 130.474 177.239,136.013 177.577,137.394 178.017 M182.322 181.738 C 184.642 184.477,186.047 196.286,184.382 199.058 C 184.121 199.493,183.205 200.348,182.347 200.959 C 180.922 201.973,177.963 204.503,172.315 209.539 C 166.511 214.713,164.124 216.404,160.123 218.177 C 156.937 219.588,157.095 219.732,156.742 215.111 C 156.583 213.040,156.363 210.574,156.252 209.630 L 156.049 207.913 158.433 206.707 C 168.185 201.777,173.330 194.596,173.363 185.870 L 173.374 183.087 174.357 182.360 C 176.813 180.544,181.032 180.214,182.322 181.738 M224.138 181.776 C 225.968 182.672,225.923 182.551,226.145 187.141 C 226.760 199.845,241.440 210.855,257.804 210.887 L 260.691 210.893 261.477 212.481 C 262.698 214.945,263.027 216.285,263.058 218.907 L 263.086 221.331 260.061 221.611 C 247.018 222.819,238.314 219.440,225.656 208.256 C 222.445 205.419,218.735 202.231,217.411 201.171 C 214.346 198.718,214.104 198.060,214.367 192.890 C 214.697 186.386,216.374 181.288,218.306 180.913 C 219.940 180.596,222.500 180.975,224.138 181.776 M262.826 194.350 C 274.225 206.523,277.725 217.063,273.978 227.944 C 270.159 239.032,262.279 244.754,252.984 243.187 C 249.593 242.615,249.658 242.670,250.336 240.906 C 250.636 240.125,251.293 238.260,251.796 236.762 C 253.221 232.511,253.032 232.790,254.638 232.570 C 258.575 232.031,262.900 227.079,264.148 221.683 C 265.119 217.486,262.646 211.095,257.732 205.102 C 257.099 204.330,256.581 203.412,256.581 203.063 C 256.581 200.879,259.686 192.133,260.461 192.133 C 260.620 192.133,261.684 193.131,262.826 194.350 M152.998 197.898 C 154.522 202.929,155.251 208.210,156.139 220.681 C 156.315 223.152,156.569 225.762,156.704 226.482 C 156.838 227.201,156.865 227.916,156.764 228.071 C 156.115 229.064,151.079 231.354,148.913 231.641 L 147.436 231.837 147.273 230.366 C 147.183 229.557,146.969 227.874,146.798 226.626 C 146.626 225.378,146.332 221.906,146.143 218.911 C 145.785 213.242,145.398 208.785,144.976 205.471 L 144.728 203.528 146.255 201.840 C 147.094 200.911,148.452 199.539,149.273 198.790 C 152.472 195.870,152.389 195.890,152.998 197.898 M182.404 219.394 C 183.512 219.780,183.525 219.630,181.973 224.418 C 180.371 229.363,180.561 229.158,177.509 229.222 C 174.373 229.288,172.427 230.155,167.907 233.498 C 148.384 247.940,133.557 246.513,126.369 229.501 C 124.947 226.137,123.716 219.365,124.526 219.365 C 124.619 219.365,125.879 219.762,127.325 220.248 C 129.740 221.059,132.114 221.637,134.533 222.002 C 135.127 222.092,135.586 222.389,135.763 222.797 C 138.872 229.992,142.445 232.907,147.768 232.594 C 151.907 232.350,153.739 231.493,161.573 226.137 C 169.883 220.456,177.956 217.843,182.404 219.394 M226.755 220.109 C 231.137 221.562,241.755 227.797,241.755 228.918 C 241.755 230.454,239.012 236.819,238.110 237.376 C 237.715 237.620,235.524 236.257,232.024 233.587 C 224.700 228.002,220.089 227.681,213.711 232.314 C 205.518 238.265,206.208 246.984,215.507 255.011 C 217.390 256.636,216.251 257.175,212.165 256.592 C 206.016 255.714,201.807 248.846,201.773 239.637 C 201.747 232.403,203.591 229.150,211.498 222.486 C 215.665 218.974,220.881 218.161,226.755 220.109 M246.608 221.602 C 247.517 221.834,249.406 222.175,250.807 222.359 C 253.941 222.771,253.683 222.383,253.287 226.079 C 251.690 240.974,247.103 248.769,238.283 251.577 C 227.942 254.870,215.425 248.189,211.222 237.134 C 210.802 236.032,213.684 233.108,216.675 231.602 C 219.354 230.253,219.334 230.248,220.575 232.416 C 223.926 238.267,231.616 242.447,235.807 240.696 C 239.549 239.133,242.914 231.768,243.723 223.374 C 243.962 220.889,243.920 220.915,246.608 221.602 M195.177 229.225 C 201.571 238.519,196.972 255.317,187.680 256.609 C 183.056 257.252,182.387 256.567,185.244 254.115 C 191.515 248.733,193.048 244.074,190.580 237.903 C 190.220 237.001,190.285 236.689,191.438 233.819 C 192.124 232.109,192.920 230.064,193.207 229.274 C 193.851 227.499,193.987 227.495,195.177 229.225 " stroke="none" fill="#060606" fill-rule="evenodd"></path><path id="path1" d="M0.000 151.286 L 0.000 302.572 200.000 302.572 L 400.000 302.572 400.000 151.286 L 400.000 0.000 200.000 0.000 L 0.000 0.000 0.000 151.286 M215.280 22.053 C 222.437 22.938,228.461 24.136,235.855 26.145 C 273.779 36.451,307.374 67.250,321.530 104.690 C 330.496 128.403,332.525 155.702,327.073 179.274 C 326.919 179.939,326.572 181.437,326.302 182.602 C 325.031 188.094,321.727 197.961,319.516 202.874 C 310.772 222.303,298.737 238.447,283.717 250.898 C 282.521 251.889,281.238 252.958,280.866 253.274 C 275.956 257.435,266.511 263.471,258.669 267.458 C 247.449 273.162,233.838 277.675,222.088 279.587 C 203.200 282.660,182.556 281.701,166.112 276.986 C 165.197 276.723,164.039 276.399,163.540 276.265 C 140.532 270.088,115.101 253.289,99.615 234.039 C 98.678 232.874,97.308 231.172,96.571 230.257 C 76.044 204.783,65.901 164.857,71.435 131.316 C 72.356 125.733,74.214 117.500,75.361 113.918 C 85.774 81.400,107.429 53.835,134.191 39.033 C 135.189 38.481,136.483 37.730,137.065 37.365 C 138.749 36.309,146.563 32.566,150.530 30.916 C 170.229 22.719,194.164 19.443,215.280 22.053 M194.402 45.897 C 184.497 47.377,166.391 55.747,162.943 60.440 C 161.064 62.998,157.075 72.995,153.920 83.056 C 153.502 84.387,152.545 87.395,151.792 89.739 C 149.745 96.109,149.532 97.373,150.256 98.824 C 150.955 100.222,161.079 113.290,171.562 126.324 C 175.790 131.580,186.121 145.319,188.853 149.319 C 190.104 151.150,192.125 154.260,193.346 156.232 C 196.212 160.862,197.037 161.191,198.741 158.381 C 199.718 156.770,200.061 156.724,200.905 158.089 C 202.570 160.784,203.750 160.796,205.353 158.134 C 210.375 149.797,218.457 138.750,231.611 122.239 C 240.793 110.714,248.645 100.605,249.375 99.369 C 250.277 97.839,249.998 95.527,248.261 90.166 C 247.479 87.753,246.504 84.690,246.095 83.359 C 244.725 78.905,241.553 69.986,240.392 67.322 C 236.694 58.842,236.167 58.322,226.162 53.264 C 214.465 47.350,204.338 44.666,201.357 46.692 C 199.904 47.679,199.951 47.678,198.556 46.768 C 197.355 45.984,195.884 45.676,194.402 45.897 M254.844 56.308 C 249.164 57.265,246.147 61.465,246.180 68.371 C 246.221 77.209,250.404 83.297,264.924 95.650 C 267.932 98.209,272.517 102.112,275.114 104.323 C 295.321 121.526,300.243 137.219,289.816 151.198 L 288.866 152.471 290.526 154.980 C 291.439 156.360,292.635 158.340,293.185 159.380 C 294.378 161.637,294.222 161.612,296.312 159.891 C 303.427 154.033,307.295 139.929,304.689 129.349 C 301.829 117.739,291.480 103.981,278.141 94.056 C 275.186 91.857,270.986 88.727,268.808 87.100 C 261.824 81.884,257.814 77.722,256.747 74.584 C 253.364 64.633,258.894 60.242,265.946 67.281 C 268.311 69.641,268.684 69.638,268.684 67.259 C 268.684 63.090,263.438 57.133,259.153 56.435 C 256.820 56.055,256.417 56.043,254.844 56.308 M140.494 56.551 C 136.136 57.668,131.316 63.429,131.316 67.522 C 131.316 69.852,131.775 69.839,133.990 67.442 C 139.105 61.907,144.233 62.841,144.138 69.289 C 144.063 74.320,142.891 76.875,138.839 80.836 C 135.669 83.936,135.781 83.414,137.774 85.763 C 138.663 86.811,139.787 88.228,140.270 88.911 C 141.509 90.662,141.780 90.489,147.067 84.564 C 158.702 71.524,154.356 53.000,140.494 56.551 M118.692 78.672 C 110.682 79.842,103.082 88.536,102.659 97.013 C 102.295 104.292,103.909 104.892,106.045 98.272 C 108.547 90.521,112.254 87.619,119.667 87.607 C 134.430 87.583,138.693 110.460,127.445 129.349 C 126.377 131.144,119.516 141.291,114.914 147.882 C 113.607 149.755,112.461 151.485,112.368 151.728 C 112.141 152.321,115.366 154.637,118.306 155.991 L 120.575 157.037 121.093 156.355 C 128.028 147.221,137.640 131.297,140.498 124.206 C 145.104 112.776,145.187 98.134,140.684 91.236 C 134.266 81.406,127.285 77.417,118.692 78.672 M274.735 78.555 C 271.786 79.128,265.658 82.265,265.658 83.202 C 265.658 84.513,273.450 89.467,274.297 88.694 C 275.583 87.520,280.534 87.095,283.607 87.896 C 288.748 89.235,291.481 92.178,293.487 98.535 C 295.296 104.266,296.929 104.310,296.890 98.626 C 296.809 86.695,285.513 76.461,274.735 78.555 M125.416 91.495 C 124.917 91.878,123.419 92.989,122.088 93.964 C 113.413 100.321,104.708 109.943,99.550 118.878 C 91.136 133.454,93.559 152.093,105.029 161.013 C 117.737 170.896,132.608 173.803,156.581 171.091 C 180.341 168.402,186.474 174.120,186.455 198.941 C 186.441 217.171,182.812 230.118,175.906 236.580 C 170.738 241.415,166.674 242.505,163.011 240.040 L 161.447 238.988 158.560 240.357 C 156.972 241.109,154.864 242.003,153.875 242.343 C 151.388 243.197,151.338 243.300,152.585 244.988 C 159.142 253.861,171.285 255.133,180.667 247.930 C 186.882 243.159,192.316 232.084,194.831 219.062 C 195.008 218.147,195.485 215.696,195.891 213.616 C 196.297 211.536,196.851 208.064,197.122 205.900 C 197.393 203.737,197.803 200.537,198.033 198.790 C 199.732 185.858,199.431 177.252,196.970 168.440 C 194.037 157.936,193.499 157.306,183.781 153.010 C 177.481 150.225,174.426 147.772,171.843 143.425 C 168.904 138.477,172.292 135.405,176.869 138.868 C 182.549 143.165,172.252 127.866,162.682 117.789 C 160.859 115.870,160.414 116.709,161.607 119.818 C 162.988 123.421,163.303 129.405,162.170 130.538 C 162.008 130.700,161.875 131.111,161.875 131.452 C 161.874 131.793,161.466 132.685,160.968 133.434 C 159.859 135.103,159.797 134.869,160.833 132.921 C 162.450 129.879,162.247 127.892,160.371 128.393 C 156.501 129.426,152.974 124.571,152.328 117.322 C 152.085 114.601,151.610 114.621,148.770 117.474 C 138.976 127.310,137.485 143.487,145.584 152.036 C 147.795 154.370,148.394 154.461,149.281 152.600 C 152.419 146.019,162.481 145.292,162.481 151.645 C 162.481 160.774,131.887 164.053,116.975 156.523 C 103.402 149.668,101.053 131.087,112.045 117.517 C 116.455 112.072,118.985 109.499,124.811 104.538 C 127.307 102.412,129.851 100.196,130.463 99.614 L 131.577 98.556 131.018 97.160 C 130.069 94.795,129.526 93.891,128.098 92.303 C 126.521 90.548,126.615 90.577,125.416 91.495 M257.872 92.649 C 256.233 95.411,255.591 99.036,255.577 105.598 C 255.547 119.438,259.602 129.281,273.753 149.720 C 291.144 174.837,291.871 195.801,275.711 206.159 L 273.536 207.553 274.482 210.055 C 275.003 211.431,275.647 213.612,275.914 214.902 C 276.464 217.558,276.510 217.584,278.754 216.447 C 295.654 207.883,302.408 186.342,294.773 165.356 C 292.837 160.033,291.076 157.212,277.304 137.368 C 269.463 126.070,266.963 120.542,265.936 112.231 C 265.513 108.810,265.753 102.429,266.383 100.349 C 266.959 98.446,267.122 98.685,262.738 95.008 C 258.237 91.232,258.606 91.411,257.872 92.649 M247.653 117.724 C 247.048 124.560,243.106 129.667,239.495 128.294 C 238.102 127.764,238.024 127.857,238.227 129.802 C 238.350 130.974,238.693 132.052,239.196 132.850 C 239.625 133.528,239.926 134.230,239.867 134.409 C 239.773 134.690,238.780 132.875,237.692 130.437 C 237.000 128.885,237.323 122.598,238.216 120.236 C 239.007 118.147,239.269 116.480,238.805 116.500 C 237.563 116.552,226.701 129.946,223.158 135.793 C 220.803 139.680,220.827 140.301,223.266 138.666 C 227.674 135.712,231.048 138.248,228.583 142.663 C 225.956 147.367,222.348 150.472,217.095 152.553 C 208.882 155.806,206.651 157.686,204.780 162.935 C 200.577 174.721,199.950 184.110,202.254 200.756 C 202.507 202.587,202.862 205.310,203.042 206.808 C 203.429 210.026,205.569 221.343,206.303 224.054 C 206.641 225.302,206.893 225.224,209.220 223.147 C 210.986 221.570,214.239 219.308,215.202 218.987 C 215.413 218.917,215.307 217.616,214.887 215.114 C 214.539 213.042,214.104 210.121,213.920 208.623 C 213.505 205.260,213.471 191.570,213.872 189.713 C 214.034 188.964,214.264 187.466,214.383 186.384 C 215.059 180.237,218.569 174.564,223.133 172.242 C 227.593 169.972,231.534 169.707,242.560 170.934 C 259.351 172.803,271.426 172.119,280.872 168.763 C 283.294 167.903,283.302 167.986,280.137 161.725 C 278.351 158.192,278.557 158.307,275.421 159.095 C 267.486 161.089,255.635 161.176,248.370 159.293 C 238.581 156.757,234.451 150.890,240.242 147.747 C 243.747 145.845,248.128 147.838,250.900 152.594 C 251.962 154.415,252.121 154.390,254.380 152.029 C 258.584 147.634,260.864 138.794,259.322 132.864 C 259.166 132.262,258.809 130.887,258.530 129.807 C 257.355 125.266,254.560 120.553,251.034 117.167 C 248.314 114.555,247.928 114.619,247.653 117.724 M105.067 164.070 C 104.886 164.610,104.404 166.006,103.997 167.171 C 99.378 180.373,101.672 197.601,109.324 207.192 C 116.545 216.242,130.859 222.372,143.268 221.728 L 145.083 221.634 144.990 217.095 C 144.938 214.599,144.826 212.182,144.739 211.725 L 144.581 210.893 141.728 210.893 C 118.794 210.893,106.817 193.151,114.492 170.546 C 115.207 168.439,115.180 168.389,112.625 167.073 C 111.331 166.407,109.322 165.237,108.162 164.475 C 105.647 162.822,105.492 162.801,105.067 164.070 M163.238 171.911 C 158.685 172.252,157.943 172.562,157.943 174.120 C 157.943 175.450,157.848 175.547,150.378 181.924 C 138.855 191.762,127.685 204.097,127.685 206.987 C 127.685 207.600,133.237 209.137,136.918 209.543 L 138.738 209.744 139.713 208.240 C 143.643 202.175,149.816 196.420,161.496 187.933 C 171.257 180.840,171.891 180.510,177.547 179.562 C 181.963 178.822,182.123 178.180,178.699 174.942 C 175.290 171.718,172.669 171.204,163.238 171.911 M225.817 171.994 C 223.332 172.771,220.365 175.067,218.993 177.274 C 218.170 178.597,218.510 178.879,221.547 179.398 C 228.084 180.515,228.977 181.006,241.864 190.571 C 247.653 194.867,246.929 194.813,248.583 191.074 C 249.098 189.909,250.155 187.968,250.932 186.759 C 251.709 185.551,252.345 184.502,252.345 184.429 C 252.345 184.355,250.064 182.363,247.277 180.001 C 242.546 175.993,242.188 175.617,241.896 174.344 C 241.457 172.425,241.048 172.267,235.552 171.889 C 229.485 171.472,227.414 171.494,225.817 171.994 M264.902 177.452 C 261.935 177.996,261.017 178.330,258.695 179.709 C 252.435 183.428,246.753 194.504,245.242 205.934 L 245.038 207.480 246.498 207.953 C 248.546 208.616,251.337 209.287,253.001 209.517 C 254.606 209.739,254.588 209.762,254.917 206.959 C 256.538 193.113,261.987 184.871,269.519 184.871 C 272.365 184.871,273.558 186.282,274.132 190.328 C 275.102 197.168,279.169 193.883,278.912 186.467 C 278.652 178.984,273.751 175.831,264.902 177.452 M128.744 177.490 C 123.197 178.293,121.026 180.992,121.032 187.076 C 121.038 194.041,125.074 196.886,125.868 190.486 C 126.355 186.556,127.785 184.867,130.620 184.876 C 133.385 184.884,135.731 185.993,138.086 188.406 L 139.787 190.147 141.376 188.618 C 142.250 187.777,143.612 186.499,144.402 185.779 C 146.213 184.130,146.200 183.893,144.198 181.954 C 140.627 178.495,134.341 176.679,128.744 177.490 M178.064 180.933 C 176.227 181.188,175.631 181.418,174.357 182.360 L 173.374 183.087 173.363 185.870 C 173.330 194.596,168.185 201.777,158.433 206.707 L 156.049 207.913 156.252 209.630 C 156.363 210.574,156.583 213.040,156.742 215.111 C 157.095 219.732,156.937 219.588,160.123 218.177 C 164.124 216.404,166.511 214.713,172.315 209.539 C 177.963 204.503,180.922 201.973,182.347 200.959 C 185.059 199.029,185.440 197.589,184.922 191.208 C 184.245 182.864,182.540 180.311,178.064 180.933 M218.306 180.913 C 216.374 181.288,214.697 186.386,214.367 192.890 C 214.104 198.060,214.346 198.718,217.411 201.171 C 218.735 202.231,222.445 205.419,225.656 208.256 C 238.314 219.440,247.018 222.819,260.061 221.611 L 263.086 221.331 263.058 218.907 C 263.027 216.285,262.698 214.945,261.477 212.481 L 260.691 210.893 257.804 210.887 C 241.440 210.855,226.760 199.845,226.145 187.141 C 226.056 185.310,225.928 183.530,225.859 183.185 C 225.583 181.799,220.940 180.403,218.306 180.913 M259.125 194.400 C 258.103 196.612,256.581 201.795,256.581 203.063 C 256.581 203.412,257.099 204.330,257.732 205.102 C 262.646 211.095,265.119 217.486,264.148 221.683 C 262.900 227.079,258.575 232.031,254.638 232.570 C 253.032 232.790,253.221 232.511,251.796 236.762 C 251.293 238.260,250.636 240.125,250.336 240.906 C 249.658 242.670,249.593 242.615,252.984 243.187 C 262.279 244.754,270.159 239.032,273.978 227.944 C 277.725 217.063,274.225 206.523,262.826 194.350 C 260.283 191.635,260.403 191.633,259.125 194.400 M151.382 196.892 C 149.409 198.606,147.598 200.353,146.255 201.840 L 144.728 203.528 144.976 205.471 C 145.398 208.785,145.785 213.242,146.143 218.911 C 146.332 221.906,146.626 225.378,146.798 226.626 C 146.969 227.874,147.183 229.557,147.273 230.366 L 147.436 231.837 148.913 231.641 C 151.079 231.354,156.115 229.064,156.764 228.071 C 156.865 227.916,156.838 227.201,156.704 226.482 C 156.569 225.762,156.315 223.152,156.139 220.681 C 155.251 208.210,154.522 202.929,152.998 197.898 C 152.524 196.335,152.232 196.153,151.382 196.892 M175.643 219.401 C 171.343 220.389,166.800 222.564,161.573 226.137 C 153.739 231.493,151.907 232.350,147.768 232.594 C 142.445 232.907,138.872 229.992,135.763 222.797 C 135.586 222.389,135.127 222.092,134.533 222.002 C 132.114 221.637,129.740 221.059,127.325 220.248 C 125.879 219.762,124.619 219.365,124.526 219.365 C 123.716 219.365,124.947 226.137,126.369 229.501 C 133.557 246.513,148.384 247.940,167.907 233.498 C 172.427 230.155,174.373 229.288,177.509 229.222 C 180.561 229.158,180.371 229.363,181.973 224.418 C 183.525 219.630,183.512 219.780,182.404 219.394 C 181.280 219.002,177.362 219.006,175.643 219.401 M216.476 219.607 C 213.876 220.526,212.750 221.311,208.217 225.365 C 203.496 229.588,201.750 233.453,201.773 239.637 C 201.798 246.431,205.009 253.752,208.816 255.694 C 210.885 256.750,216.641 257.165,216.641 256.259 C 216.641 256.111,216.131 255.550,215.507 255.011 C 206.208 246.984,205.518 238.265,213.711 232.314 C 220.089 227.681,224.700 228.002,232.024 233.587 C 235.524 236.257,237.715 237.620,238.110 237.376 C 239.012 236.819,241.755 230.454,241.755 228.918 C 241.755 228.395,235.163 223.973,231.899 222.306 C 226.122 219.356,220.144 218.310,216.476 219.607 M243.723 223.374 C 242.914 231.768,239.549 239.133,235.807 240.696 C 231.616 242.447,223.926 238.267,220.575 232.416 C 219.334 230.248,219.354 230.253,216.675 231.602 C 213.684 233.108,210.802 236.032,211.222 237.134 C 214.524 245.820,223.563 252.376,232.274 252.404 C 244.607 252.443,251.369 243.972,253.287 226.079 C 253.683 222.383,253.941 222.771,250.807 222.359 C 249.406 222.175,247.517 221.834,246.608 221.602 C 243.920 220.915,243.962 220.889,243.723 223.374 M193.207 229.274 C 192.920 230.064,192.124 232.109,191.438 233.819 C 190.285 236.689,190.220 237.001,190.580 237.903 C 193.048 244.074,191.515 248.733,185.244 254.115 C 182.387 256.567,183.056 257.252,187.680 256.609 C 196.972 255.317,201.571 238.519,195.177 229.225 C 193.987 227.495,193.851 227.499,193.207 229.274 " stroke="none" fill="#f5f5f5" fill-rule="evenodd"></path></g></svg>