<svg id="svg" xmlns="http://www.w3.org/2000/svg" xmlns:xlink="http://www.w3.org/1999/xlink" width="400" height="400" viewBox="0, 0, 400,400" version="1.1"><g id="svgg"><path id="path0" d="M186.200 18.864 C 171.961 20.092,159.143 22.523,146.800 26.338 C 101.632 40.297,63.915 70.908,41.003 112.200 C 20.023 150.011,13.307 194.863,22.256 237.400 C 23.078 241.305,24.387 246.807,24.779 248.000 C 24.959 248.550,25.336 249.810,25.615 250.800 C 36.996 291.142,64.146 327.913,100.146 351.744 C 103.350 353.865,106.061 355.600,106.170 355.600 C 106.279 355.600,107.963 356.557,109.912 357.726 C 113.227 359.715,123.008 364.685,126.600 366.205 C 134.964 369.745,145.751 373.570,152.200 375.283 C 153.080 375.517,154.340 375.861,155.000 376.047 C 176.502 382.126,207.449 383.235,232.200 378.815 C 236.881 377.978,242.175 376.823,245.400 375.933 C 246.280 375.690,247.540 375.347,248.200 375.169 C 251.287 374.339,261.713 370.941,264.400 369.889 C 269.030 368.078,271.240 367.181,273.200 366.317 C 320.626 345.433,357.429 304.514,372.961 255.400 C 374.004 252.100,375.049 248.680,375.283 247.800 C 375.517 246.920,375.861 245.660,376.047 245.000 C 377.913 238.399,379.655 228.403,380.821 217.600 C 382.844 198.858,380.771 172.136,375.933 154.600 C 375.690 153.720,375.347 152.460,375.169 151.800 C 373.461 145.451,369.656 134.755,366.205 126.600 C 364.685 123.008,359.715 113.227,357.726 109.912 C 356.557 107.963,355.600 106.279,355.600 106.170 C 355.600 106.061,353.865 103.350,351.744 100.146 C 327.913 64.146,291.142 36.996,250.800 25.615 C 249.810 25.336,248.550 24.959,248.000 24.779 C 243.283 23.230,230.010 20.675,221.200 19.621 C 210.891 18.387,195.582 18.056,186.200 18.864 M196.040 40.455 C 196.788 40.706,197.760 41.219,198.200 41.596 C 199.687 42.869,200.414 42.875,202.357 41.628 C 205.551 39.578,212.709 40.320,221.940 43.659 C 232.832 47.598,239.439 50.700,250.200 56.930 C 256.419 60.530,258.714 64.320,265.132 81.600 C 268.019 89.370,273.820 107.340,275.824 114.720 C 277.184 119.726,277.270 119.552,266.894 132.796 C 257.876 144.305,246.444 158.790,245.266 160.200 C 244.741 160.829,240.440 166.281,236.271 171.601 C 235.725 172.299,231.267 178.187,225.182 186.246 C 219.884 193.264,214.296 201.420,210.175 208.149 C 205.955 215.040,204.789 215.409,201.903 210.766 C 200.393 208.338,200.277 208.338,198.786 210.761 C 195.627 215.895,194.987 215.510,188.226 204.409 C 186.219 201.113,176.682 187.353,176.022 186.800 C 175.890 186.690,174.090 184.350,172.022 181.600 C 165.141 172.454,160.669 166.687,153.100 157.200 C 144.682 146.648,144.900 146.924,134.799 134.000 C 126.769 123.726,125.647 122.242,124.900 120.905 C 123.984 119.267,124.433 115.395,126.118 110.400 C 126.452 109.410,127.570 105.900,128.603 102.600 C 132.868 88.978,135.138 82.486,138.674 73.800 C 143.729 61.382,144.660 60.251,154.400 54.692 C 158.493 52.355,170.121 46.737,172.400 45.993 C 172.950 45.814,175.110 45.046,177.200 44.287 C 179.290 43.528,182.890 42.448,185.200 41.887 C 187.510 41.326,190.120 40.691,191.000 40.475 C 193.221 39.930,194.458 39.926,196.040 40.455 M289.800 56.221 C 296.413 57.101,304.219 65.618,304.713 72.492 C 304.999 76.469,304.332 76.501,300.465 72.696 C 290.408 62.799,282.480 67.758,286.004 81.742 C 287.342 87.052,291.524 92.316,299.400 98.603 C 300.500 99.482,301.490 100.299,301.600 100.420 C 301.799 100.639,307.414 104.816,315.000 110.388 C 325.132 117.830,326.921 119.299,331.800 124.194 C 342.298 134.724,348.288 142.576,355.090 154.728 C 357.159 158.425,360.000 167.958,360.000 171.205 C 360.000 172.022,360.174 173.609,360.387 174.731 C 362.603 186.419,356.492 204.298,347.429 212.638 C 343.373 216.370,344.052 216.578,340.787 210.600 C 340.066 209.280,338.604 206.903,337.538 205.318 C 335.191 201.828,335.201 202.126,337.352 199.301 C 352.254 179.729,344.615 154.543,316.576 130.800 C 312.047 126.965,304.565 120.579,304.400 120.408 C 304.290 120.293,303.120 119.304,301.800 118.209 C 300.480 117.114,299.310 116.115,299.200 115.989 C 299.090 115.862,296.660 113.768,293.800 111.335 C 283.692 102.736,276.896 94.768,273.556 87.600 C 272.236 84.768,271.871 83.717,270.832 79.754 C 270.038 76.727,270.462 69.404,271.593 66.600 C 274.490 59.420,281.487 54.589,287.200 55.825 C 287.530 55.896,288.700 56.074,289.800 56.221 M121.888 57.832 C 135.567 64.398,132.999 85.531,116.411 102.900 C 111.158 108.400,111.743 108.195,109.570 105.300 C 108.620 104.035,106.800 101.782,105.525 100.294 L 103.208 97.588 107.740 93.094 C 114.017 86.871,115.155 84.426,115.483 76.460 C 115.904 66.220,108.562 64.448,100.428 72.827 C 96.811 76.553,95.463 76.204,96.206 71.734 C 98.128 60.161,111.574 52.883,121.888 57.832 M87.200 90.166 C 98.887 93.019,111.574 106.254,114.175 118.306 C 116.057 127.032,115.675 139.777,113.247 149.200 C 111.928 154.319,110.551 158.672,110.022 159.400 C 109.862 159.620,109.309 160.880,108.793 162.200 C 107.692 165.015,104.710 170.801,101.886 175.600 C 100.785 177.470,99.579 179.540,99.205 180.200 C 98.041 182.255,90.072 194.457,87.972 197.400 C 86.872 198.940,84.693 202.135,83.129 204.500 C 81.564 206.865,80.049 208.800,79.762 208.800 C 77.561 208.800,66.890 202.168,67.323 201.070 C 67.425 200.811,72.140 193.850,77.802 185.600 C 96.421 158.470,100.000 150.107,100.000 133.728 C 100.000 126.820,98.031 118.135,95.617 114.400 C 95.262 113.850,94.742 112.942,94.462 112.381 C 91.680 106.822,83.523 102.715,76.607 103.393 C 66.528 104.381,61.314 108.974,57.642 120.101 C 54.462 129.737,52.099 129.140,52.495 118.800 C 53.174 101.065,71.138 86.244,87.200 90.166 M326.200 91.000 C 338.748 95.253,347.137 106.366,347.488 119.200 C 347.753 128.898,345.461 129.616,342.602 120.730 C 340.084 112.902,337.834 109.445,333.439 106.650 C 327.370 102.790,318.206 102.271,312.774 105.479 C 311.714 106.105,311.633 106.078,308.921 104.159 C 305.087 101.448,300.041 97.458,300.018 97.120 C 299.951 96.090,307.556 91.755,311.400 90.632 C 312.720 90.246,313.980 89.858,314.200 89.770 C 315.590 89.210,323.229 89.993,326.200 91.000 M91.393 110.900 C 93.157 112.897,96.400 118.811,96.400 120.031 C 96.400 120.346,93.565 123.033,90.101 126.002 C 86.636 128.971,83.171 131.940,82.401 132.600 C 69.274 143.847,60.054 157.138,57.013 169.200 C 54.145 180.573,58.694 196.075,66.996 203.225 C 67.874 203.981,68.950 204.921,69.386 205.313 C 79.876 214.745,117.091 217.870,133.200 210.672 C 141.900 206.785,145.721 200.839,141.991 196.991 C 136.659 191.490,127.887 193.896,123.539 202.053 C 121.939 205.056,121.241 205.091,118.539 202.300 C 105.517 188.852,107.323 164.148,122.425 149.143 C 127.158 144.440,127.779 144.497,128.124 149.663 C 128.780 159.466,135.980 168.517,140.752 165.537 C 142.459 164.471,143.683 169.093,142.040 170.400 C 141.902 170.510,141.352 171.500,140.817 172.600 C 140.282 173.700,139.755 174.780,139.645 175.000 C 139.536 175.220,139.734 175.167,140.085 174.883 C 140.435 174.599,141.165 173.429,141.706 172.283 C 144.966 165.373,145.022 160.778,141.952 151.987 C 140.681 148.348,140.719 147.287,142.099 147.816 C 143.944 148.524,164.400 173.844,164.400 175.419 C 164.400 175.549,164.915 176.408,165.545 177.328 C 168.950 182.299,168.998 183.894,165.677 181.683 C 161.090 178.631,159.062 178.386,156.947 180.628 C 156.042 181.588,155.600 182.446,155.600 183.242 C 155.600 186.809,162.985 196.509,167.442 198.797 C 168.079 199.124,169.410 199.849,170.400 200.409 C 171.390 200.968,173.460 201.944,175.000 202.577 C 189.177 208.403,191.646 211.038,195.169 224.090 C 195.601 225.691,196.399 228.620,196.942 230.600 C 199.928 241.478,199.707 257.052,196.213 282.000 C 196.075 282.990,195.795 285.060,195.591 286.600 C 195.387 288.140,195.046 290.300,194.834 291.400 C 194.622 292.500,193.817 296.730,193.045 300.800 C 191.095 311.072,189.047 318.367,186.584 323.800 C 186.086 324.900,185.232 326.903,184.687 328.251 C 184.142 329.599,183.020 331.849,182.193 333.251 C 181.367 334.653,180.342 336.414,179.916 337.165 C 171.636 351.747,152.592 358.028,138.092 350.960 C 131.974 347.978,124.559 339.200,128.158 339.200 C 128.877 339.200,134.656 336.906,138.308 335.171 C 142.130 333.356,142.417 333.314,143.428 334.431 C 146.217 337.512,151.784 337.792,156.743 335.100 C 161.318 332.617,167.623 326.796,169.438 323.378 C 169.900 322.510,170.632 321.170,171.066 320.400 C 174.657 314.032,177.350 303.116,179.559 285.979 C 180.111 281.694,180.137 264.127,179.596 260.277 C 179.374 258.694,179.003 256.050,178.773 254.400 C 176.624 239.042,168.996 231.116,154.500 229.178 C 150.922 228.700,149.589 228.742,141.800 229.575 C 123.881 231.492,121.606 231.661,112.800 231.733 C 89.791 231.921,70.785 226.749,58.771 217.032 C 58.206 216.574,57.126 215.750,56.373 215.200 C 45.795 207.479,40.523 195.134,40.656 178.400 C 40.718 170.542,42.496 160.570,44.126 158.941 C 44.277 158.790,44.400 158.380,44.400 158.031 C 44.400 157.484,45.664 155.099,49.757 147.922 C 52.983 142.265,64.989 127.846,71.200 122.171 C 76.580 117.254,87.694 108.857,88.869 108.821 C 89.237 108.809,90.373 109.745,91.393 110.900 M295.821 115.000 L 301.649 119.800 301.453 121.400 C 301.346 122.280,300.978 124.620,300.636 126.600 C 298.521 138.845,302.092 154.505,309.940 167.399 C 310.743 168.718,317.503 178.708,324.962 189.599 C 332.422 200.490,338.884 210.030,339.324 210.800 C 340.843 213.460,342.237 216.205,342.778 217.600 C 343.076 218.370,343.554 219.540,343.840 220.200 C 344.948 222.757,346.821 229.032,347.404 232.142 C 347.740 233.934,348.197 236.310,348.419 237.421 C 349.547 243.076,348.763 257.501,346.942 264.600 C 345.579 269.916,341.583 279.882,340.447 280.800 C 340.311 280.910,339.483 282.080,338.606 283.400 C 336.270 286.919,330.324 292.702,326.191 295.476 C 322.842 297.724,316.844 301.014,316.620 300.726 C 316.567 300.657,316.295 299.430,316.017 298.000 C 315.383 294.739,314.975 293.356,313.541 289.600 C 311.912 285.332,311.821 285.610,315.532 283.526 C 325.725 277.801,332.184 265.760,332.659 251.600 C 333.244 234.129,327.047 218.140,311.080 195.923 C 308.909 192.903,300.800 180.525,300.800 180.231 C 300.800 180.149,300.107 178.938,299.259 177.541 C 298.412 176.143,297.086 173.830,296.314 172.400 C 295.541 170.970,294.325 168.720,293.612 167.400 C 292.898 166.080,291.779 163.650,291.125 162.000 C 290.471 160.350,289.687 158.460,289.384 157.800 C 283.932 145.934,283.117 122.135,287.823 112.187 C 289.157 109.367,288.853 109.260,295.821 115.000 M278.471 149.026 C 281.827 152.332,284.784 156.567,286.656 160.748 C 287.408 162.427,288.198 164.160,288.411 164.600 C 294.028 176.177,290.898 194.371,281.856 202.706 C 279.490 204.887,279.235 204.851,277.613 202.100 C 272.060 192.685,259.828 190.926,257.594 199.222 C 254.425 210.990,288.895 218.805,314.800 212.191 C 319.797 210.915,319.299 210.764,320.993 214.063 C 321.822 215.678,322.635 217.180,322.798 217.400 C 323.593 218.468,326.379 225.375,326.109 225.609 C 323.505 227.856,308.971 230.808,296.600 231.603 C 289.305 232.072,275.740 231.513,267.000 230.384 C 259.314 229.392,257.143 229.168,252.896 228.935 C 239.638 228.207,230.242 232.968,225.535 242.800 C 220.339 253.651,219.331 274.966,222.976 296.901 C 224.065 303.459,224.190 302.852,221.480 304.178 C 219.328 305.231,217.036 306.983,213.278 310.445 C 211.375 312.198,210.400 312.790,210.400 312.193 C 210.400 312.079,210.062 310.684,209.649 309.093 C 209.236 307.502,208.412 303.590,207.818 300.400 C 207.224 297.210,206.468 293.250,206.139 291.600 C 205.810 289.950,205.376 287.160,205.175 285.400 C 204.975 283.640,204.622 280.850,204.393 279.200 C 201.194 256.204,201.172 240.136,204.325 229.200 C 204.547 228.430,205.118 226.360,205.595 224.600 C 209.292 210.943,211.177 208.801,224.600 202.996 C 235.324 198.358,239.788 194.682,243.933 187.075 C 247.528 180.480,242.742 176.731,236.165 180.991 C 231.604 183.946,231.552 183.519,235.646 176.720 C 238.646 171.740,245.526 162.237,247.173 160.800 C 247.486 160.527,253.792 153.174,256.349 150.100 C 260.064 145.635,260.767 146.612,258.519 153.116 C 256.777 158.158,256.392 165.387,257.695 168.600 L 258.344 170.200 258.372 167.767 C 258.406 164.794,258.502 164.687,260.429 165.458 C 265.771 167.596,272.800 158.331,272.800 149.154 C 272.800 144.349,273.704 144.329,278.471 149.026 M258.695 170.239 C 258.562 170.371,258.659 170.957,258.911 171.540 C 259.514 172.938,261.202 175.494,261.191 174.993 C 261.174 174.258,258.937 169.997,258.695 170.239 M60.668 220.142 C 62.391 221.321,65.465 223.139,67.500 224.183 C 71.663 226.319,71.678 226.348,70.439 229.973 C 59.066 263.252,76.313 289.564,110.200 290.636 L 116.200 290.826 116.460 293.313 C 116.603 294.681,116.854 298.394,117.017 301.564 L 117.314 307.329 110.557 307.068 C 78.685 305.838,55.849 287.108,52.025 259.059 C 51.789 257.332,51.502 255.765,51.386 255.577 C 50.997 254.949,51.161 239.995,51.583 237.583 C 51.812 236.272,52.196 234.085,52.435 232.723 C 52.883 230.174,54.545 224.020,55.168 222.600 C 55.361 222.160,55.748 221.170,56.027 220.400 C 57.074 217.511,56.840 217.524,60.668 220.142 M161.200 231.873 C 165.927 233.411,172.980 240.138,171.604 241.796 C 171.358 242.092,169.412 242.629,167.278 242.989 C 158.614 244.452,156.692 245.334,146.915 252.326 C 126.768 266.736,118.278 274.135,111.489 283.201 C 109.900 285.322,108.240 287.528,107.800 288.101 C 106.925 289.242,107.200 289.245,100.279 288.039 C 96.783 287.430,91.168 285.583,90.931 284.964 C 90.710 284.389,94.062 278.528,96.167 275.806 C 102.882 267.127,114.143 255.909,127.247 244.847 L 136.295 237.209 136.508 235.320 C 136.818 232.572,137.500 232.183,142.668 231.817 C 156.472 230.840,158.041 230.844,161.200 231.873 M254.268 231.613 C 256.286 231.826,258.752 232.000,259.749 232.000 C 262.427 232.000,263.541 232.645,263.826 234.361 C 263.958 235.153,264.186 236.189,264.333 236.663 C 264.480 237.138,267.969 240.341,272.088 243.781 C 276.206 247.221,279.650 250.163,279.742 250.318 C 279.834 250.473,278.917 252.220,277.705 254.200 C 276.492 256.180,274.787 259.419,273.915 261.398 C 273.043 263.377,272.138 265.115,271.903 265.260 C 271.564 265.469,267.094 262.413,263.208 259.315 C 261.989 258.344,257.272 254.912,251.998 251.160 C 244.071 245.520,241.703 244.433,235.000 243.357 C 227.770 242.197,227.363 241.598,231.078 237.585 C 236.801 231.404,241.295 230.246,254.268 231.613 M105.200 240.898 C 110.270 242.463,118.400 248.015,118.400 249.914 C 118.400 250.255,113.656 254.932,110.488 257.716 L 108.776 259.220 106.528 256.791 C 98.103 247.692,89.071 249.526,87.775 260.600 C 87.484 263.090,86.376 265.200,85.359 265.200 C 79.475 265.200,78.592 248.220,84.219 243.267 C 88.033 239.909,98.255 238.755,105.200 240.898 M310.842 240.341 C 311.369 240.547,312.555 240.941,313.478 241.215 C 319.782 243.088,322.951 254.648,319.183 262.033 C 317.127 266.063,313.207 265.310,313.201 260.882 C 313.195 255.125,310.394 251.197,306.300 251.204 C 294.878 251.224,286.763 262.871,284.006 283.200 C 283.234 288.893,283.266 288.802,282.068 288.784 C 279.842 288.752,269.856 286.279,269.041 285.559 C 268.707 285.264,268.891 283.947,270.071 278.200 C 274.048 258.833,283.530 244.565,294.800 240.988 C 299.025 239.648,308.140 239.280,310.842 240.341 M173.061 245.788 C 176.845 248.438,179.478 268.664,176.610 273.042 C 176.302 273.510,174.916 274.747,173.528 275.791 C 170.805 277.838,168.480 279.786,163.428 284.257 C 161.653 285.828,158.133 288.943,155.606 291.177 C 148.884 297.124,143.802 300.407,137.283 303.014 C 135.043 303.910,135.065 303.951,134.739 298.276 C 134.586 295.594,134.332 291.774,134.176 289.787 L 133.893 286.174 136.646 284.797 C 152.028 277.105,160.000 266.202,160.000 252.856 C 160.000 247.908,160.001 247.907,163.601 246.231 C 166.230 245.007,171.588 244.756,173.061 245.788 M236.399 246.231 C 240.018 247.916,240.000 247.882,240.000 253.069 C 240.000 272.956,260.568 289.438,286.993 290.727 L 292.587 291.000 293.549 292.746 C 295.406 296.116,296.400 299.832,296.400 303.401 L 296.400 306.725 292.501 307.018 C 279.761 307.973,265.469 305.274,257.082 300.330 C 256.028 299.709,255.061 299.200,254.933 299.200 C 254.052 299.200,248.346 294.614,239.006 286.400 C 235.577 283.384,228.292 277.132,227.353 276.400 C 226.930 276.070,225.894 275.281,225.050 274.647 C 222.670 272.859,222.267 271.468,222.320 265.200 C 222.391 256.594,224.567 247.449,226.939 245.788 C 228.412 244.756,233.770 245.007,236.399 246.231 M303.363 274.600 C 317.441 293.327,318.702 310.071,307.343 327.445 C 301.413 336.516,294.318 340.307,284.100 339.863 C 275.411 339.486,275.535 339.600,277.761 334.015 C 278.510 332.137,279.553 329.172,280.079 327.428 L 281.035 324.255 283.313 323.738 C 294.015 321.307,300.730 307.810,296.814 296.600 C 295.182 291.929,289.649 282.873,287.160 280.800 C 285.530 279.442,287.503 270.802,290.942 264.235 L 292.181 261.870 296.118 266.035 C 298.284 268.326,301.544 272.180,303.363 274.600 M128.924 270.313 C 129.039 270.911,129.338 272.120,129.587 273.000 C 131.377 279.332,132.803 289.934,133.596 302.800 C 133.819 306.430,134.215 311.084,134.476 313.142 L 134.949 316.884 133.975 317.627 C 131.515 319.501,125.826 321.820,122.603 322.262 L 120.929 322.491 120.485 320.146 C 119.680 315.894,119.218 311.883,118.806 305.600 C 117.638 287.752,117.534 286.597,116.595 280.982 L 116.324 279.364 122.003 273.867 C 127.949 268.113,128.448 267.857,128.924 270.313 M172.935 303.462 C 173.779 303.602,174.572 303.983,174.697 304.309 C 175.138 305.457,172.737 313.356,170.658 317.600 C 170.202 318.530,169.997 318.591,167.713 318.465 C 165.239 318.329,160.939 319.052,160.558 319.668 C 160.445 319.850,160.096 320.000,159.782 320.000 C 159.008 320.000,155.630 322.092,152.000 324.820 C 133.446 338.765,115.528 343.407,103.548 337.374 C 98.840 335.003,92.670 328.042,89.920 322.000 C 87.422 316.510,86.212 312.207,85.801 307.347 C 85.457 303.288,85.261 303.369,91.004 305.199 C 93.642 306.039,97.414 307.060,99.386 307.467 C 102.928 308.197,102.977 308.224,103.365 309.603 C 105.675 317.802,112.844 323.833,120.200 323.765 C 126.464 323.706,129.123 322.576,139.758 315.447 C 154.889 305.305,164.053 301.995,172.935 303.462 M241.675 304.955 C 247.546 307.017,263.001 316.018,263.730 317.800 C 264.365 319.352,259.227 331.200,257.918 331.200 C 257.445 331.200,253.410 328.472,249.455 325.477 C 238.236 316.982,231.566 316.232,222.400 322.437 C 209.629 331.081,209.489 345.981,222.086 356.000 C 226.063 359.164,226.337 359.828,223.893 360.379 C 217.694 361.777,210.635 358.004,207.378 351.551 C 200.417 337.757,201.839 323.595,211.093 314.548 C 218.440 307.365,222.278 304.751,227.400 303.440 C 229.987 302.778,237.854 303.613,241.675 304.955 M272.800 307.413 C 274.010 307.702,276.260 308.061,277.800 308.211 C 281.476 308.567,281.992 308.864,281.787 310.501 C 281.698 311.215,281.436 313.330,281.206 315.200 C 280.151 323.756,278.172 331.757,275.864 336.800 C 265.263 359.962,234.748 359.550,220.503 336.052 C 219.786 334.870,219.200 333.831,219.200 333.744 C 219.200 333.656,218.750 332.871,218.200 332.000 C 216.801 329.784,216.882 329.503,219.753 326.632 C 225.361 321.024,229.668 319.654,231.383 322.933 C 233.555 327.085,240.189 333.124,245.200 335.512 C 247.845 336.772,253.040 337.030,255.037 336.001 C 260.507 333.181,265.841 321.768,266.628 311.200 C 267.037 305.711,266.658 305.943,272.800 307.413 M194.542 320.988 C 200.768 333.287,196.308 354.101,186.421 358.887 C 182.956 360.564,174.800 361.048,174.800 359.576 C 174.800 359.395,175.921 358.292,177.291 357.124 C 187.076 348.783,189.835 341.730,186.673 333.137 L 185.546 330.075 186.332 328.337 C 187.744 325.214,188.443 323.446,189.469 320.400 C 191.095 315.571,191.844 315.658,194.542 320.988 " stroke="none" fill="#f9f9f9" fill-rule="evenodd"></path><path id="path1" d="M182.200 2.447 C 180.220 2.615,177.250 2.864,175.600 2.999 C 173.950 3.134,172.240 3.406,171.800 3.603 C 171.360 3.800,170.010 4.063,168.800 4.187 C 164.013 4.679,162.800 4.892,162.800 5.239 C 162.800 5.437,161.900 5.600,160.800 5.600 C 159.700 5.600,158.800 5.780,158.800 6.000 C 158.800 6.220,158.091 6.400,157.224 6.400 C 156.357 6.400,155.552 6.555,155.435 6.744 C 155.318 6.933,154.182 7.208,152.911 7.356 C 150.601 7.626,148.414 8.188,147.105 8.849 C 146.723 9.042,145.868 9.200,145.205 9.200 C 144.542 9.200,144.000 9.380,144.000 9.600 C 144.000 9.820,143.471 10.000,142.824 10.000 C 142.177 10.000,141.536 10.180,141.400 10.400 C 141.264 10.620,140.724 10.800,140.200 10.800 C 139.676 10.800,139.136 10.980,139.000 11.200 C 138.864 11.420,138.313 11.600,137.776 11.600 C 137.239 11.600,136.800 11.780,136.800 12.000 C 136.800 12.220,136.494 12.400,136.120 12.400 C 135.038 12.400,130.800 13.745,130.800 14.089 C 130.800 14.260,130.476 14.400,130.080 14.400 C 129.186 14.400,127.207 15.294,127.203 15.700 C 127.201 15.865,126.660 16.000,126.000 16.000 C 125.340 16.000,124.800 16.180,124.800 16.400 C 124.800 16.620,124.440 16.800,124.000 16.800 C 123.560 16.800,123.200 16.980,123.200 17.200 C 123.200 17.420,122.813 17.600,122.340 17.600 C 121.415 17.600,117.087 19.565,116.867 20.085 C 116.793 20.258,116.424 20.400,116.046 20.400 C 115.179 20.400,113.207 21.302,113.203 21.700 C 113.201 21.865,112.943 22.000,112.629 22.000 C 112.315 22.000,110.830 22.654,109.329 23.454 C 107.828 24.254,106.196 25.109,105.703 25.354 C 105.210 25.599,104.805 25.935,104.803 26.100 C 104.801 26.265,104.440 26.400,104.000 26.400 C 103.560 26.400,103.200 26.544,103.200 26.720 C 103.200 26.895,102.572 27.266,101.804 27.544 C 101.037 27.822,100.182 28.263,99.904 28.524 C 99.627 28.786,98.860 29.269,98.200 29.597 C 97.540 29.926,96.709 30.511,96.353 30.897 C 95.997 31.284,95.412 31.600,95.053 31.600 C 94.694 31.600,94.400 31.777,94.400 31.992 C 94.400 32.208,93.950 32.498,93.400 32.636 C 92.850 32.774,92.400 33.047,92.400 33.243 C 92.400 33.440,92.164 33.600,91.875 33.600 C 91.587 33.600,90.964 33.960,90.492 34.400 C 90.020 34.840,89.491 35.200,89.317 35.201 C 89.143 35.201,88.370 35.742,87.600 36.403 C 86.830 37.063,85.885 37.705,85.500 37.829 C 85.115 37.953,84.800 38.222,84.800 38.427 C 84.800 38.632,84.532 38.800,84.203 38.800 C 83.875 38.800,83.382 39.160,83.107 39.600 C 82.832 40.040,82.415 40.400,82.179 40.400 C 81.944 40.400,81.402 40.720,80.975 41.112 C 80.549 41.504,79.484 42.359,78.609 43.012 C 77.734 43.665,76.492 44.695,75.850 45.300 C 75.207 45.905,74.506 46.400,74.293 46.400 C 74.079 46.400,73.128 47.210,72.179 48.200 C 71.231 49.190,70.272 50.000,70.050 50.000 C 69.520 50.000,50.000 69.520,50.000 70.050 C 50.000 70.272,49.190 71.231,48.200 72.179 C 47.210 73.128,46.400 74.079,46.400 74.293 C 46.400 74.506,45.905 75.207,45.300 75.850 C 44.695 76.492,43.665 77.734,43.012 78.609 C 42.359 79.484,41.504 80.549,41.112 80.975 C 40.720 81.402,40.400 81.944,40.400 82.179 C 40.400 82.415,40.040 82.832,39.600 83.107 C 39.160 83.382,38.800 83.875,38.800 84.203 C 38.800 84.532,38.632 84.800,38.427 84.800 C 38.222 84.800,37.953 85.115,37.829 85.500 C 37.705 85.885,37.063 86.830,36.403 87.600 C 35.742 88.370,35.201 89.143,35.201 89.317 C 35.200 89.491,34.840 90.020,34.400 90.492 C 33.960 90.964,33.600 91.587,33.600 91.875 C 33.600 92.164,33.440 92.400,33.243 92.400 C 33.047 92.400,32.774 92.850,32.636 93.400 C 32.498 93.950,32.208 94.400,31.992 94.400 C 31.777 94.400,31.600 94.694,31.600 95.053 C 31.600 95.412,31.284 95.997,30.897 96.353 C 30.511 96.709,29.926 97.540,29.597 98.200 C 29.269 98.860,28.786 99.627,28.524 99.904 C 28.263 100.182,27.822 101.037,27.544 101.804 C 27.266 102.572,26.895 103.200,26.720 103.200 C 26.544 103.200,26.400 103.560,26.400 104.000 C 26.400 104.440,26.265 104.801,26.100 104.803 C 25.935 104.805,25.599 105.210,25.354 105.703 C 25.109 106.196,24.254 107.828,23.454 109.329 C 22.654 110.830,22.000 112.315,22.000 112.629 C 22.000 112.943,21.865 113.201,21.700 113.203 C 21.302 113.207,20.400 115.179,20.400 116.046 C 20.400 116.424,20.258 116.793,20.085 116.867 C 19.565 117.087,17.600 121.415,17.600 122.340 C 17.600 122.813,17.420 123.200,17.200 123.200 C 16.980 123.200,16.800 123.560,16.800 124.000 C 16.800 124.440,16.620 124.800,16.400 124.800 C 16.180 124.800,16.000 125.340,16.000 126.000 C 16.000 126.660,15.865 127.201,15.700 127.203 C 15.294 127.207,14.400 129.186,14.400 130.080 C 14.400 130.476,14.260 130.800,14.089 130.800 C 13.745 130.800,12.400 135.038,12.400 136.120 C 12.400 136.494,12.220 136.800,12.000 136.800 C 11.780 136.800,11.600 137.239,11.600 137.776 C 11.600 138.313,11.420 138.864,11.200 139.000 C 10.980 139.136,10.800 139.676,10.800 140.200 C 10.800 140.724,10.620 141.264,10.400 141.400 C 10.180 141.536,10.000 142.177,10.000 142.824 C 10.000 143.471,9.820 144.000,9.600 144.000 C 9.380 144.000,9.200 144.542,9.200 145.205 C 9.200 145.868,9.042 146.723,8.849 147.105 C 8.188 148.414,7.626 150.601,7.356 152.911 C 7.208 154.182,6.933 155.318,6.744 155.435 C 6.555 155.552,6.400 156.357,6.400 157.224 C 6.400 158.091,6.220 158.800,6.000 158.800 C 5.780 158.800,5.600 159.700,5.600 160.800 C 5.600 161.900,5.437 162.800,5.239 162.800 C 4.897 162.800,4.697 163.956,4.181 168.900 C 4.060 170.055,3.797 171.360,3.596 171.800 C 3.395 172.240,3.145 173.770,3.041 175.200 C 2.936 176.630,2.672 179.870,2.453 182.400 C 1.939 188.348,1.939 211.652,2.453 217.600 C 2.672 220.130,2.936 223.370,3.041 224.800 C 3.145 226.230,3.395 227.760,3.596 228.200 C 3.797 228.640,4.060 229.945,4.181 231.100 C 4.697 236.044,4.897 237.200,5.239 237.200 C 5.437 237.200,5.600 238.100,5.600 239.200 C 5.600 240.300,5.780 241.200,6.000 241.200 C 6.220 241.200,6.400 241.909,6.400 242.776 C 6.400 243.643,6.555 244.448,6.744 244.565 C 6.933 244.682,7.208 245.818,7.356 247.089 C 7.626 249.399,8.188 251.586,8.849 252.895 C 9.042 253.277,9.200 254.132,9.200 254.795 C 9.200 255.458,9.380 256.000,9.600 256.000 C 9.820 256.000,10.000 256.529,10.000 257.176 C 10.000 257.823,10.180 258.464,10.400 258.600 C 10.620 258.736,10.800 259.276,10.800 259.800 C 10.800 260.324,10.980 260.864,11.200 261.000 C 11.420 261.136,11.600 261.687,11.600 262.224 C 11.600 262.761,11.780 263.200,12.000 263.200 C 12.220 263.200,12.400 263.506,12.400 263.880 C 12.400 264.962,13.745 269.200,14.089 269.200 C 14.260 269.200,14.400 269.524,14.400 269.920 C 14.400 270.814,15.294 272.793,15.700 272.797 C 15.865 272.799,16.000 273.340,16.000 274.000 C 16.000 274.660,16.180 275.200,16.400 275.200 C 16.620 275.200,16.800 275.560,16.800 276.000 C 16.800 276.440,16.980 276.800,17.200 276.800 C 17.420 276.800,17.600 277.187,17.600 277.660 C 17.600 278.585,19.565 282.913,20.085 283.133 C 20.258 283.207,20.400 283.576,20.400 283.954 C 20.400 284.821,21.302 286.793,21.700 286.797 C 21.865 286.799,22.000 287.057,22.000 287.371 C 22.000 287.685,22.654 289.170,23.454 290.671 C 24.254 292.172,25.109 293.804,25.354 294.297 C 25.599 294.790,25.935 295.195,26.100 295.197 C 26.265 295.199,26.400 295.560,26.400 296.000 C 26.400 296.440,26.544 296.800,26.720 296.800 C 26.895 296.800,27.266 297.428,27.544 298.196 C 27.822 298.963,28.263 299.818,28.524 300.096 C 28.786 300.373,29.269 301.140,29.597 301.800 C 29.926 302.460,30.511 303.291,30.897 303.647 C 31.284 304.003,31.600 304.588,31.600 304.947 C 31.600 305.306,31.777 305.600,31.992 305.600 C 32.208 305.600,32.498 306.050,32.636 306.600 C 32.774 307.150,33.047 307.600,33.243 307.600 C 33.440 307.600,33.600 307.836,33.600 308.125 C 33.600 308.413,33.960 309.036,34.400 309.508 C 34.840 309.980,35.200 310.509,35.201 310.683 C 35.201 310.857,35.742 311.630,36.403 312.400 C 37.063 313.170,37.705 314.115,37.829 314.500 C 37.953 314.885,38.222 315.200,38.427 315.200 C 38.632 315.200,38.800 315.391,38.800 315.623 C 38.800 315.980,40.916 318.962,41.621 319.600 C 41.743 319.710,42.373 320.516,43.021 321.391 C 43.670 322.266,44.695 323.508,45.300 324.150 C 45.905 324.793,46.400 325.494,46.400 325.707 C 46.400 325.921,47.210 326.872,48.200 327.821 C 49.190 328.769,50.000 329.731,50.000 329.958 C 50.000 330.492,69.514 350.000,70.049 350.000 C 70.272 350.000,71.231 350.810,72.179 351.800 C 73.128 352.790,74.079 353.600,74.293 353.600 C 74.506 353.600,75.207 354.095,75.850 354.700 C 76.492 355.305,77.734 356.335,78.609 356.988 C 79.484 357.641,80.549 358.496,80.975 358.888 C 81.402 359.280,81.944 359.600,82.179 359.600 C 82.415 359.600,82.832 359.960,83.107 360.400 C 83.382 360.840,83.875 361.200,84.203 361.200 C 84.532 361.200,84.800 361.368,84.800 361.573 C 84.800 361.778,85.115 362.047,85.500 362.171 C 85.885 362.295,86.830 362.937,87.600 363.597 C 88.370 364.258,89.143 364.799,89.317 364.799 C 89.491 364.800,90.020 365.160,90.492 365.600 C 90.964 366.040,91.587 366.400,91.875 366.400 C 92.164 366.400,92.400 366.560,92.400 366.757 C 92.400 366.953,92.850 367.226,93.400 367.364 C 93.950 367.502,94.400 367.792,94.400 368.008 C 94.400 368.223,94.694 368.400,95.053 368.400 C 95.412 368.400,95.997 368.716,96.353 369.103 C 96.709 369.489,97.540 370.074,98.200 370.403 C 98.860 370.731,99.627 371.214,99.904 371.476 C 100.182 371.737,101.037 372.178,101.804 372.456 C 102.572 372.734,103.200 373.105,103.200 373.280 C 103.200 373.456,103.560 373.600,104.000 373.600 C 104.440 373.600,104.800 373.759,104.800 373.953 C 104.800 374.148,105.115 374.412,105.500 374.541 C 105.885 374.670,107.460 375.497,109.000 376.378 C 110.540 377.259,112.115 377.985,112.500 377.990 C 112.885 377.996,113.201 378.135,113.203 378.300 C 113.207 378.698,115.179 379.600,116.046 379.600 C 116.424 379.600,116.793 379.742,116.867 379.915 C 117.087 380.435,121.415 382.400,122.340 382.400 C 122.813 382.400,123.200 382.580,123.200 382.800 C 123.200 383.020,123.560 383.200,124.000 383.200 C 124.440 383.200,124.800 383.380,124.800 383.600 C 124.800 383.820,125.340 384.000,126.000 384.000 C 126.660 384.000,127.201 384.135,127.203 384.300 C 127.207 384.706,129.186 385.600,130.080 385.600 C 130.476 385.600,130.800 385.740,130.800 385.911 C 130.800 386.255,135.038 387.600,136.120 387.600 C 136.494 387.600,136.800 387.780,136.800 388.000 C 136.800 388.220,137.239 388.400,137.776 388.400 C 138.313 388.400,138.864 388.580,139.000 388.800 C 139.136 389.020,139.676 389.200,140.200 389.200 C 140.724 389.200,141.264 389.380,141.400 389.600 C 141.536 389.820,142.177 390.000,142.824 390.000 C 143.471 390.000,144.000 390.180,144.000 390.400 C 144.000 390.620,144.542 390.800,145.205 390.800 C 145.868 390.800,146.723 390.958,147.105 391.151 C 148.414 391.812,150.601 392.374,152.911 392.644 C 154.182 392.792,155.318 393.067,155.435 393.256 C 155.552 393.445,156.357 393.600,157.224 393.600 C 158.091 393.600,158.800 393.780,158.800 394.000 C 158.800 394.220,159.700 394.400,160.800 394.400 C 161.900 394.400,162.800 394.563,162.800 394.761 C 162.800 395.103,164.064 395.317,169.200 395.844 C 170.410 395.969,171.571 396.235,171.780 396.435 C 171.989 396.636,173.348 396.800,174.800 396.800 C 176.379 396.800,177.641 397.001,177.940 397.300 C 178.668 398.028,221.332 398.028,222.060 397.300 C 222.359 397.001,223.621 396.800,225.200 396.800 C 226.652 396.800,228.011 396.636,228.220 396.435 C 228.429 396.235,229.590 395.969,230.800 395.844 C 235.936 395.317,237.200 395.103,237.200 394.761 C 237.200 394.563,238.100 394.400,239.200 394.400 C 240.300 394.400,241.200 394.220,241.200 394.000 C 241.200 393.780,241.909 393.600,242.776 393.600 C 243.643 393.600,244.448 393.445,244.565 393.256 C 244.682 393.067,245.818 392.792,247.089 392.644 C 249.399 392.374,251.586 391.812,252.895 391.151 C 253.277 390.958,254.132 390.800,254.795 390.800 C 255.458 390.800,256.000 390.620,256.000 390.400 C 256.000 390.180,256.529 390.000,257.176 390.000 C 257.823 390.000,258.464 389.820,258.600 389.600 C 258.736 389.380,259.276 389.200,259.800 389.200 C 260.324 389.200,260.864 389.020,261.000 388.800 C 261.136 388.580,261.687 388.400,262.224 388.400 C 262.761 388.400,263.200 388.220,263.200 388.000 C 263.200 387.780,263.506 387.600,263.880 387.600 C 264.962 387.600,269.200 386.255,269.200 385.911 C 269.200 385.740,269.524 385.600,269.920 385.600 C 270.814 385.600,272.793 384.706,272.797 384.300 C 272.799 384.135,273.340 384.000,274.000 384.000 C 274.660 384.000,275.200 383.820,275.200 383.600 C 275.200 383.380,275.560 383.200,276.000 383.200 C 276.440 383.200,276.800 383.020,276.800 382.800 C 276.800 382.580,277.205 382.399,277.700 382.398 C 278.195 382.396,279.116 382.126,279.746 381.798 C 280.376 381.469,281.141 381.200,281.446 381.200 C 281.751 381.200,282.000 381.020,282.000 380.800 C 282.000 380.580,282.270 380.400,282.600 380.400 C 282.930 380.400,283.200 380.220,283.200 380.000 C 283.200 379.780,283.524 379.600,283.920 379.600 C 284.814 379.600,286.793 378.706,286.797 378.300 C 286.799 378.135,287.115 377.996,287.500 377.990 C 287.885 377.985,289.460 377.259,291.000 376.378 C 292.540 375.497,294.115 374.670,294.500 374.541 C 294.885 374.412,295.200 374.148,295.200 373.953 C 295.200 373.759,295.560 373.600,296.000 373.600 C 296.440 373.600,296.801 373.465,296.801 373.300 C 296.802 373.135,297.612 372.667,298.601 372.260 C 299.591 371.854,300.400 371.359,300.400 371.160 C 300.400 370.962,300.760 370.800,301.200 370.800 C 301.640 370.800,302.000 370.620,302.000 370.400 C 302.000 370.180,302.230 370.000,302.512 370.000 C 302.793 370.000,303.283 369.640,303.600 369.200 C 303.917 368.760,304.497 368.400,304.888 368.400 C 305.280 368.400,305.600 368.223,305.600 368.008 C 305.600 367.792,306.050 367.502,306.600 367.364 C 307.150 367.226,307.600 366.953,307.600 366.757 C 307.600 366.560,307.836 366.400,308.125 366.400 C 308.413 366.400,309.036 366.040,309.508 365.600 C 309.980 365.160,310.509 364.800,310.683 364.799 C 310.857 364.799,311.630 364.258,312.400 363.597 C 313.170 362.937,314.115 362.295,314.500 362.171 C 314.885 362.047,315.200 361.778,315.200 361.573 C 315.200 361.368,315.391 361.200,315.623 361.200 C 315.981 361.200,318.137 359.668,319.846 358.200 C 320.102 357.980,320.808 357.440,321.414 357.000 C 322.021 356.560,323.156 355.615,323.937 354.900 C 324.718 354.185,325.523 353.600,325.726 353.600 C 325.930 353.600,326.872 352.790,327.821 351.800 C 328.769 350.810,329.731 350.000,329.958 350.000 C 330.498 350.000,350.000 330.498,350.000 329.958 C 350.000 329.731,350.810 328.769,351.800 327.821 C 352.790 326.872,353.600 325.930,353.600 325.726 C 353.600 325.523,354.185 324.718,354.900 323.937 C 355.615 323.156,356.560 322.021,357.000 321.414 C 357.440 320.808,357.980 320.102,358.200 319.846 C 359.668 318.137,361.200 315.981,361.200 315.623 C 361.200 315.391,361.368 315.200,361.573 315.200 C 361.778 315.200,362.047 314.885,362.171 314.500 C 362.295 314.115,362.937 313.170,363.597 312.400 C 364.258 311.630,364.799 310.857,364.799 310.683 C 364.800 310.509,365.160 309.980,365.600 309.508 C 366.040 309.036,366.400 308.413,366.400 308.125 C 366.400 307.836,366.560 307.600,366.757 307.600 C 366.953 307.600,367.226 307.150,367.364 306.600 C 367.502 306.050,367.792 305.600,368.008 305.600 C 368.223 305.600,368.400 305.280,368.400 304.888 C 368.400 304.497,368.760 303.917,369.200 303.600 C 369.640 303.283,370.000 302.793,370.000 302.512 C 370.000 302.230,370.180 302.000,370.400 302.000 C 370.620 302.000,370.800 301.640,370.800 301.200 C 370.800 300.760,370.962 300.400,371.160 300.400 C 371.359 300.400,371.854 299.591,372.260 298.601 C 372.667 297.612,373.135 296.802,373.300 296.801 C 373.465 296.801,373.600 296.440,373.600 296.000 C 373.600 295.560,373.759 295.200,373.953 295.200 C 374.148 295.200,374.412 294.885,374.541 294.500 C 374.670 294.115,375.497 292.540,376.378 291.000 C 377.259 289.460,377.985 287.885,377.990 287.500 C 377.996 287.115,378.135 286.799,378.300 286.797 C 378.706 286.793,379.600 284.814,379.600 283.920 C 379.600 283.524,379.780 283.200,380.000 283.200 C 380.220 283.200,380.400 282.930,380.400 282.600 C 380.400 282.270,380.580 282.000,380.800 282.000 C 381.020 282.000,381.200 281.751,381.200 281.446 C 381.200 281.141,381.469 280.376,381.798 279.746 C 382.126 279.116,382.396 278.195,382.398 277.700 C 382.399 277.205,382.580 276.800,382.800 276.800 C 383.020 276.800,383.200 276.440,383.200 276.000 C 383.200 275.560,383.380 275.200,383.600 275.200 C 383.820 275.200,384.000 274.660,384.000 274.000 C 384.000 273.340,384.135 272.799,384.300 272.797 C 384.706 272.793,385.600 270.814,385.600 269.920 C 385.600 269.524,385.740 269.200,385.911 269.200 C 386.255 269.200,387.600 264.962,387.600 263.880 C 387.600 263.506,387.780 263.200,388.000 263.200 C 388.220 263.200,388.400 262.761,388.400 262.224 C 388.400 261.687,388.580 261.136,388.800 261.000 C 389.020 260.864,389.200 260.324,389.200 259.800 C 389.200 259.276,389.380 258.736,389.600 258.600 C 389.820 258.464,390.000 257.823,390.000 257.176 C 390.000 256.529,390.180 256.000,390.400 256.000 C 390.620 256.000,390.800 255.458,390.800 254.795 C 390.800 254.132,390.958 253.277,391.151 252.895 C 391.812 251.586,392.374 249.399,392.644 247.089 C 392.792 245.818,393.067 244.682,393.256 244.565 C 393.445 244.448,393.600 243.643,393.600 242.776 C 393.600 241.909,393.780 241.200,394.000 241.200 C 394.220 241.200,394.400 240.300,394.400 239.200 C 394.400 238.100,394.563 237.200,394.761 237.200 C 395.103 237.200,395.317 235.936,395.844 230.800 C 395.969 229.590,396.235 228.429,396.435 228.220 C 396.636 228.011,396.800 226.652,396.800 225.200 C 396.800 223.621,397.001 222.359,397.300 222.060 C 397.688 221.672,397.800 216.715,397.800 200.000 C 397.800 183.285,397.688 178.328,397.300 177.940 C 397.001 177.641,396.800 176.379,396.800 174.800 C 396.800 173.348,396.636 171.989,396.435 171.780 C 396.235 171.571,395.969 170.410,395.844 169.200 C 395.317 164.064,395.103 162.800,394.761 162.800 C 394.563 162.800,394.400 161.900,394.400 160.800 C 394.400 159.700,394.220 158.800,394.000 158.800 C 393.780 158.800,393.600 158.091,393.600 157.224 C 393.600 156.357,393.445 155.552,393.256 155.435 C 393.067 155.318,392.792 154.182,392.644 152.911 C 392.374 150.601,391.812 148.414,391.151 147.105 C 390.958 146.723,390.800 145.868,390.800 145.205 C 390.800 144.542,390.620 144.000,390.400 144.000 C 390.180 144.000,390.000 143.471,390.000 142.824 C 390.000 142.177,389.820 141.536,389.600 141.400 C 389.380 141.264,389.200 140.724,389.200 140.200 C 389.200 139.676,389.020 139.136,388.800 139.000 C 388.580 138.864,388.400 138.313,388.400 137.776 C 388.400 137.239,388.220 136.800,388.000 136.800 C 387.780 136.800,387.600 136.494,387.600 136.120 C 387.600 135.038,386.255 130.800,385.911 130.800 C 385.740 130.800,385.600 130.476,385.600 130.080 C 385.600 129.186,384.706 127.207,384.300 127.203 C 384.135 127.201,384.000 126.660,384.000 126.000 C 384.000 125.340,383.820 124.800,383.600 124.800 C 383.380 124.800,383.200 124.440,383.200 124.000 C 383.200 123.560,383.020 123.200,382.800 123.200 C 382.580 123.200,382.400 122.813,382.400 122.340 C 382.400 121.415,380.435 117.087,379.915 116.867 C 379.742 116.793,379.600 116.424,379.600 116.046 C 379.600 115.179,378.698 113.207,378.300 113.203 C 378.135 113.201,377.996 112.885,377.990 112.500 C 377.985 112.115,377.259 110.540,376.378 109.000 C 375.497 107.460,374.670 105.885,374.541 105.500 C 374.412 105.115,374.148 104.800,373.953 104.800 C 373.759 104.800,373.600 104.440,373.600 104.000 C 373.600 103.560,373.456 103.200,373.280 103.200 C 373.105 103.200,372.734 102.572,372.456 101.804 C 372.178 101.037,371.737 100.182,371.476 99.904 C 371.214 99.627,370.731 98.860,370.403 98.200 C 370.074 97.540,369.489 96.709,369.103 96.353 C 368.716 95.997,368.400 95.412,368.400 95.053 C 368.400 94.694,368.223 94.400,368.008 94.400 C 367.792 94.400,367.502 93.950,367.364 93.400 C 367.226 92.850,366.953 92.400,366.757 92.400 C 366.560 92.400,366.400 92.164,366.400 91.875 C 366.400 91.587,366.040 90.964,365.600 90.492 C 365.160 90.020,364.800 89.491,364.799 89.317 C 364.799 89.143,364.258 88.370,363.597 87.600 C 362.937 86.830,362.295 85.885,362.171 85.500 C 362.047 85.115,361.778 84.800,361.573 84.800 C 361.368 84.800,361.200 84.532,361.200 84.203 C 361.200 83.875,360.840 83.382,360.400 83.107 C 359.960 82.832,359.600 82.415,359.600 82.179 C 359.600 81.944,359.280 81.402,358.888 80.975 C 358.496 80.549,357.641 79.484,356.988 78.609 C 356.335 77.734,355.305 76.492,354.700 75.850 C 354.095 75.207,353.600 74.506,353.600 74.293 C 353.600 74.079,352.790 73.128,351.800 72.179 C 350.810 71.231,350.000 70.272,350.000 70.049 C 350.000 69.514,330.492 50.000,329.958 50.000 C 329.731 50.000,328.769 49.190,327.821 48.200 C 326.872 47.210,325.921 46.400,325.707 46.400 C 325.494 46.400,324.793 45.905,324.150 45.300 C 323.508 44.695,322.266 43.670,321.391 43.021 C 320.516 42.373,319.710 41.743,319.600 41.621 C 318.962 40.916,315.980 38.800,315.623 38.800 C 315.391 38.800,315.200 38.632,315.200 38.427 C 315.200 38.222,314.885 37.953,314.500 37.829 C 314.115 37.705,313.170 37.063,312.400 36.403 C 311.630 35.742,310.857 35.201,310.683 35.201 C 310.509 35.200,309.980 34.840,309.508 34.400 C 309.036 33.960,308.413 33.600,308.125 33.600 C 307.836 33.600,307.600 33.440,307.600 33.243 C 307.600 33.047,307.150 32.774,306.600 32.636 C 306.050 32.498,305.600 32.208,305.600 31.992 C 305.600 31.777,305.306 31.600,304.947 31.600 C 304.588 31.600,304.003 31.284,303.647 30.897 C 303.291 30.511,302.460 29.926,301.800 29.597 C 301.140 29.269,300.373 28.786,300.096 28.524 C 299.818 28.263,298.963 27.822,298.196 27.544 C 297.428 27.266,296.800 26.895,296.800 26.720 C 296.800 26.544,296.440 26.400,296.000 26.400 C 295.560 26.400,295.199 26.265,295.197 26.100 C 295.195 25.935,294.790 25.599,294.297 25.354 C 293.804 25.109,292.172 24.254,290.671 23.454 C 289.170 22.654,287.685 22.000,287.371 22.000 C 287.057 22.000,286.799 21.865,286.797 21.700 C 286.793 21.302,284.821 20.400,283.954 20.400 C 283.576 20.400,283.207 20.258,283.133 20.085 C 282.913 19.565,278.585 17.600,277.660 17.600 C 277.187 17.600,276.800 17.420,276.800 17.200 C 276.800 16.980,276.440 16.800,276.000 16.800 C 275.560 16.800,275.200 16.620,275.200 16.400 C 275.200 16.180,274.660 16.000,274.000 16.000 C 273.340 16.000,272.799 15.865,272.797 15.700 C 272.793 15.294,270.814 14.400,269.920 14.400 C 269.524 14.400,269.200 14.260,269.200 14.089 C 269.200 13.745,264.962 12.400,263.880 12.400 C 263.506 12.400,263.200 12.220,263.200 12.000 C 263.200 11.780,262.761 11.600,262.224 11.600 C 261.687 11.600,261.136 11.420,261.000 11.200 C 260.864 10.980,260.324 10.800,259.800 10.800 C 259.276 10.800,258.736 10.620,258.600 10.400 C 258.464 10.180,257.823 10.000,257.176 10.000 C 256.529 10.000,256.000 9.820,256.000 9.600 C 256.000 9.380,255.458 9.200,254.795 9.200 C 254.132 9.200,253.277 9.042,252.895 8.849 C 251.586 8.188,249.399 7.626,247.089 7.356 C 245.818 7.208,244.682 6.933,244.565 6.744 C 244.448 6.555,243.643 6.400,242.776 6.400 C 241.909 6.400,241.200 6.220,241.200 6.000 C 241.200 5.780,240.300 5.600,239.200 5.600 C 238.100 5.600,237.200 5.437,237.200 5.239 C 237.200 4.897,236.044 4.697,231.100 4.181 C 229.945 4.060,228.640 3.797,228.200 3.596 C 227.760 3.395,226.230 3.145,224.800 3.041 C 223.370 2.936,220.130 2.672,217.600 2.453 C 212.308 1.996,187.550 1.991,182.200 2.447 M212.937 18.807 C 225.392 19.849,241.172 22.536,248.000 24.779 C 248.550 24.959,249.810 25.336,250.800 25.615 C 291.142 36.996,327.913 64.146,351.744 100.146 C 353.865 103.350,355.600 106.061,355.600 106.170 C 355.600 106.279,356.557 107.963,357.726 109.912 C 359.715 113.227,364.685 123.008,366.205 126.600 C 369.656 134.755,373.461 145.451,375.169 151.800 C 375.347 152.460,375.690 153.720,375.933 154.600 C 382.173 177.216,383.285 207.170,378.815 232.200 C 377.997 236.775,376.779 242.414,376.047 245.000 C 375.861 245.660,375.517 246.920,375.283 247.800 C 374.419 251.053,371.026 261.494,369.889 264.400 C 368.078 269.030,367.181 271.240,366.317 273.200 C 345.434 320.623,304.434 357.496,255.400 372.955 C 252.100 373.995,248.860 374.992,248.200 375.169 C 247.540 375.347,246.280 375.690,245.400 375.933 C 222.748 382.183,195.195 383.269,169.000 378.947 C 163.513 378.041,158.055 376.911,155.000 376.047 C 154.340 375.861,153.080 375.517,152.200 375.283 C 145.751 373.570,134.964 369.745,126.600 366.205 C 123.008 364.685,113.227 359.715,109.912 357.726 C 107.963 356.557,106.279 355.600,106.170 355.600 C 106.061 355.600,103.350 353.865,100.146 351.744 C 64.146 327.913,36.996 291.142,25.615 250.800 C 25.336 249.810,24.959 248.550,24.779 248.000 C 24.387 246.807,23.078 241.305,22.256 237.400 C 18.222 218.225,17.330 198.336,19.628 178.800 C 20.915 167.858,23.205 156.936,26.338 146.800 C 45.728 84.060,97.022 36.709,160.800 22.673 C 177.548 18.987,197.449 17.511,212.937 18.807 M191.000 40.475 C 190.120 40.691,187.510 41.326,185.200 41.887 C 182.890 42.448,179.290 43.528,177.200 44.287 C 175.110 45.046,172.950 45.814,172.400 45.993 C 170.121 46.737,158.493 52.355,154.400 54.692 C 144.660 60.251,143.729 61.382,138.674 73.800 C 135.138 82.486,132.868 88.978,128.603 102.600 C 127.570 105.900,126.452 109.410,126.118 110.400 C 124.433 115.395,123.984 119.267,124.900 120.905 C 125.647 122.242,126.769 123.726,134.799 134.000 C 144.900 146.924,144.682 146.648,153.100 157.200 C 160.669 166.687,165.141 172.454,172.022 181.600 C 174.090 184.350,175.890 186.690,176.022 186.800 C 176.682 187.353,186.219 201.113,188.226 204.409 C 194.987 215.510,195.627 215.895,198.786 210.761 C 200.277 208.338,200.393 208.338,201.903 210.766 C 204.789 215.409,205.955 215.040,210.175 208.149 C 214.296 201.420,219.884 193.264,225.182 186.246 C 231.267 178.187,235.725 172.299,236.271 171.601 C 240.440 166.281,244.741 160.829,245.266 160.200 C 246.444 158.790,257.876 144.305,266.894 132.796 C 278.073 118.528,277.541 120.131,274.457 110.000 C 265.614 80.946,259.278 64.824,255.038 60.587 C 250.670 56.222,236.165 48.803,221.940 43.659 C 212.709 40.320,205.551 39.578,202.357 41.628 C 200.414 42.875,199.687 42.869,198.200 41.596 C 196.470 40.114,194.023 39.734,191.000 40.475 M283.800 56.162 C 278.684 57.015,274.769 59.675,272.982 63.510 C 271.416 66.874,271.311 67.179,270.835 69.767 C 269.738 75.734,270.571 81.195,273.556 87.600 C 276.896 94.768,283.692 102.736,293.800 111.335 C 296.660 113.768,299.090 115.862,299.200 115.989 C 299.310 116.115,300.480 117.114,301.800 118.209 C 303.120 119.304,304.290 120.293,304.400 120.408 C 304.565 120.579,312.047 126.965,316.576 130.800 C 344.615 154.543,352.254 179.729,337.352 199.301 C 335.201 202.126,335.191 201.828,337.538 205.318 C 338.604 206.903,340.066 209.280,340.787 210.600 C 344.052 216.578,343.373 216.370,347.429 212.638 C 356.492 204.298,362.603 186.419,360.387 174.731 C 360.174 173.609,360.000 172.022,360.000 171.205 C 360.000 167.958,357.159 158.425,355.090 154.728 C 348.288 142.576,342.298 134.724,331.800 124.194 C 326.921 119.299,325.132 117.830,315.000 110.388 C 307.414 104.816,301.799 100.639,301.600 100.420 C 301.490 100.299,300.500 99.482,299.400 98.603 C 291.524 92.316,287.342 87.052,286.004 81.742 C 282.480 67.758,290.408 62.799,300.465 72.696 C 304.332 76.501,304.999 76.469,304.713 72.492 C 304.219 65.618,296.413 57.101,289.800 56.221 C 288.700 56.074,287.530 55.896,287.200 55.825 C 286.870 55.753,285.340 55.905,283.800 56.162 M110.900 56.421 C 103.387 57.755,94.844 68.228,96.207 74.434 C 96.597 76.210,97.465 75.880,100.428 72.827 C 108.562 64.448,115.904 66.220,115.483 76.460 C 115.155 84.426,114.017 86.871,107.740 93.094 L 103.208 97.588 105.525 100.294 C 106.800 101.782,108.620 104.035,109.570 105.300 C 110.519 106.565,111.437 107.600,111.609 107.600 C 112.330 107.600,121.093 97.918,123.376 94.600 C 137.017 74.767,129.918 53.043,110.900 56.421 M77.272 90.028 C 63.687 92.701,53.020 105.088,52.495 118.800 C 52.099 129.140,54.462 129.737,57.642 120.101 C 61.314 108.974,66.528 104.381,76.607 103.393 C 83.523 102.715,91.680 106.822,94.462 112.381 C 94.742 112.942,95.262 113.850,95.617 114.400 C 98.031 118.135,100.000 126.820,100.000 133.728 C 100.000 150.107,96.421 158.470,77.802 185.600 C 72.140 193.850,67.425 200.811,67.323 201.070 C 66.890 202.168,77.561 208.800,79.762 208.800 C 80.049 208.800,81.564 206.865,83.129 204.500 C 84.693 202.135,86.872 198.940,87.972 197.400 C 90.072 194.457,98.041 182.255,99.205 180.200 C 99.579 179.540,100.785 177.470,101.886 175.600 C 104.710 170.801,107.692 165.015,108.793 162.200 C 109.309 160.880,109.862 159.620,110.022 159.400 C 110.551 158.672,111.928 154.319,113.247 149.200 C 117.277 133.559,115.849 117.264,109.644 108.084 C 100.105 93.971,88.925 87.734,77.272 90.028 M314.200 89.770 C 313.980 89.858,312.720 90.246,311.400 90.632 C 307.556 91.755,299.951 96.090,300.018 97.120 C 300.041 97.458,305.087 101.448,308.921 104.159 C 311.633 106.078,311.714 106.105,312.774 105.479 C 318.206 102.271,327.370 102.790,333.439 106.650 C 337.834 109.445,340.084 112.902,342.602 120.730 C 345.461 129.616,347.753 128.898,347.488 119.200 C 347.137 106.366,338.748 95.253,326.200 91.000 C 323.229 89.993,315.590 89.210,314.200 89.770 M83.800 112.058 C 78.497 115.935,74.606 119.058,71.200 122.171 C 64.989 127.846,52.983 142.265,49.757 147.922 C 45.664 155.099,44.400 157.484,44.400 158.031 C 44.400 158.380,44.277 158.790,44.126 158.941 C 42.496 160.570,40.718 170.542,40.656 178.400 C 40.523 195.134,45.795 207.479,56.373 215.200 C 57.126 215.750,58.206 216.574,58.771 217.032 C 70.785 226.749,89.791 231.921,112.800 231.733 C 121.606 231.661,123.881 231.492,141.800 229.575 C 149.589 228.742,150.922 228.700,154.500 229.178 C 168.996 231.116,176.624 239.042,178.773 254.400 C 179.003 256.050,179.374 258.694,179.596 260.277 C 180.137 264.127,180.111 281.694,179.559 285.979 C 177.350 303.116,174.657 314.032,171.066 320.400 C 170.632 321.170,169.900 322.510,169.438 323.378 C 167.623 326.796,161.318 332.617,156.743 335.100 C 151.784 337.792,146.217 337.512,143.428 334.431 C 142.417 333.314,142.130 333.356,138.308 335.171 C 134.656 336.906,128.877 339.200,128.158 339.200 C 124.559 339.200,131.974 347.978,138.092 350.960 C 152.592 358.028,171.636 351.747,179.916 337.165 C 180.342 336.414,181.367 334.653,182.193 333.251 C 183.020 331.849,184.142 329.599,184.687 328.251 C 185.232 326.903,186.086 324.900,186.584 323.800 C 189.047 318.367,191.095 311.072,193.045 300.800 C 193.817 296.730,194.622 292.500,194.834 291.400 C 195.046 290.300,195.387 288.140,195.591 286.600 C 195.795 285.060,196.075 282.990,196.213 282.000 C 199.707 257.052,199.928 241.478,196.942 230.600 C 196.399 228.620,195.601 225.691,195.169 224.090 C 191.646 211.038,189.177 208.403,175.000 202.577 C 173.460 201.944,171.390 200.968,170.400 200.409 C 169.410 199.849,168.079 199.124,167.442 198.797 C 162.985 196.509,155.600 186.809,155.600 183.242 C 155.600 182.446,156.042 181.588,156.947 180.628 C 159.062 178.386,161.090 178.631,165.677 181.683 C 168.998 183.894,168.950 182.299,165.545 177.328 C 164.915 176.408,164.400 175.549,164.400 175.419 C 164.400 173.844,143.944 148.524,142.099 147.816 C 140.719 147.287,140.681 148.348,141.952 151.987 C 145.022 160.778,144.966 165.373,141.706 172.283 C 141.165 173.429,140.435 174.599,140.085 174.883 C 139.734 175.167,139.536 175.220,139.645 175.000 C 139.755 174.780,140.282 173.700,140.817 172.600 C 141.352 171.500,141.902 170.510,142.040 170.400 C 143.683 169.093,142.459 164.471,140.752 165.537 C 135.980 168.517,128.780 159.466,128.124 149.663 C 127.779 144.497,127.158 144.440,122.425 149.143 C 107.323 164.148,105.517 188.852,118.539 202.300 C 121.241 205.091,121.939 205.056,123.539 202.053 C 127.887 193.896,136.659 191.490,141.991 196.991 C 146.981 202.139,139.008 210.027,126.000 212.811 C 111.584 215.897,93.515 215.177,81.000 211.019 C 78.389 210.151,70.404 206.229,69.386 205.313 C 68.950 204.921,67.874 203.981,66.996 203.225 C 58.694 196.075,54.145 180.573,57.013 169.200 C 60.054 157.138,69.274 143.847,82.401 132.600 C 83.171 131.940,86.636 128.971,90.101 126.002 C 93.565 123.033,96.400 120.346,96.400 120.031 C 96.400 117.681,90.416 108.773,88.869 108.821 C 88.501 108.832,86.220 110.289,83.800 112.058 M287.823 112.187 C 284.086 120.088,283.563 135.749,286.615 148.400 C 287.539 152.233,288.813 156.558,289.384 157.800 C 289.687 158.460,290.471 160.350,291.125 162.000 C 291.779 163.650,292.898 166.080,293.612 167.400 C 294.325 168.720,295.541 170.970,296.314 172.400 C 297.086 173.830,298.412 176.143,299.259 177.541 C 300.107 178.938,300.800 180.149,300.800 180.231 C 300.800 180.525,308.909 192.903,311.080 195.923 C 327.047 218.140,333.244 234.129,332.659 251.600 C 332.184 265.760,325.725 277.801,315.532 283.526 C 311.821 285.610,311.912 285.332,313.541 289.600 C 314.975 293.356,315.383 294.739,316.017 298.000 C 316.295 299.430,316.567 300.657,316.620 300.726 C 316.844 301.014,322.842 297.724,326.191 295.476 C 330.324 292.702,336.270 286.919,338.606 283.400 C 339.483 282.080,340.311 280.910,340.447 280.800 C 341.583 279.882,345.579 269.916,346.942 264.600 C 348.763 257.501,349.547 243.076,348.419 237.421 C 348.197 236.310,347.740 233.934,347.404 232.142 C 346.821 229.032,344.948 222.757,343.840 220.200 C 343.554 219.540,343.076 218.370,342.778 217.600 C 342.237 216.205,340.843 213.460,339.324 210.800 C 338.884 210.030,332.422 200.490,324.962 189.599 C 317.503 178.708,310.743 168.718,309.940 167.399 C 302.092 154.505,298.521 138.845,300.636 126.600 C 300.978 124.620,301.346 122.280,301.453 121.400 L 301.649 119.800 295.821 115.000 C 288.853 109.260,289.157 109.367,287.823 112.187 M273.216 145.969 C 272.987 146.397,272.800 147.830,272.800 149.154 C 272.800 158.331,265.771 167.596,260.429 165.458 C 258.502 164.687,258.406 164.794,258.372 167.767 L 258.344 170.200 257.695 168.600 C 256.392 165.387,256.777 158.158,258.519 153.116 C 260.767 146.612,260.064 145.635,256.349 150.100 C 253.792 153.174,247.486 160.527,247.173 160.800 C 245.526 162.237,238.646 171.740,235.646 176.720 C 231.552 183.519,231.604 183.946,236.165 180.991 C 242.742 176.731,247.528 180.480,243.933 187.075 C 239.788 194.682,235.324 198.358,224.600 202.996 C 211.177 208.801,209.292 210.943,205.595 224.600 C 205.118 226.360,204.547 228.430,204.325 229.200 C 201.172 240.136,201.194 256.204,204.393 279.200 C 204.622 280.850,204.975 283.640,205.175 285.400 C 205.376 287.160,205.810 289.950,206.139 291.600 C 206.468 293.250,207.224 297.210,207.818 300.400 C 208.412 303.590,209.236 307.502,209.649 309.093 C 210.062 310.684,210.400 312.079,210.400 312.193 C 210.400 312.790,211.375 312.198,213.278 310.445 C 217.036 306.983,219.328 305.231,221.480 304.178 C 224.190 302.852,224.065 303.459,222.976 296.901 C 219.331 274.966,220.339 253.651,225.535 242.800 C 230.242 232.968,239.638 228.207,252.896 228.935 C 257.143 229.168,259.314 229.392,267.000 230.384 C 285.422 232.764,304.319 232.034,318.200 228.408 C 321.398 227.573,325.526 226.112,326.109 225.609 C 326.379 225.375,323.593 218.468,322.798 217.400 C 322.635 217.180,321.822 215.678,320.993 214.063 C 319.299 210.764,319.797 210.915,314.800 212.191 C 288.895 218.805,254.425 210.990,257.594 199.222 C 259.828 190.926,272.060 192.685,277.613 202.100 C 279.235 204.851,279.490 204.887,281.856 202.706 C 290.898 194.371,294.028 176.177,288.411 164.600 C 288.198 164.160,287.408 162.427,286.656 160.748 C 283.289 153.230,274.502 143.568,273.216 145.969 M261.191 174.993 C 261.202 175.494,259.514 172.938,258.911 171.540 C 258.659 170.957,258.562 170.371,258.695 170.239 C 258.937 169.997,261.174 174.258,261.191 174.993 M56.916 218.500 C 56.706 218.775,56.306 219.630,56.027 220.400 C 55.748 221.170,55.361 222.160,55.168 222.600 C 54.545 224.020,52.883 230.174,52.435 232.723 C 52.196 234.085,51.812 236.272,51.583 237.583 C 51.161 239.995,50.997 254.949,51.386 255.577 C 51.502 255.765,51.789 257.332,52.025 259.059 C 55.849 287.108,78.685 305.838,110.557 307.068 L 117.314 307.329 117.017 301.564 C 116.854 298.394,116.603 294.681,116.460 293.313 L 116.200 290.826 110.200 290.636 C 76.313 289.564,59.066 263.252,70.439 229.973 C 71.678 226.348,71.663 226.319,67.500 224.183 C 65.465 223.139,62.391 221.321,60.668 220.142 C 57.111 217.709,57.418 217.843,56.916 218.500 M151.000 231.242 C 136.343 232.225,136.873 232.076,136.508 235.320 L 136.295 237.209 127.247 244.847 C 114.143 255.909,102.882 267.127,96.167 275.806 C 94.062 278.528,90.710 284.389,90.931 284.964 C 91.168 285.583,96.783 287.430,100.279 288.039 C 107.200 289.245,106.925 289.242,107.800 288.101 C 108.240 287.528,109.900 285.322,111.489 283.201 C 118.278 274.135,126.768 266.736,146.915 252.326 C 156.692 245.334,158.614 244.452,167.278 242.989 C 173.019 242.019,173.151 241.210,168.330 236.560 C 163.221 231.632,159.985 230.640,151.000 231.242 M243.200 231.103 C 238.924 231.435,234.662 233.714,231.078 237.585 C 227.363 241.598,227.770 242.197,235.000 243.357 C 241.703 244.433,244.071 245.520,251.998 251.160 C 257.272 254.912,261.989 258.344,263.208 259.315 C 267.094 262.413,271.564 265.469,271.903 265.260 C 272.138 265.115,273.043 263.377,273.915 261.398 C 274.787 259.419,276.492 256.180,277.705 254.200 C 278.917 252.220,279.834 250.473,279.742 250.318 C 279.650 250.163,276.206 247.221,272.088 243.781 C 267.969 240.341,264.480 237.138,264.333 236.663 C 264.186 236.189,263.958 235.153,263.826 234.361 C 263.541 232.645,262.427 232.000,259.749 232.000 C 258.752 232.000,256.286 231.826,254.268 231.613 C 250.044 231.168,245.226 230.946,243.200 231.103 M93.600 240.004 C 83.726 241.030,80.709 244.473,80.637 254.800 C 80.568 264.871,86.693 269.849,87.775 260.600 C 89.071 249.526,98.103 247.692,106.528 256.791 L 108.776 259.220 110.488 257.716 C 113.656 254.932,118.400 250.255,118.400 249.914 C 118.400 249.729,117.253 248.446,115.850 247.064 C 110.365 241.659,102.301 239.101,93.600 240.004 M299.000 239.973 C 285.252 242.150,274.577 256.257,270.071 278.200 C 268.891 283.947,268.707 285.264,269.041 285.559 C 269.856 286.279,279.842 288.752,282.068 288.784 C 283.266 288.802,283.234 288.893,284.006 283.200 C 286.763 262.871,294.878 251.224,306.300 251.204 C 310.394 251.197,313.195 255.125,313.201 260.882 C 313.207 265.310,317.127 266.063,319.183 262.033 C 322.951 254.648,319.782 243.088,313.478 241.215 C 312.555 240.941,311.369 240.547,310.842 240.341 C 309.545 239.831,301.478 239.581,299.000 239.973 M163.601 246.231 C 160.001 247.907,160.000 247.908,160.000 252.856 C 160.000 266.202,152.028 277.105,136.646 284.797 L 133.893 286.174 134.176 289.787 C 134.332 291.774,134.586 295.594,134.739 298.276 C 135.065 303.951,135.043 303.910,137.283 303.014 C 143.802 300.407,148.884 297.124,155.606 291.177 C 158.133 288.943,161.653 285.828,163.428 284.257 C 168.480 279.786,170.805 277.838,173.528 275.791 C 174.916 274.747,176.302 273.510,176.610 273.042 C 179.478 268.664,176.845 248.438,173.061 245.788 C 171.588 244.756,166.230 245.007,163.601 246.231 M226.939 245.788 C 224.567 247.449,222.391 256.594,222.320 265.200 C 222.267 271.468,222.670 272.859,225.050 274.647 C 225.894 275.281,226.930 276.070,227.353 276.400 C 228.292 277.132,235.577 283.384,239.006 286.400 C 248.346 294.614,254.052 299.200,254.933 299.200 C 255.061 299.200,256.028 299.709,257.082 300.330 C 265.469 305.274,279.761 307.973,292.501 307.018 L 296.400 306.725 296.400 303.401 C 296.400 299.832,295.406 296.116,293.549 292.746 L 292.587 291.000 286.993 290.727 C 260.568 289.438,240.000 272.956,240.000 253.069 C 240.000 247.882,240.018 247.916,236.399 246.231 C 233.770 245.007,228.412 244.756,226.939 245.788 M290.942 264.235 C 287.503 270.802,285.530 279.442,287.160 280.800 C 289.649 282.873,295.182 291.929,296.814 296.600 C 300.730 307.810,294.015 321.307,283.313 323.738 L 281.035 324.255 280.079 327.428 C 279.553 329.172,278.510 332.137,277.761 334.015 C 275.535 339.600,275.411 339.486,284.100 339.863 C 295.711 340.367,304.022 334.887,310.280 322.600 C 319.568 304.363,314.964 285.971,296.118 266.035 L 292.181 261.870 290.942 264.235 M122.003 273.867 L 116.324 279.364 116.595 280.982 C 117.534 286.597,117.638 287.752,118.806 305.600 C 119.218 311.883,119.680 315.894,120.485 320.146 L 120.929 322.491 122.603 322.262 C 125.826 321.820,131.515 319.501,133.975 317.627 L 134.949 316.884 134.476 313.142 C 134.215 311.084,133.819 306.430,133.596 302.800 C 132.803 289.934,131.377 279.332,129.587 273.000 C 129.338 272.120,129.039 270.911,128.924 270.313 C 128.448 267.857,127.949 268.113,122.003 273.867 M164.000 303.590 C 158.212 304.501,150.354 308.345,139.758 315.447 C 129.123 322.576,126.464 323.706,120.200 323.765 C 112.844 323.833,105.675 317.802,103.365 309.603 C 102.977 308.224,102.928 308.197,99.386 307.467 C 97.414 307.060,93.642 306.039,91.004 305.199 C 85.261 303.369,85.457 303.288,85.801 307.347 C 87.302 325.078,99.386 339.230,113.600 339.905 C 124.762 340.435,138.299 335.117,152.000 324.820 C 155.630 322.092,159.008 320.000,159.782 320.000 C 160.096 320.000,160.445 319.850,160.558 319.668 C 160.939 319.052,165.239 318.329,167.713 318.465 C 169.997 318.591,170.202 318.530,170.658 317.600 C 172.737 313.356,175.138 305.457,174.697 304.309 C 174.298 303.270,168.508 302.881,164.000 303.590 M227.400 303.440 C 222.278 304.751,218.440 307.365,211.093 314.548 C 201.839 323.595,200.417 337.757,207.378 351.551 C 210.635 358.004,217.694 361.777,223.893 360.379 C 226.337 359.828,226.063 359.164,222.086 356.000 C 209.489 345.981,209.629 331.081,222.400 322.437 C 231.566 316.232,238.236 316.982,249.455 325.477 C 253.410 328.472,257.445 331.200,257.918 331.200 C 259.227 331.200,264.365 319.352,263.730 317.800 C 263.459 317.139,252.858 310.179,249.075 308.179 C 241.813 304.341,232.143 302.226,227.400 303.440 M267.041 307.268 C 266.937 307.780,266.751 309.550,266.628 311.200 C 265.841 321.768,260.507 333.181,255.037 336.001 C 253.040 337.030,247.845 336.772,245.200 335.512 C 240.189 333.124,233.555 327.085,231.383 322.933 C 229.668 319.654,225.361 321.024,219.753 326.632 C 216.882 329.503,216.801 329.784,218.200 332.000 C 218.750 332.871,219.200 333.656,219.200 333.744 C 219.200 333.831,219.786 334.870,220.503 336.052 C 234.748 359.550,265.263 359.962,275.864 336.800 C 278.172 331.757,280.151 323.756,281.206 315.200 C 281.436 313.330,281.698 311.215,281.787 310.501 C 281.992 308.864,281.476 308.567,277.800 308.211 C 276.260 308.061,274.010 307.702,272.800 307.413 C 267.958 306.254,267.252 306.236,267.041 307.268 M190.920 316.863 C 190.678 317.158,190.025 318.750,189.469 320.400 C 188.443 323.446,187.744 325.214,186.332 328.337 L 185.546 330.075 186.673 333.137 C 189.835 341.730,187.076 348.783,177.291 357.124 C 175.921 358.292,174.800 359.395,174.800 359.576 C 174.800 361.048,182.956 360.564,186.421 358.887 C 194.943 354.761,200.060 336.907,196.168 324.878 C 194.739 320.461,191.733 315.871,190.920 316.863 " stroke="none" fill="#040404" fill-rule="evenodd"></path></g></svg>