<?xml version="1.0"?>
<svg width="256" height="256" xmlns="http://www.w3.org/2000/svg" xmlns:svg="http://www.w3.org/2000/svg" version="1.1">
 <title>S-BW-1</title>
 <g class="layer">
  <title>Layer 1</title>
  <rect fill="#ffffff" height="256" id="svg_1" width="256" x="0" y="0"/>
  <path d="m116.661898,0.463397c-78.114897,6.732225 -131.594404,81.12285 -112.930563,157.143651c11.943096,48.718007 52.576063,86.434991 101.957018,94.656381c86.752708,14.438711 161.408073,-60.085804 146.86482,-146.567086c-10.885405,-64.61526 -70.600883,-110.860583 -135.891275,-105.232947m22.409831,28.887392c18.421454,30.494067 19.45711,32.2211 19.45711,32.503835c0,0.402381 -5.134209,14.464349 -5.354561,14.695095c-0.110176,0.107539 -2.666263,-5.917493 -5.663055,-13.388959c-3.018827,-7.471467 -8.880198,-22.024126 -13.044857,-32.339322c-8.285247,-20.57413 -7.844543,-19.349183 -6.808887,-19.223127c0.639022,0.079052 2.071312,2.31102 11.41425,17.752478m-19.368969,-17.163506c-4.957927,12.579924 -28.800048,71.925774 -28.932259,72.077468c-0.132211,0.120358 -3.239179,0.184454 -6.941098,0.142436l-6.720746,-0.076203l1.806889,-3.133586c1.674678,-2.916372 26.993159,-47.375551 35.67504,-62.600506c3.393426,-5.976604 3.922271,-6.765698 4.561293,-6.765698c0.440705,0 0.639022,0.128904 0.550881,0.356089m19.50118,0.062672c39.42103,4.182625 73.773956,28.059128 91.512318,63.60183c2.049277,4.075086 3.151038,6.59335 2.996792,6.749317c-0.088141,0.087598 -47.9707,0.740666 -53.854107,0.734968l-1.917065,-0.002137l-6.69871,-11.113548l-6.720746,-11.112836l1.454325,-3.914134c7.095345,-19.108466 17.892608,-23.989739 16.967128,-7.672301c-0.308493,5.742297 -1.410255,8.509823 -3.745989,9.570257c-10.532841,4.783704 -4.605363,20.462318 6.324112,16.729077c7.095345,-2.418559 7.976754,-12.636186 1.410255,-16.311028c-0.484775,-0.270628 -0.46274,-0.411639 0.198317,-2.749722c3.503602,-12.02941 -0.330528,-22.185078 -8.373388,-22.261281c-6.037654,-0.056974 -11.832919,6.190257 -16.68067,17.981087c-0.572916,1.380202 -1.079726,2.542478 -1.101762,2.58236c-0.088141,0.081901 0.220352,0.568319 -14.939887,-24.50322c-6.125794,-10.14641 -11.149827,-18.510948 -11.149827,-18.587864c0,-0.184454 -0.132211,-0.193713 4.318905,0.279174m-27.896603,1.361686c-0.308493,0.509208 -6.897028,12.014454 -14.609359,25.567215c-7.712331,13.55276 -16.702706,29.320396 -19.96392,35.039191l-5.927477,10.397809l-25.582904,0.321905c-14.058478,0.17662 -25.604939,0.286296 -25.64901,0.242141c-0.066106,-0.043443 0.352564,-1.149456 0.903445,-2.457729c14.014407,-33.61341 43.938252,-59.222643 79.172588,-67.769499c3.768025,-0.910164 10.356559,-2.192798 11.546461,-2.240514l0.661057,-0.026351l-0.550881,0.925832m25.560869,37.455614l13.088928,32.409115l-3.040862,0.179469c-7.403838,0.437278 -50.284399,0.62102 -50.130152,0.214366c0.088141,-0.216502 5.949513,-14.879549 13.022822,-32.584311c7.095345,-17.704762 13.022822,-32.510957 13.177069,-32.902655c0.374599,-0.979246 -0.727163,-3.548074 13.882196,32.684016m47.155396,13.020763c0.550881,0.225761 1.256008,0.834673 1.564501,1.35314c1.9391,3.189136 -1.608572,6.99858 -4.737575,5.08638c-3.922271,-2.385799 -1.035656,-8.202874 3.173073,-6.43952m-17.782432,10.191989c2.093347,3.481129 4.164659,6.925226 4.605363,7.653072l0.749198,1.323228l-1.718748,0.180893c-2.423875,0.254248 -13.331315,0.227897 -13.331315,-0.032048c0,-0.404517 5.552878,-15.449292 5.707125,-15.451429c0.088141,-0.001424 1.872995,2.845154 3.988377,6.326283m59.362915,14.138883c-0.198317,0.178045 -21.506386,14.09188 -31.356135,20.468015c-0.572916,0.371757 -13.287245,-19.592748 -12.780434,-20.087712c0.132211,-0.128904 23.136993,-0.488555 36.732731,-0.574016c4.230765,-0.027063 7.558085,0.059823 7.403838,0.193713m11.193898,1.911488c6.412252,18.814337 7.668261,39.628471 3.613778,59.890667c-0.528846,2.70984 -0.96955,4.985251 -0.96955,5.056469c0,0.071218 -1.013621,0.128904 -2.225558,0.128904c-3.679884,0 -7.359767,1.261981 -10.90744,3.738938c-0.92548,0.655204 -1.740783,1.139486 -1.806889,1.076814c-0.286458,-0.302676 -14.058478,-23.113047 -14.256795,-23.630089c-0.132211,-0.325466 1.410255,-1.557535 5.817301,-4.700379c3.28325,-2.343068 5.971548,-4.356397 5.971548,-4.473907c0.022035,-0.117509 -3.922271,-0.213654 -8.770022,-0.213654l-8.792057,0l-3.878201,-6.434534c-2.159453,-3.538816 -3.922271,-6.556317 -3.966342,-6.705162c-0.066106,-0.309798 38.826078,-25.863481 39.222713,-25.77161c0.154247,0.03276 0.572916,0.950046 0.947515,2.037543m-54.911798,9.848007c3.812095,6.287826 6.941098,11.607088 6.963133,11.82003c0.066106,0.848917 -16.923058,11.547977 -17.231551,10.84933c-0.154247,-0.346119 -3.28325,-8.063999 -6.941098,-17.151399l-6.676675,-16.522546l2.335735,-0.16024c1.278043,-0.08831 5.090139,-0.184454 8.483564,-0.213654l6.169865,-0.053413l6.897028,11.431892m-33.317271,-10.933367c-0.022035,0.117509 -3.129003,8.674336 -6.963133,19.015171l-6.919063,18.801517l-26.15582,0.072642l-26.177855,0.072642l-1.079726,-0.717876c-1.366184,-0.908028 -2.137417,1.509107 6.081724,-19.012322l7.139415,-17.875685l8.307282,-0.039882c4.561293,-0.022078 14.785641,-0.125343 22.696289,-0.230034c7.910648,-0.103978 16.328107,-0.213654 18.729947,-0.244277c2.379805,-0.030624 4.340941,0.040594 4.340941,0.158104m-80.913371,0.785533c0,0.646658 -11.282039,19.73091 -11.568497,19.567822c-0.176282,-0.109676 -6.632605,-4.429039 -14.344936,-9.599457l-13.992372,-9.400759l3.349355,-0.080476c1.850959,-0.044867 10.48877,-0.183742 19.192687,-0.309798c8.681881,-0.126768 16.151825,-0.250687 16.59253,-0.275613c0.418669,-0.025638 0.771233,0.019229 0.771233,0.098281m20.801259,0.067657c0,0.801201 -12.978752,32.487455 -13.221139,32.320805c-4.318905,-2.768239 -14.124584,-9.537497 -14.124584,-9.739044c0,-0.150982 2.886615,-5.342052 6.434288,-11.534446l6.412252,-11.259545l7.249591,0c3.988377,0 7.249591,0.095432 7.249591,0.212229m-53.016768,12.076414c9.651432,6.445217 17.716326,11.872731 17.914643,12.061458c0.308493,0.276325 -0.308493,1.551125 -3.217144,6.65531l-3.591743,6.312752l-5.398632,0l-5.376597,0l-0.705127,-1.370944c-4.208729,-8.291896 -16.834917,-5.122701 -16.812882,4.219659c0.022035,9.38153 13.199104,12.287219 17.055269,3.757455l0.528846,-1.193611l3.83413,0l3.812095,0l-0.550881,0.925832c-0.308493,0.509208 -5.332526,9.322419 -11.171863,19.584914c-5.839336,10.262495 -10.709123,18.760211 -10.819299,18.88413c-0.242388,0.27134 -2.335735,-5.097063 -3.966342,-10.169912c-6.258006,-19.334227 -7.029239,-41.681682 -2.181488,-61.836339c1.057691,-4.318652 2.644228,-9.549604 2.930686,-9.549604c0.088141,0 8.064895,5.273683 17.716326,11.7189m122.956594,2.239802c2.622193,6.502191 5.663055,14.049149 6.764816,16.770384c1.542466,3.784518 1.9391,5.057893 1.718748,5.412558c-0.264423,0.416625 -1.652642,0.472174 -13.441491,0.538407l-13.132998,0.074067l0.528846,-1.398007c0.286458,-0.769153 3.195109,-8.654395 6.456323,-17.522444c3.28325,-8.868761 6.037654,-16.029006 6.14783,-15.910784c0.110176,0.117509 2.335735,5.533628 4.957927,12.03582m36.688661,17.590814l3.040862,5.056469l-5.376597,0.077627c-2.974756,0.042019 -7.910648,0.042019 -10.995581,0l-5.574914,-0.077627l7.756402,-5.056469c4.2528,-2.781058 7.844543,-5.056469 7.932683,-5.056469c0.088141,0 1.542466,2.275411 3.217144,5.056469m-132.277497,5.131247c-5.376597,0.041306 -9.827713,0.021365 -9.893819,-0.044867c-0.088141,-0.100417 3.635813,-6.825521 4.957927,-8.929296c0.396634,-0.632415 0.46274,-0.594669 7.558085,4.130636l7.139415,4.768748l-9.761608,0.074779m-33.956292,-0.309086c2.203523,1.049039 2.534052,4.286604 0.616986,5.911083c-1.740783,1.457118 -4.561293,0.903755 -5.508808,-1.078239c-1.564501,-3.296675 1.586537,-6.401774 4.891821,-4.832845m42.505962,6.002954c0,0.31051 -15.997578,40.339225 -16.217931,40.600595c-0.110176,0.12107 -1.608572,-0.005697 -3.305285,-0.280598c-7.073309,-1.135213 -18.06889,-0.635263 -23.864156,1.083224c-1.079726,0.318344 -2.027241,0.512769 -2.115382,0.43158c-0.066106,-0.081188 4.451117,-8.197177 10.048066,-18.035925c5.618984,-9.838036 10.973545,-19.264433 11.943096,-20.946599l1.718748,-3.05952l10.90744,-0.002849c5.993583,-0.002137 10.885405,0.092583 10.885405,0.210093m28.00678,12.206743c10.224348,6.831218 18.751982,12.579924 18.950299,12.775061c0.286458,0.281311 -34.19868,23.256195 -38.870149,25.895529c-0.176282,0.101129 -1.542466,-0.634551 -2.996792,-1.635162c-4.142624,-2.829486 -9.387009,-5.275108 -14.124584,-6.591214c-0.991585,-0.27134 -1.784854,-0.60464 -1.784854,-0.740666c0,-0.237156 16.438283,-41.474438 16.702706,-41.910291c0.088141,-0.117509 0.903445,-0.213654 1.850959,-0.213654l1.718748,0l18.553665,12.420396m32.435861,-10.212642c-5.244385,14.376751 -7.051274,19.102769 -7.491979,19.575656c-0.50681,0.551226 -0.771233,0.393123 -17.055269,-10.510333c-9.078516,-6.088416 -16.526424,-11.115685 -16.526424,-11.171947c0,-0.05555 9.431079,-0.101129 20.93347,-0.101129l20.955505,0l-0.815304,2.207754m25.847327,-2.095942c-0.46274,0.439414 -25.142199,16.395066 -25.23034,16.311741c-0.088141,-0.087598 2.798474,-8.143763 5.310491,-14.785542l0.616986,-1.638011l9.717537,0c5.332526,0 9.651432,0.049853 9.585326,0.111812m16.041649,9.649309c2.159453,5.36413 3.944306,9.898572 3.988377,10.076616c0.066106,0.27134 -26.332102,19.552866 -27.301652,19.950974c-0.418669,0.164513 -21.462316,-13.840481 -21.462316,-14.267788c0.022035,-0.757758 38.53962,-25.478905 39.729523,-25.495997l1.145832,-0.017092l3.900236,9.753287m28.447484,-8.740569c0.528846,0.864585 0.572916,1.077526 0.242388,1.39587c-0.683092,0.638112 -19.96392,14.435862 -20.052061,14.339006c-0.110176,-0.118934 -6.69871,-16.486224 -6.69871,-16.638631c0,-0.064096 5.817301,-0.116797 12.934681,-0.116797l12.934681,0l0.639022,1.020552m11.017616,18.235335l7.491979,12.401167l-1.410255,1.620207c-3.878201,4.473907 -7.425873,9.573106 -7.425873,10.676983c0,1.432904 0.991585,2.479806 2.379805,2.479806c1.542466,0 1.762819,-0.17662 3.944306,-3.094416c7.910648,-10.621433 12.80247,-14.771298 17.760397,-15.087505c1.013621,-0.064096 1.828924,-0.051277 1.828924,0.027775c0,1.943536 -5.861372,15.692145 -9.409044,22.07113c-5.442702,9.74759 -20.140202,28.487147 -21.374175,27.21306c-0.528846,-0.553363 -22.475936,-55.474447 -22.233549,-55.697358c0.396634,-0.395971 20.669047,-15.005605 20.823294,-15.009166c0.088141,-0.001424 3.525637,5.577783 7.62419,12.398319m-23.643804,29.656545c5.200315,12.950257 9.431079,23.586646 9.387009,23.636498c-0.066106,0.04914 -4.693504,-3.002545 -10.334524,-6.782078c-5.618984,-3.779532 -15.380592,-10.318757 -21.682668,-14.532006c-6.302076,-4.213249 -11.524426,-7.776991 -11.612567,-7.919427c-0.088141,-0.142436 2.754404,-2.36016 6.324112,-4.928989c15.887402,-11.441151 18.112961,-13.032158 18.289242,-13.02646c0.088141,0.003561 4.429082,10.602204 9.629396,23.552461m-68.331254,-17.932659c-0.286458,0.746363 -13.860161,37.33027 -16.812882,45.328749c-0.771233,2.09523 -1.366184,3.862145 -1.300079,3.926953c0.066106,0.064808 10.665052,-7.450101 23.533628,-16.699166c12.868575,-9.249777 23.511592,-16.817387 23.665839,-16.817387c0.154247,0 8.725952,5.652562 19.016405,12.561408c10.312488,6.908845 22.035232,14.760615 26.067679,17.448378c4.032447,2.687762 7.293662,4.979553 7.249591,5.092078c-0.528846,1.804661 -16.614565,12.435352 -24.987953,16.510438c-42.087293,20.519292 -94.641321,12.949545 -128.134873,-18.451838l-1.784854,-1.682166l15.600944,-10.157092l15.578909,-10.15638l1.674678,1.447147c4.318905,3.76244 7.293662,8.843123 8.04286,13.767838l0.198317,1.169397l-1.586537,0.163089c-7.139415,0.737105 -10.268418,9.975487 -5.112174,15.128812c8.08693,8.101033 20.316484,-3.387122 13.044857,-12.265141c-0.947515,-1.144471 -1.035656,-1.402992 -1.145832,-3.583683c-0.330528,-5.950253 -2.754404,-10.9704 -7.844543,-16.303907l-2.512016,-2.62153l18.862158,-12.294341c21.440281,-13.967248 19.082511,-12.517965 18.685877,-11.511656m15.160239,6.225154c5.024033,3.384985 9.078516,6.192394 9.034445,6.239397c-0.594951,0.566182 -31.113747,22.328226 -31.201888,22.245613c-0.110176,-0.101129 12.295659,-33.874067 12.648223,-34.422445c0.220352,-0.353241 0.066106,-0.450097 9.51922,5.937434m-86.356073,8.542583c1.630607,0.220775 2.996792,0.401669 3.018827,0.401669c0.04407,0 -2.313699,5.960936 -5.22235,13.246524c-2.908651,7.285588 -5.398632,13.246524 -5.486773,13.246524c-1.344149,0 -13.463527,-16.787476 -16.6366,-23.046102l-0.705127,-1.370944l2.622193,-0.893072c6.544464,-2.227695 13.838126,-2.743312 22.409831,-1.584598m11.700708,2.551736c4.29687,1.328925 12.538047,5.330657 12.516012,6.092689c0,0.144572 -24.525213,16.276844 -25.076094,16.485512c-0.110176,0.048428 1.917065,-5.240211 4.517223,-11.75166c3.723954,-9.298205 4.825716,-11.810771 5.178279,-11.706081c0.242388,0.072642 1.520431,0.468614 2.86458,0.879541m29.196682,32.41054c1.167867,1.17367 1.476361,2.564555 0.881409,3.987488c-1.233973,2.986165 -5.618984,2.815955 -6.69871,-0.260657c-1.233973,-3.523148 3.195109,-6.353346 5.817301,-3.726831" fill="#000000" fill-rule="evenodd" id="path0" marker-mid="url(#mkr_mid_path0)" marker-start="url(#mkr_start_path0)"/>
 </g>
 <defs>
  <marker id="mkr_start_path0" markerHeight="5" markerUnits="strokeWidth" markerWidth="5" orient="auto" refX="50" refY="50" se_type="box" viewBox="0 0 100 100">
   <path d="m20,20l0,60l60,0l0,-60z" fill="none" stroke-width="10"/>
  </marker>
  <marker id="mkr_mid_path0" markerHeight="5" markerUnits="strokeWidth" markerWidth="5" orient="auto" refX="50" refY="50" se_type="box_o" viewBox="0 0 100 100">
   <path d="m20,20l0,60l60,0l0,-60z" fill="none" stroke-width="10"/>
  </marker>
 </defs>
</svg>