<svg id="svg" xmlns="http://www.w3.org/2000/svg" xmlns:xlink="http://www.w3.org/1999/xlink" width="400" height="422.8" viewBox="0, 0, 400,422.8" version="1.1"><g id="svgg"><path id="path0" d="M184.400 39.638 C 74.718 49.090,-0.355 153.551,25.823 260.290 C 46.736 345.564,128.228 403.335,215.836 394.994 C 324.195 384.677,398.154 281.281,372.768 175.600 C 352.309 90.431,271.534 32.128,184.400 39.638 M215.863 80.200 C 241.747 123.018,243.200 125.443,243.200 125.840 C 243.200 126.403,235.999 146.149,235.674 146.476 C 235.523 146.628,231.944 138.168,227.721 127.676 C 223.497 117.184,215.262 96.749,209.421 82.265 C 197.770 53.376,198.381 55.096,199.836 55.273 C 200.741 55.384,202.757 58.518,215.863 80.200 M188.688 56.100 C 181.713 73.764,148.245 157.094,148.040 157.307 C 147.878 157.476,143.500 157.566,138.311 157.507 L 128.877 157.400 142.683 133.200 C 150.276 119.890,163.331 96.985,171.695 82.300 C 185.400 58.237,187.000 55.600,187.894 55.600 C 188.526 55.600,188.814 55.781,188.688 56.100 M216.061 56.188 C 267.073 61.602,312.269 90.552,338.789 134.800 C 342.533 141.046,349.202 154.546,348.754 154.971 C 348.625 155.094,281.410 156.011,273.130 156.003 L 270.459 156.000 261.033 140.395 L 251.607 124.791 253.646 119.295 C 263.607 92.464,278.772 85.610,277.483 108.522 C 277.030 116.585,275.509 120.471,272.224 121.960 C 257.411 128.677,265.734 150.692,281.105 145.450 C 291.063 142.054,292.298 127.707,283.076 122.547 C 282.398 122.167,282.413 121.969,283.364 118.686 C 288.259 101.795,282.892 87.535,271.600 87.428 C 263.129 87.348,254.987 96.120,248.163 112.676 C 247.365 114.614,246.668 116.248,246.615 116.307 C 246.563 116.366,245.078 114.026,243.316 111.107 C 241.554 108.188,233.337 94.592,225.056 80.892 C 216.775 67.193,210.000 55.898,210.000 55.792 C 210.000 55.537,209.814 55.525,216.061 56.188 M176.876 58.100 C 176.442 58.815,167.217 74.970,156.376 94.000 C 145.535 113.030,132.919 135.170,128.339 143.200 L 120.013 157.800 84.106 158.252 C 64.358 158.500,48.143 158.654,48.074 158.592 C 48.004 158.531,48.574 156.978,49.340 155.141 C 69.022 107.932,111.021 71.987,160.527 59.983 C 165.797 58.705,175.076 56.904,176.733 56.837 L 177.665 56.800 176.876 58.100 M200.927 81.200 C 204.590 90.330,212.887 110.940,219.366 127.000 L 231.145 156.200 227.394 156.453 C 218.382 157.061,156.267 157.323,156.492 156.752 C 156.611 156.448,164.849 135.860,174.798 111.000 C 184.748 86.140,193.055 65.366,193.259 64.835 C 193.805 63.415,193.715 63.223,200.927 81.200 M279.004 128.976 C 279.762 129.293,280.746 130.148,281.190 130.876 C 283.920 135.354,278.925 140.703,274.522 138.018 C 269.029 134.668,273.078 126.500,279.004 128.976 M254.014 143.287 C 256.976 148.175,259.885 153.011,260.478 154.034 L 261.556 155.894 259.478 156.143 C 256.529 156.498,240.400 156.461,240.399 156.100 C 240.397 155.532,248.200 134.407,248.414 134.404 C 248.531 134.402,251.051 138.399,254.014 143.287 M337.380 163.140 C 337.102 163.390,307.166 182.927,293.343 191.880 C 292.531 192.407,274.701 164.365,275.402 163.664 C 275.590 163.476,306.668 162.995,326.780 162.869 C 332.842 162.831,337.590 162.952,337.380 163.140 M353.089 165.824 C 362.098 192.242,363.868 221.468,358.183 249.919 C 357.422 253.724,356.800 256.919,356.800 257.019 C 356.800 257.119,355.398 257.200,353.684 257.200 C 348.501 257.200,343.333 258.972,338.375 262.450 C 337.063 263.370,335.919 264.050,335.832 263.962 C 335.415 263.537,316.092 231.508,315.814 230.782 C 315.639 230.325,317.777 228.595,323.968 224.182 C 328.582 220.892,332.368 218.065,332.379 217.900 C 332.391 217.735,326.845 217.600,320.056 217.600 L 307.713 217.600 302.245 208.565 C 299.237 203.596,296.737 199.359,296.688 199.150 C 296.587 198.715,351.204 162.834,351.771 162.963 C 351.975 163.009,352.568 164.297,353.089 165.824 M275.946 179.560 C 281.252 188.337,285.693 195.777,285.814 196.093 C 285.970 196.499,282.521 198.960,273.998 204.522 L 261.962 212.377 261.239 210.689 C 260.597 209.189,257.204 200.790,245.775 172.400 L 242.474 164.200 245.737 163.975 C 247.532 163.851,252.892 163.716,257.649 163.675 L 266.297 163.600 275.946 179.560 M229.194 164.300 C 229.190 164.465,224.803 176.480,219.445 191.000 L 209.703 217.400 172.975 217.502 L 136.246 217.604 134.723 216.596 C 132.796 215.321,131.713 218.715,143.240 189.900 L 153.282 164.800 164.941 164.744 C 171.353 164.713,185.600 164.568,196.600 164.422 C 207.600 164.275,219.435 164.120,222.900 164.078 C 226.365 164.035,229.197 164.135,229.194 164.300 M115.600 165.403 C 115.600 166.315,99.766 193.108,99.363 192.879 C 99.093 192.725,90.024 186.660,79.210 179.400 L 59.549 166.200 64.074 166.086 C 66.563 166.023,78.680 165.827,91.000 165.651 C 103.320 165.474,113.895 165.301,114.500 165.265 C 115.105 165.229,115.600 165.292,115.600 165.403 M144.699 165.900 C 144.517 166.554,126.800 210.921,126.663 211.067 C 126.628 211.103,125.250 210.224,123.600 209.111 C 121.950 207.999,117.333 204.906,113.339 202.237 L 106.079 197.384 115.266 181.292 L 124.454 165.200 134.673 165.200 C 144.214 165.200,144.880 165.247,144.699 165.900 M70.367 182.456 C 83.915 191.506,95.235 199.127,95.521 199.391 C 95.943 199.779,95.074 201.571,90.992 208.736 L 85.941 217.600 78.377 217.600 L 70.813 217.600 69.838 215.675 C 63.938 204.032,46.209 208.482,46.234 221.600 C 46.258 234.773,64.765 238.853,70.166 226.876 L 70.921 225.200 76.293 225.200 L 81.665 225.200 80.876 226.500 C 80.442 227.215,73.382 239.590,65.188 254.000 C 56.994 268.410,50.163 280.342,50.009 280.516 C 49.670 280.897,46.718 273.359,44.416 266.236 C 35.644 239.088,34.546 207.709,41.380 179.409 C 42.855 173.302,45.090 166.000,45.485 166.000 C 45.622 166.000,56.818 173.405,70.367 182.456 M242.199 183.600 C 245.432 191.630,249.709 202.228,251.704 207.152 C 254.476 213.995,255.234 216.257,254.922 216.752 C 254.556 217.332,252.563 217.411,236.058 217.504 L 217.604 217.608 218.544 215.104 C 219.061 213.727,223.147 202.656,227.623 190.501 C 232.100 178.347,235.888 168.537,236.041 168.701 C 236.195 168.866,238.966 175.570,242.199 183.600 M294.531 210.300 L 298.807 217.400 291.230 217.509 C 287.063 217.568,280.112 217.568,275.783 217.509 L 267.914 217.400 278.837 210.300 C 284.845 206.395,289.872 203.200,290.008 203.200 C 290.144 203.200,292.179 206.395,294.531 210.300 M108.792 217.505 C 101.249 217.563,95.001 217.535,94.908 217.442 C 94.767 217.301,99.996 207.858,101.851 204.904 C 102.408 204.016,102.506 204.069,112.461 210.704 L 122.508 217.400 108.792 217.505 M61.094 217.071 C 64.196 218.544,64.672 223.090,61.962 225.371 C 59.530 227.417,55.575 226.640,54.254 223.857 C 52.057 219.228,56.452 214.868,61.094 217.071 M120.800 225.500 C 120.801 225.936,98.334 282.142,98.013 282.509 C 97.864 282.679,95.775 282.501,93.371 282.115 C 83.460 280.521,68.005 281.223,59.858 283.636 C 58.349 284.083,57.022 284.356,56.908 284.242 C 56.795 284.128,63.143 272.732,71.016 258.917 C 78.889 245.103,86.426 231.867,87.765 229.505 L 90.200 225.209 105.500 225.205 C 113.915 225.202,120.800 225.335,120.800 225.500 M160.133 242.640 C 174.470 252.232,186.436 260.304,186.724 260.578 C 187.139 260.973,138.711 293.233,132.140 296.939 C 131.887 297.081,129.996 296.048,127.938 294.643 C 122.120 290.670,114.757 287.236,108.100 285.388 C 106.725 285.007,105.600 284.539,105.600 284.348 C 105.600 284.015,128.686 226.112,129.063 225.500 C 129.164 225.335,130.331 225.200,131.656 225.200 L 134.065 225.200 160.133 242.640 M205.660 228.300 C 198.293 248.486,195.752 255.123,195.136 255.786 C 194.416 256.561,194.053 256.337,171.202 241.033 C 158.441 232.485,148.000 225.427,148.000 225.346 C 148.000 225.266,161.228 225.200,177.396 225.200 L 206.792 225.200 205.660 228.300 M241.967 225.357 C 241.309 225.974,206.645 248.378,206.528 248.261 C 206.404 248.138,210.470 236.826,213.989 227.500 L 214.857 225.200 228.495 225.200 C 235.996 225.200,242.058 225.270,241.967 225.357 M264.489 238.906 C 267.507 246.438,270.027 252.807,270.089 253.060 C 270.182 253.444,233.137 280.500,231.740 281.068 C 231.169 281.300,201.595 261.635,201.613 261.035 C 201.644 259.970,255.736 225.256,257.400 225.233 L 259.000 225.211 264.489 238.906 M304.420 226.633 C 305.171 227.847,305.222 228.146,304.753 228.593 C 303.813 229.489,276.729 248.863,276.605 248.727 C 276.451 248.560,267.200 225.578,267.200 225.364 C 267.200 225.274,275.375 225.200,285.367 225.200 L 303.535 225.200 304.420 226.633 M319.905 252.238 L 330.411 269.651 328.451 271.926 C 322.730 278.567,318.000 285.345,318.000 286.902 C 318.000 288.931,319.407 290.400,321.349 290.400 C 323.515 290.400,323.831 290.152,326.883 286.055 C 337.995 271.141,344.857 265.314,351.836 264.870 C 353.246 264.780,354.400 264.798,354.400 264.909 C 354.400 267.635,346.167 286.951,341.234 295.800 C 333.533 309.613,312.898 335.901,311.160 334.111 C 310.358 333.284,279.626 256.214,279.964 255.876 C 280.534 255.306,308.971 234.835,309.200 234.830 C 309.310 234.828,314.127 242.661,319.905 252.238 M286.696 293.880 C 294.008 312.064,299.934 326.999,299.865 327.069 C 299.795 327.138,293.272 322.852,285.369 317.544 C 277.466 312.236,263.768 303.061,254.928 297.154 C 246.089 291.248,238.751 286.245,238.623 286.037 C 238.494 285.828,242.486 282.707,247.494 279.100 C 269.801 263.035,272.937 260.801,273.162 260.809 C 273.293 260.814,279.383 275.696,286.696 293.880 M190.757 268.700 C 190.524 269.305,187.633 277.090,184.332 286.000 C 181.032 294.910,175.366 310.185,171.743 319.944 C 168.119 329.703,165.231 337.764,165.324 337.857 C 165.418 337.951,180.294 327.391,198.382 314.391 C 216.470 301.391,231.510 290.810,231.803 290.877 C 232.664 291.075,305.181 339.772,305.086 340.088 C 304.617 341.661,286.442 354.425,277.931 359.160 C 217.507 392.773,139.511 383.722,90.081 337.362 L 87.562 335.000 109.457 320.738 L 131.351 306.477 133.688 308.509 C 139.761 313.792,143.935 320.926,144.998 327.841 L 145.251 329.483 143.034 329.712 C 132.999 330.747,128.609 343.719,135.845 350.955 C 147.221 362.330,164.381 346.199,154.166 333.733 C 152.850 332.126,152.734 331.763,152.564 328.701 C 152.098 320.346,148.705 313.297,141.546 305.808 L 138.027 302.127 164.513 284.864 C 194.605 265.251,191.301 267.287,190.757 268.700 M211.525 277.057 C 218.276 281.598,224.018 285.513,224.284 285.757 C 224.649 286.091,219.405 290.053,202.915 301.898 C 190.897 310.532,180.990 317.524,180.902 317.435 C 180.758 317.291,198.164 269.906,198.649 269.121 C 198.971 268.600,198.757 268.469,211.525 277.057 M90.770 289.436 C 93.063 289.746,94.980 290.000,95.030 290.000 C 95.080 290.000,91.774 298.370,87.682 308.600 C 83.591 318.830,80.120 327.200,79.969 327.200 C 78.570 327.200,65.606 309.975,59.806 300.409 C 56.161 294.399,55.497 292.927,56.315 292.672 C 56.692 292.555,58.260 292.017,59.800 291.476 C 68.025 288.589,79.108 287.859,90.770 289.436 M107.200 293.019 C 113.246 294.885,124.806 300.504,124.798 301.574 C 124.797 301.777,90.336 324.429,89.581 324.722 C 89.408 324.790,92.258 317.364,95.914 308.221 C 101.135 295.165,102.694 291.637,103.181 291.784 C 103.521 291.886,105.330 292.442,107.200 293.019 M148.208 338.528 C 149.856 340.176,150.291 342.129,149.456 344.127 C 147.704 348.320,141.544 348.081,140.038 343.761 C 138.314 338.814,144.520 334.840,148.208 338.528 " stroke="none" fill="#000000" fill-rule="evenodd"></path></g></svg>