<svg id="svg" xmlns="http://www.w3.org/2000/svg" xmlns:xlink="http://www.w3.org/1999/xlink" width="400" height="422.8" viewBox="0, 0, 400,422.8" version="1.1"><g id="svgg"><path id="path0" d="M184.400 39.638 C 74.713 49.091,-0.356 153.546,25.823 260.290 C 42.600 328.697,99.650 381.657,169.000 393.201 C 290.797 413.475,395.647 308.832,375.207 187.400 C 359.936 96.671,276.085 31.736,184.400 39.638 M215.863 80.200 C 241.747 123.018,243.200 125.443,243.200 125.840 C 243.200 126.405,235.999 146.150,235.674 146.474 C 235.523 146.625,231.944 138.165,227.721 127.674 C 223.497 117.183,215.262 96.749,209.421 82.265 C 197.770 53.376,198.381 55.096,199.836 55.273 C 200.741 55.384,202.757 58.518,215.863 80.200 M188.688 56.100 C 181.713 73.764,148.245 157.094,148.040 157.307 C 147.878 157.476,143.500 157.566,138.312 157.507 L 128.878 157.400 131.397 153.000 C 133.741 148.905,169.320 86.478,181.492 65.100 C 186.271 56.708,187.017 55.600,187.894 55.600 C 188.526 55.600,188.814 55.781,188.688 56.100 M216.061 56.188 C 271.399 62.061,319.640 95.587,344.565 145.494 C 347.422 151.216,348.985 154.752,348.754 154.971 C 348.625 155.094,281.410 156.011,273.130 156.003 L 270.459 156.000 261.033 140.395 L 251.607 124.791 253.646 119.295 C 263.607 92.464,278.772 85.610,277.483 108.522 C 277.030 116.585,275.509 120.471,272.224 121.960 C 257.411 128.677,265.734 150.692,281.105 145.450 C 291.063 142.054,292.298 127.707,283.076 122.547 C 282.398 122.167,282.413 121.969,283.364 118.686 C 288.259 101.795,282.892 87.535,271.600 87.428 C 263.129 87.348,254.987 96.120,248.163 112.676 C 247.365 114.614,246.670 116.246,246.620 116.302 C 246.517 116.417,246.933 117.100,225.656 81.896 C 217.045 67.649,210.000 55.904,210.000 55.796 C 210.000 55.537,209.804 55.524,216.061 56.188 M176.876 58.100 C 176.442 58.815,167.217 74.970,156.376 94.000 C 145.535 113.030,132.919 135.170,128.339 143.200 L 120.013 157.800 84.106 158.252 C 64.358 158.500,48.143 158.654,48.074 158.592 C 48.004 158.531,48.574 156.978,49.340 155.141 C 69.017 107.943,111.033 71.984,160.527 59.983 C 165.797 58.705,175.076 56.904,176.733 56.837 L 177.665 56.800 176.876 58.100 M212.788 110.693 L 231.145 156.200 226.872 156.452 C 216.478 157.066,156.267 157.324,156.491 156.753 C 156.611 156.449,164.849 135.860,174.798 111.000 C 184.748 86.140,193.061 65.350,193.272 64.800 C 193.800 63.425,192.266 59.818,212.788 110.693 M279.004 128.976 C 279.762 129.293,280.746 130.148,281.190 130.876 C 283.920 135.354,278.925 140.703,274.522 138.018 C 269.029 134.668,273.078 126.500,279.004 128.976 M254.014 143.287 C 256.976 148.175,259.885 153.011,260.477 154.033 L 261.554 155.891 259.118 156.145 C 255.710 156.502,240.400 156.465,240.399 156.100 C 240.397 155.532,248.200 134.407,248.414 134.404 C 248.531 134.402,251.051 138.399,254.014 143.287 M337.380 163.140 C 337.102 163.390,307.166 182.927,293.343 191.880 C 292.538 192.402,274.698 164.369,275.393 163.674 C 275.574 163.493,307.877 162.988,326.980 162.868 C 332.933 162.830,337.590 162.952,337.380 163.140 M353.089 165.824 C 362.098 192.242,363.868 221.468,358.183 249.919 C 357.422 253.724,356.800 256.919,356.800 257.019 C 356.800 257.119,355.398 257.200,353.684 257.200 C 348.501 257.200,343.333 258.972,338.375 262.450 C 337.063 263.370,335.919 264.050,335.832 263.962 C 335.415 263.537,316.092 231.508,315.814 230.782 C 315.639 230.325,317.777 228.595,323.968 224.182 C 328.582 220.892,332.368 218.065,332.379 217.900 C 332.391 217.735,326.845 217.600,320.056 217.600 L 307.713 217.600 302.245 208.565 C 299.237 203.596,296.737 199.359,296.688 199.150 C 296.587 198.715,351.204 162.834,351.771 162.963 C 351.975 163.009,352.568 164.297,353.089 165.824 M276.002 179.652 C 281.339 188.481,285.727 195.950,285.753 196.249 C 285.856 197.441,262.011 212.464,261.573 211.483 C 261.356 210.997,256.966 200.160,251.816 187.400 L 242.454 164.200 245.727 163.975 C 247.527 163.851,252.892 163.716,257.649 163.675 L 266.297 163.600 276.002 179.652 M229.194 164.300 C 229.190 164.465,224.803 176.480,219.445 191.000 L 209.703 217.400 172.975 217.502 L 136.246 217.604 134.723 216.596 C 132.796 215.321,131.713 218.715,143.240 189.900 L 153.282 164.800 164.941 164.744 C 171.353 164.713,185.690 164.568,196.800 164.421 C 207.910 164.275,219.745 164.121,223.100 164.078 C 226.455 164.035,229.197 164.135,229.194 164.300 M115.600 165.403 C 115.600 166.311,99.766 193.108,99.365 192.879 C 99.097 192.725,90.029 186.660,79.215 179.400 L 59.552 166.200 64.276 166.087 C 66.874 166.024,78.990 165.829,91.200 165.652 C 103.410 165.474,113.895 165.300,114.500 165.265 C 115.105 165.229,115.600 165.292,115.600 165.403 M144.800 165.498 C 144.800 166.623,126.588 211.115,126.223 210.881 C 120.178 206.994,106.400 197.489,106.400 197.206 C 106.400 196.994,110.462 189.705,115.427 181.010 L 124.454 165.200 134.627 165.200 C 140.222 165.200,144.800 165.334,144.800 165.498 M70.360 182.455 C 83.912 191.505,95.235 199.126,95.521 199.391 C 95.943 199.779,95.076 201.569,90.992 208.736 L 85.941 217.600 78.377 217.600 L 70.813 217.600 69.838 215.675 C 63.938 204.032,46.209 208.482,46.234 221.600 C 46.258 234.773,64.765 238.853,70.166 226.876 L 70.921 225.200 76.293 225.200 L 81.665 225.200 80.876 226.500 C 80.442 227.215,73.382 239.590,65.188 254.000 C 56.994 268.410,50.163 280.342,50.009 280.516 C 49.670 280.897,46.718 273.359,44.416 266.236 C 35.644 239.088,34.546 207.709,41.380 179.409 C 42.844 173.345,45.089 166.000,45.479 166.000 C 45.612 166.000,56.808 173.405,70.360 182.455 M243.002 185.600 C 246.678 194.730,250.956 205.327,252.510 209.148 C 254.670 214.462,255.238 216.250,254.924 216.748 C 254.555 217.333,252.606 217.411,236.057 217.504 L 217.600 217.608 218.346 215.645 C 218.756 214.565,222.842 203.493,227.426 191.041 C 232.009 178.588,235.886 168.534,236.040 168.700 C 236.194 168.865,239.327 176.470,243.002 185.600 M294.531 210.300 L 298.807 217.400 291.230 217.509 C 287.063 217.568,280.123 217.568,275.809 217.509 L 267.964 217.400 278.860 210.300 C 284.852 206.395,289.868 203.200,290.005 203.200 C 290.143 203.200,292.179 206.395,294.531 210.300 M108.792 217.505 C 101.249 217.563,95.001 217.535,94.908 217.442 C 94.767 217.301,99.996 207.858,101.851 204.904 C 102.408 204.016,102.506 204.069,112.461 210.704 L 122.508 217.400 108.792 217.505 M61.094 217.071 C 64.196 218.544,64.672 223.090,61.962 225.371 C 59.530 227.417,55.575 226.640,54.254 223.857 C 52.057 219.228,56.452 214.868,61.094 217.071 M120.800 225.500 C 120.801 225.936,98.334 282.142,98.013 282.509 C 97.864 282.679,95.775 282.501,93.371 282.115 C 83.460 280.521,68.005 281.223,59.858 283.636 C 58.349 284.083,57.022 284.356,56.908 284.242 C 56.795 284.128,63.143 272.732,71.016 258.917 C 78.889 245.103,86.426 231.867,87.765 229.505 L 90.200 225.209 105.500 225.205 C 113.915 225.202,120.800 225.335,120.800 225.500 M160.133 242.640 C 174.470 252.232,186.436 260.304,186.724 260.578 C 187.139 260.973,138.711 293.233,132.140 296.939 C 131.887 297.081,129.996 296.048,127.938 294.643 C 122.120 290.670,114.757 287.236,108.100 285.388 C 106.725 285.007,105.600 284.539,105.600 284.348 C 105.600 284.015,128.686 226.112,129.063 225.500 C 129.164 225.335,130.331 225.200,131.656 225.200 L 134.065 225.200 160.133 242.640 M205.660 228.300 C 198.293 248.487,195.752 255.123,195.135 255.787 C 194.416 256.561,194.054 256.339,171.202 241.029 C 158.441 232.480,148.000 225.421,148.000 225.342 C 148.000 225.264,161.228 225.200,177.396 225.200 L 206.792 225.200 205.660 228.300 M241.967 225.357 C 241.309 225.974,206.645 248.378,206.528 248.261 C 206.404 248.138,210.470 236.826,213.989 227.500 L 214.857 225.200 228.495 225.200 C 235.996 225.200,242.058 225.270,241.967 225.357 M264.489 238.906 C 267.507 246.438,270.027 252.805,270.089 253.055 C 270.182 253.436,233.121 280.510,231.740 281.069 C 231.169 281.300,201.595 261.635,201.613 261.035 C 201.643 259.971,255.735 225.259,257.400 225.235 L 259.000 225.211 264.489 238.906 M304.420 226.633 C 305.171 227.847,305.222 228.146,304.753 228.593 C 303.813 229.489,276.729 248.863,276.605 248.727 C 276.451 248.560,267.200 225.578,267.200 225.364 C 267.200 225.274,275.375 225.200,285.367 225.200 L 303.535 225.200 304.420 226.633 M319.905 252.238 L 330.411 269.651 328.437 271.926 C 322.984 278.208,318.000 285.368,318.000 286.918 C 318.000 288.930,319.414 290.400,321.349 290.400 C 323.515 290.400,323.831 290.152,326.883 286.055 C 337.995 271.141,344.857 265.314,351.836 264.870 C 353.246 264.780,354.400 264.798,354.400 264.909 C 354.400 267.638,346.162 286.943,341.175 295.900 C 333.554 309.587,312.887 335.900,311.163 334.111 C 310.414 333.334,279.623 256.217,279.936 255.904 C 280.492 255.348,308.978 234.834,309.200 234.829 C 309.310 234.827,314.127 242.661,319.905 252.238 M286.696 293.880 C 294.008 312.064,299.934 326.999,299.865 327.069 C 299.795 327.138,293.272 322.853,285.369 317.546 C 277.466 312.239,263.763 303.057,254.919 297.141 C 246.074 291.225,238.736 286.221,238.613 286.021 C 238.490 285.821,242.486 282.707,247.494 279.100 C 269.801 263.035,272.937 260.801,273.162 260.809 C 273.293 260.814,279.383 275.696,286.696 293.880 M190.756 268.700 C 190.352 269.748,171.292 321.117,167.140 332.348 C 166.053 335.290,165.238 337.771,165.329 337.862 C 165.420 337.953,180.280 327.401,198.350 314.414 C 216.421 301.426,231.384 290.800,231.600 290.800 C 231.816 290.800,243.830 298.737,258.297 308.438 C 272.764 318.139,289.229 329.164,294.886 332.938 C 300.544 336.712,305.134 339.930,305.086 340.088 C 304.329 342.622,281.738 357.549,270.000 363.271 C 210.905 392.083,137.092 381.454,90.081 337.362 L 87.562 335.000 109.457 320.738 L 131.351 306.477 133.688 308.509 C 139.761 313.792,143.935 320.926,144.998 327.841 L 145.251 329.483 143.034 329.712 C 132.999 330.747,128.609 343.719,135.845 350.955 C 147.221 362.330,164.381 346.199,154.166 333.733 C 152.850 332.126,152.734 331.763,152.564 328.701 C 152.098 320.346,148.705 313.297,141.546 305.808 L 138.027 302.127 164.513 284.864 C 194.604 265.252,191.301 267.287,190.756 268.700 M212.043 277.441 C 219.087 282.194,224.795 286.136,224.726 286.202 C 223.889 286.997,181.021 317.554,180.904 317.438 C 180.763 317.296,198.183 269.874,198.659 269.104 C 198.966 268.608,198.747 268.472,212.043 277.441 M90.770 289.436 C 93.063 289.746,94.980 290.000,95.030 290.000 C 95.080 290.000,91.774 298.370,87.682 308.600 C 83.591 318.830,80.120 327.200,79.969 327.200 C 78.082 327.200,61.073 303.628,56.620 294.840 L 55.645 292.915 59.322 291.661 C 68.492 288.533,78.732 287.809,90.770 289.436 M107.200 293.019 C 113.246 294.885,124.806 300.504,124.798 301.574 C 124.797 301.777,90.336 324.429,89.581 324.722 C 89.408 324.790,92.258 317.364,95.914 308.221 C 101.135 295.165,102.694 291.637,103.181 291.784 C 103.521 291.886,105.330 292.442,107.200 293.019 M148.208 338.528 C 149.856 340.176,150.291 342.129,149.456 344.127 C 147.704 348.320,141.544 348.081,140.038 343.761 C 138.314 338.814,144.520 334.840,148.208 338.528 " stroke="none" fill="#060606" fill-rule="evenodd"></path><path id="path1" d="M0.000 211.400 L 0.000 422.800 200.000 422.800 L 400.000 422.800 400.000 211.400 L 400.000 0.000 200.000 0.000 L 0.000 0.000 0.000 211.400 M213.400 39.611 C 321.967 48.723,397.311 150.998,373.391 256.790 C 353.670 344.009,271.662 403.405,182.564 395.000 C 76.011 384.948,2.210 284.377,24.619 179.765 C 43.240 92.838,124.935 32.186,213.400 39.611 M198.800 55.538 C 198.800 55.753,203.579 67.780,209.421 82.265 C 215.262 96.749,223.497 117.183,227.721 127.674 C 231.944 138.165,235.523 146.625,235.674 146.474 C 235.999 146.150,243.200 126.405,243.200 125.840 C 243.200 125.443,241.747 123.018,215.863 80.200 C 202.757 58.518,200.741 55.384,199.836 55.273 C 199.266 55.204,198.800 55.323,198.800 55.538 M181.492 65.100 C 169.320 86.478,133.741 148.905,131.397 153.000 L 128.878 157.400 138.312 157.507 C 143.500 157.566,147.878 157.476,148.040 157.307 C 148.245 157.094,181.713 73.764,188.688 56.100 C 188.814 55.781,188.526 55.600,187.894 55.600 C 187.017 55.600,186.271 56.708,181.492 65.100 M210.000 55.796 C 210.000 55.904,217.045 67.649,225.656 81.896 C 246.933 117.100,246.517 116.417,246.620 116.302 C 246.670 116.246,247.365 114.614,248.163 112.676 C 254.987 96.120,263.129 87.348,271.600 87.428 C 282.892 87.535,288.259 101.795,283.364 118.686 C 282.413 121.969,282.398 122.167,283.076 122.547 C 292.298 127.707,291.063 142.054,281.105 145.450 C 265.734 150.692,257.411 128.677,272.224 121.960 C 275.509 120.471,277.030 116.585,277.483 108.522 C 278.772 85.610,263.607 92.464,253.646 119.295 L 251.607 124.791 261.033 140.395 L 270.459 156.000 273.130 156.003 C 281.410 156.011,348.625 155.094,348.754 154.971 C 348.985 154.752,347.422 151.216,344.565 145.494 C 319.640 95.587,271.399 62.061,216.061 56.188 C 209.804 55.524,210.000 55.537,210.000 55.796 M170.727 57.807 C 122.348 66.699,80.953 96.287,57.191 138.962 C 53.497 145.596,47.639 158.209,48.074 158.592 C 48.143 158.654,64.358 158.500,84.106 158.252 L 120.013 157.800 128.339 143.200 C 132.919 135.170,145.535 113.030,156.376 94.000 C 167.217 74.970,176.442 58.815,176.876 58.100 L 177.665 56.800 176.733 56.837 C 176.220 56.858,173.517 57.295,170.727 57.807 M193.272 64.800 C 193.061 65.350,184.748 86.140,174.798 111.000 C 164.849 135.860,156.611 156.449,156.491 156.753 C 156.267 157.324,216.478 157.066,226.872 156.452 L 231.145 156.200 212.788 110.693 C 192.266 59.818,193.800 63.425,193.272 64.800 M274.828 129.101 C 271.018 131.044,270.855 135.782,274.522 138.018 C 278.925 140.703,283.920 135.354,281.190 130.876 C 279.818 128.625,277.195 127.894,274.828 129.101 M244.299 145.104 C 242.153 150.987,240.398 155.935,240.399 156.100 C 240.400 156.465,255.710 156.502,259.118 156.145 L 261.554 155.891 260.477 154.033 C 257.389 148.703,248.598 134.400,248.414 134.404 C 248.296 134.406,246.445 139.221,244.299 145.104 M295.884 163.217 C 284.711 163.371,275.490 163.577,275.393 163.674 C 274.698 164.369,292.538 192.402,293.343 191.880 C 307.166 182.927,337.102 163.390,337.380 163.140 C 337.797 162.767,326.935 162.787,295.884 163.217 M324.000 180.824 C 308.930 190.694,296.640 198.941,296.688 199.150 C 296.737 199.359,299.237 203.596,302.245 208.565 L 307.713 217.600 320.056 217.600 C 326.845 217.600,332.391 217.735,332.379 217.900 C 332.368 218.065,328.582 220.892,323.968 224.182 C 317.777 228.595,315.639 230.325,315.814 230.782 C 316.092 231.508,335.415 263.537,335.832 263.962 C 335.919 264.050,337.063 263.370,338.375 262.450 C 343.333 258.972,348.501 257.200,353.684 257.200 C 355.398 257.200,356.800 257.119,356.800 257.019 C 356.800 256.919,357.422 253.724,358.183 249.919 C 363.363 223.997,362.429 198.176,355.420 173.479 C 353.560 166.926,352.221 163.065,351.771 162.963 C 351.567 162.917,339.070 170.954,324.000 180.824 M245.727 163.975 L 242.454 164.200 251.816 187.400 C 256.966 200.160,261.356 210.997,261.573 211.483 C 262.011 212.464,285.856 197.441,285.753 196.249 C 285.727 195.950,281.339 188.481,276.002 179.652 L 266.297 163.600 257.649 163.675 C 252.892 163.716,247.527 163.851,245.727 163.975 M196.800 164.421 C 185.690 164.568,171.353 164.713,164.941 164.744 L 153.282 164.800 143.240 189.900 C 131.713 218.715,132.796 215.321,134.723 216.596 L 136.246 217.604 172.975 217.502 L 209.703 217.400 219.445 191.000 C 224.803 176.480,229.190 164.465,229.194 164.300 C 229.197 164.135,226.455 164.035,223.100 164.078 C 219.745 164.121,207.910 164.275,196.800 164.421 M91.200 165.652 C 78.990 165.829,66.874 166.024,64.276 166.087 L 59.552 166.200 79.215 179.400 C 90.029 186.660,99.097 192.725,99.365 192.879 C 99.766 193.108,115.600 166.311,115.600 165.403 C 115.600 165.292,115.105 165.229,114.500 165.265 C 113.895 165.300,103.410 165.474,91.200 165.652 M115.427 181.010 C 110.462 189.705,106.400 196.994,106.400 197.206 C 106.400 197.489,120.178 206.994,126.223 210.881 C 126.588 211.115,144.800 166.623,144.800 165.498 C 144.800 165.334,140.222 165.200,134.627 165.200 L 124.454 165.200 115.427 181.010 M43.986 169.900 C 35.652 195.868,34.688 227.636,41.389 255.436 C 43.595 264.587,49.331 281.278,50.009 280.516 C 50.163 280.342,56.994 268.410,65.188 254.000 C 73.382 239.590,80.442 227.215,80.876 226.500 L 81.665 225.200 76.293 225.200 L 70.921 225.200 70.166 226.876 C 64.765 238.853,46.258 234.773,46.234 221.600 C 46.209 208.482,63.938 204.032,69.838 215.675 L 70.813 217.600 78.377 217.600 L 85.941 217.600 90.992 208.736 C 95.076 201.569,95.943 199.779,95.521 199.391 C 94.768 198.696,45.767 166.000,45.479 166.000 C 45.346 166.000,44.674 167.755,43.986 169.900 M227.426 191.041 C 222.842 203.493,218.756 214.565,218.346 215.645 L 217.600 217.608 236.057 217.504 C 252.606 217.411,254.555 217.333,254.924 216.748 C 255.238 216.250,254.670 214.462,252.510 209.148 C 250.956 205.327,246.678 194.730,243.002 185.600 C 239.327 176.470,236.194 168.865,236.040 168.700 C 235.886 168.534,232.009 178.588,227.426 191.041 M278.860 210.300 L 267.964 217.400 275.809 217.509 C 280.123 217.568,287.063 217.568,291.230 217.509 L 298.807 217.400 294.531 210.300 C 292.179 206.395,290.143 203.200,290.005 203.200 C 289.868 203.200,284.852 206.395,278.860 210.300 M101.851 204.904 C 99.996 207.858,94.767 217.301,94.908 217.442 C 95.001 217.535,101.249 217.563,108.792 217.505 L 122.508 217.400 112.461 210.704 C 102.506 204.069,102.408 204.016,101.851 204.904 M56.119 217.184 C 53.752 218.627,53.018 221.253,54.254 223.857 C 55.575 226.640,59.530 227.417,61.962 225.371 C 66.648 221.427,61.346 213.997,56.119 217.184 M87.765 229.505 C 86.426 231.867,78.889 245.103,71.016 258.917 C 63.143 272.732,56.795 284.128,56.908 284.242 C 57.022 284.356,58.349 284.083,59.858 283.636 C 68.005 281.223,83.460 280.521,93.371 282.115 C 95.775 282.501,97.864 282.679,98.013 282.509 C 98.334 282.142,120.801 225.936,120.800 225.500 C 120.800 225.335,113.915 225.202,105.500 225.205 L 90.200 225.209 87.765 229.505 M129.063 225.500 C 128.686 226.112,105.600 284.015,105.600 284.348 C 105.600 284.539,106.725 285.007,108.100 285.388 C 114.757 287.236,122.120 290.670,127.938 294.643 C 129.996 296.048,131.887 297.081,132.140 296.939 C 138.711 293.233,187.139 260.973,186.724 260.578 C 186.436 260.304,174.470 252.232,160.133 242.640 L 134.065 225.200 131.656 225.200 C 130.331 225.200,129.164 225.335,129.063 225.500 M148.000 225.342 C 148.000 225.421,158.441 232.480,171.202 241.029 C 194.054 256.339,194.416 256.561,195.135 255.787 C 195.752 255.123,198.293 248.487,205.660 228.300 L 206.792 225.200 177.396 225.200 C 161.228 225.200,148.000 225.264,148.000 225.342 M213.989 227.500 C 210.470 236.826,206.404 248.138,206.528 248.261 C 206.645 248.378,241.309 225.974,241.967 225.357 C 242.058 225.270,235.996 225.200,228.495 225.200 L 214.857 225.200 213.989 227.500 M228.713 242.929 C 213.815 252.648,201.620 260.796,201.613 261.035 C 201.595 261.635,231.169 281.300,231.740 281.069 C 233.121 280.510,270.182 253.436,270.089 253.055 C 270.027 252.805,267.507 246.438,264.489 238.906 L 259.000 225.211 257.400 225.235 C 255.983 225.255,252.708 227.275,228.713 242.929 M267.200 225.364 C 267.200 225.578,276.451 248.560,276.605 248.727 C 276.729 248.863,303.813 229.489,304.753 228.593 C 305.222 228.146,305.171 227.847,304.420 226.633 L 303.535 225.200 285.367 225.200 C 275.375 225.200,267.200 225.274,267.200 225.364 M294.643 245.194 C 286.747 250.892,280.129 255.711,279.936 255.904 C 279.623 256.217,310.414 333.334,311.163 334.111 C 312.887 335.900,333.554 309.587,341.175 295.900 C 346.162 286.943,354.400 267.638,354.400 264.909 C 354.400 264.798,353.246 264.780,351.836 264.870 C 344.857 265.314,337.995 271.141,326.883 286.055 C 323.831 290.152,323.515 290.400,321.349 290.400 C 315.374 290.400,317.728 284.266,328.437 271.926 L 330.411 269.651 319.905 252.238 C 314.127 242.661,309.310 234.827,309.200 234.829 C 309.090 234.832,302.539 239.495,294.643 245.194 M264.762 266.671 C 260.273 269.900,252.502 275.494,247.494 279.100 C 242.486 282.707,238.490 285.821,238.613 286.021 C 238.736 286.221,246.074 291.225,254.919 297.141 C 263.763 303.057,277.466 312.239,285.369 317.546 C 293.272 322.853,299.795 327.138,299.865 327.069 C 300.057 326.877,273.436 260.819,273.162 260.809 C 273.031 260.804,269.251 263.442,264.762 266.671 M164.513 284.864 L 138.027 302.127 141.546 305.808 C 148.705 313.297,152.098 320.346,152.564 328.701 C 152.734 331.763,152.850 332.126,154.166 333.733 C 164.381 346.199,147.221 362.330,135.845 350.955 C 128.609 343.719,132.999 330.747,143.034 329.712 L 145.251 329.483 144.998 327.841 C 143.935 320.926,139.761 313.792,133.688 308.509 L 131.351 306.477 109.457 320.738 L 87.562 335.000 90.081 337.362 C 137.092 381.454,210.905 392.083,270.000 363.271 C 281.738 357.549,304.329 342.622,305.086 340.088 C 305.134 339.930,300.544 336.712,294.886 332.938 C 289.229 329.164,272.764 318.139,258.297 308.438 C 243.830 298.737,231.816 290.800,231.600 290.800 C 231.384 290.800,216.421 301.426,198.350 314.414 C 180.280 327.401,165.420 337.953,165.329 337.862 C 165.238 337.771,166.053 335.290,167.140 332.348 C 171.292 321.117,190.352 269.748,190.756 268.700 C 191.301 267.287,194.604 265.252,164.513 284.864 M198.659 269.104 C 198.183 269.874,180.763 317.296,180.904 317.438 C 181.021 317.554,223.889 286.997,224.726 286.202 C 224.860 286.074,199.364 268.800,199.041 268.800 C 198.934 268.800,198.763 268.937,198.659 269.104 M73.000 288.817 C 67.980 289.235,64.024 290.057,59.322 291.661 L 55.645 292.915 56.620 294.840 C 61.073 303.628,78.082 327.200,79.969 327.200 C 80.120 327.200,83.591 318.830,87.682 308.600 C 91.774 298.370,95.080 290.000,95.030 290.000 C 94.980 290.000,93.063 289.746,90.770 289.436 C 85.103 288.670,77.824 288.416,73.000 288.817 M95.914 308.221 C 92.258 317.364,89.408 324.790,89.581 324.722 C 90.336 324.429,124.797 301.777,124.798 301.574 C 124.799 301.449,123.135 300.355,121.100 299.143 C 115.947 296.073,111.876 294.401,103.181 291.784 C 102.694 291.637,101.135 295.165,95.914 308.221 M141.384 338.536 C 139.689 340.231,139.314 341.685,140.038 343.761 C 141.544 348.081,147.704 348.320,149.456 344.127 C 151.543 339.132,145.188 334.732,141.384 338.536 " stroke="none" fill="#fbfbfb" fill-rule="evenodd"></path></g></svg>